<?xml version="1.0" encoding="utf-8"?>
<!-- Generator: Adobe Illustrator 20.1.0, SVG Export Plug-In . SVG Version: 6.00 Build 0)  -->
<svg version="1.1" id="Слой_1" xmlns="http://www.w3.org/2000/svg" xmlns:xlink="http://www.w3.org/1999/xlink" x="0px" y="0px"
	 viewBox="0 0 1920 1080" style="enable-background:new 0 0 1920 1080;" xml:space="preserve">
<style type="text/css">
	.st0{fill:#F0DCA6;}
	.st1{fill:#D3AE80;}
	.st2{fill:#C2E2F7;}
	.st3{fill:#FFFFFF;}
	.st4{fill:#323145;}
	.st5{fill:#8381B7;}
	.st6{fill:#EAB730;}
	.st7{fill:#67B6A4;}
	.st8{fill:#CF525F;}
	.st9{fill:#5883BF;}
	.st10{fill:#1E1E2A;}
	.st11{fill:#42425A;}
	.st12{fill:#5A617E;}
	.st13{fill:#3F68A0;}
	.st14{fill:#8B4939;}
	.st15{fill:#73382D;}
	.st16{fill:#9A5749;}
	.st17{fill:#D88E85;}
	.st18{fill:#E3A89B;}
	.st19{fill:#DD8C2E;}
	.st20{fill:#B5363D;}
	.st21{fill:#743D34;}
	.st22{fill:#404A3A;}
	.st23{fill:#525D49;}
	.st24{fill:#508CA3;}
	.st25{fill:#D3E9F9;}
	.st26{fill:#FCF6DF;}
	.st27{fill:#CA585D;}
	.st28{fill:#9CC34D;}
	.st29{fill:#8381BA;}
	.st30{fill:#6F6EA4;}
	.st31{fill:#2B2A5F;}
	.st32{fill:#DB8D99;}
	.st33{fill:#59607B;}
	.st34{fill:none;}
	.st35{fill:#37709D;}
	.st36{fill:#FFD440;}
</style>
<path class="st0" d="M1555.4,1071.6c0,0-70.4,0-180.5,0H77.2c37.5,0,59.5-49.7,59.1-80c-0.4-28.9-9.8-57.2-9.3-86.1
	c0.5-24.7,9-49,23.1-69.1c14.4-20.5,38.3-30.3,51.6-50.6c16.9-25.6,18.2-58.3,15.6-88.9c-2.6-30.6-8.5-61.4-4-91.7
	c4.5-30.3,22.4-61.3,51.8-70.1c57.1-17.2,113,55.4,170,38c40.2-12.3,55.2-59.2,76.7-90.7c11.7-17.2,25.9-28.1,43.4-38.7
	c21.3-12.9,50-6.6,69.7-21.9c14.6-11.4,18-32.8,31.8-45.2c11-9.9,26.7-12.4,41.4-12.3c14.7,0.1,29.6,2.3,44.2,0.1
	c23.4-3.5,43.6-18.1,61-34.1c17.4-16,33.3-34,53.1-47c31.4-20.7,74.7-19.3,110.3-11.2c37.4,8.5,74,27.5,98.9,57.2
	c37.2,44.5,37.4,105.2,96.5,134.5c37.9,18.8,82.6,14.5,124.9,15.2c42.3,0.8,89.8,10.1,113.3,45.4c27.3,41,12.4,94.6,29.3,139
	c16.1,42.5,66.6,35.9,95.9,67.7c22.3,24.2,32.7,58.8,27.5,91.3c-7.8,47.9-47.2,92.6-33.5,139.3c5.7,19.5,20,35.2,30.4,52.7
	C1560.3,1031.5,1566.5,1054.5,1555.4,1071.6z"/>
<path class="st1" d="M1374.8,1065.6H410.2c-15.2-32.4-9.9-75.1,17.1-99.5c27.4-24.8,72.2-32.6,85.9-66.9c9-22.3,0.8-47.2-4.6-70.7
	c-5.4-23.4-6.4-51.8,11.9-67.4c16.6-14.1,41.4-11,62.5-5.4c37.3,9.7,71.8,14,94.5-23c7.9-12.8,13.4-27,22.2-39.3
	c14.6-20.4,37.9-34.3,62.8-37.4c24.8-3.1,51,4.5,70.1,20.5c14,11.7,24.8,27.9,41.3,35.8c15.9,7.7,34.7,6.5,52,2.5
	c17.2-4,33.8-10.6,51.3-13.5c17.5-2.9,36.7-1.4,50.7,9.4c11.8,9,17.8,23,21.4,37c3.3,13.3,2.5,22.7,14,31.2
	c24.5,18.2,55.1,18.4,84.4,17.5c34.3-1.2,76.6,4.1,89.4,36c14.1,35.1-18.1,82,7.4,109.9c13.8,15.1,37.1,14.9,57,19.9
	c31.3,7.9,57.8,32.2,68.5,62.6C1374.4,1037.9,1376.1,1051.8,1374.8,1065.6z"/>
<g>
	<g>
		<g>
			<path class="st2" d="M1423.6,335v242.2c0,12.7-10.2,22.9-22.9,22.9h-519c-12.7,0-22.9-10.2-22.9-22.9V335
				c0-12.7,10.2-22.9,22.9-22.9h519C1413.4,312.1,1423.6,322.3,1423.6,335z"/>
			<path class="st3" d="M870,588.8h542.4V323.3H870V588.8z"/>
			<path class="st4" d="M896.9,312.1v11.2c-14.9,0-26.9,12.1-26.9,26.9h-11.2V335c0-12.7,10.2-22.9,22.9-22.9H896.9z"/>
			<path class="st4" d="M858.7,562H870c0,14.9,12.1,26.9,26.9,26.9v11.2h-15.2c-12.7,0-22.9-10.2-22.9-22.9L858.7,562L858.7,562z"/>
			<path class="st4" d="M1385.4,312.1v11.2c14.9,0,26.9,12.1,26.9,26.9h11.2V335c0-12.7-10.2-22.9-22.9-22.9H1385.4z"/>
			<path class="st4" d="M1385.4,600.1v-11.2c14.9,0,26.9-12.1,26.9-26.9h11.2v15.2c0,12.7-10.2,22.9-22.9,22.9H1385.4z"/>
		</g>
		<g>
			<path class="st5" d="M1012.5,392.2h-63c-6.8,0-12.3-5.5-12.3-12.3l0,0c0-6.8,5.5-12.3,12.3-12.3h63c6.8,0,12.3,5.5,12.3,12.3l0,0
				C1024.9,386.6,1019.4,392.2,1012.5,392.2z"/>
			<path class="st5" d="M1280,448.8h-12v-12.3c0-4.1-3.4-7.4-7.4-7.4H994.4c-10.7,0-19.4-8.7-19.4-19.4v-29.7h12v29.7
				c0,4.1,3.4,7.4,7.4,7.4h266.2c10.7,0,19.4,8.7,19.4,19.4V448.8z"/>
			<rect x="1063.9" y="422.5" class="st5" width="12" height="26.3"/>
			<rect x="1132" y="422.5" class="st5" width="12" height="26.3"/>
			<rect x="1200" y="422.5" class="st5" width="12" height="26.3"/>
		</g>
		<path class="st6" d="M1082.6,461.1h-25.4c-6.8,0-12.3-5.5-12.3-12.3l0,0c0-6.8,5.5-12.3,12.3-12.3h25.4c6.8,0,12.3,5.5,12.3,12.3
			l0,0C1095,455.6,1089.5,461.1,1082.6,461.1z"/>
		<path class="st7" d="M1150.6,461.1h-25.4c-6.8,0-12.3-5.5-12.3-12.3l0,0c0-6.8,5.5-12.3,12.3-12.3h25.4c6.8,0,12.3,5.5,12.3,12.3
			l0,0C1163,455.6,1157.5,461.1,1150.6,461.1z"/>
		<path class="st8" d="M1286.8,461.1h-25.4c-6.8,0-12.3-5.5-12.3-12.3l0,0c0-6.8,5.5-12.3,12.3-12.3h25.4c6.8,0,12.3,5.5,12.3,12.3
			l0,0C1299.1,455.6,1293.6,461.1,1286.8,461.1z"/>
		<path class="st9" d="M1218.8,461.1h-25.4c-6.8,0-12.3-5.5-12.3-12.3l0,0c0-6.8,5.5-12.3,12.3-12.3h25.4c6.8,0,12.3,5.5,12.3,12.3
			l0,0C1231.1,455.6,1225.5,461.1,1218.8,461.1z"/>
		<g>
			<path class="st5" d="M949.9,484.6h-30.5c-2,0-3.7-1.7-3.7-3.7l0,0c0-2,1.6-3.7,3.7-3.7h30.5c2,0,3.7,1.6,3.7,3.7l0,0
				C953.6,482.9,951.9,484.6,949.9,484.6z"/>
			<path class="st5" d="M949.9,544.1h-30.5c-2,0-3.7-1.7-3.7-3.7l0,0c0-2,1.6-3.7,3.7-3.7h30.5c2,0,3.7,1.7,3.7,3.7l0,0
				C953.6,542.4,951.9,544.1,949.9,544.1z"/>
			<path class="st8" d="M965.6,500.4H935c-2,0-3.7-1.7-3.7-3.7l0,0c0-2,1.6-3.7,3.7-3.7h30.5c2,0,3.7,1.7,3.7,3.7l0,0
				C969.3,498.8,967.6,500.4,965.6,500.4z"/>
			<path class="st8" d="M1032.7,500.4h-51.8c-2,0-3.7-1.7-3.7-3.7l0,0c0-2,1.7-3.7,3.7-3.7h51.8c2,0,3.7,1.7,3.7,3.7l0,0
				C1036.4,498.8,1034.7,500.4,1032.7,500.4z"/>
			<path class="st6" d="M965.6,515.7H935c-2,0-3.7-1.7-3.7-3.7l0,0c0-2,1.6-3.7,3.7-3.7h30.5c2,0,3.7,1.7,3.7,3.7l0,0
				C969.3,514.1,967.6,515.7,965.6,515.7z"/>
			<path class="st5" d="M1032.7,515.7h-51.8c-2,0-3.7-1.7-3.7-3.7l0,0c0-2,1.7-3.7,3.7-3.7h51.8c2,0,3.7,1.7,3.7,3.7l0,0
				C1036.4,514.1,1034.7,515.7,1032.7,515.7z"/>
			<path class="st6" d="M965.6,531H935c-2,0-3.7-1.7-3.7-3.7l0,0c0-2,1.6-3.7,3.7-3.7h30.5c2,0,3.7,1.7,3.7,3.7l0,0
				C969.3,529.3,967.6,531,965.6,531z"/>
			<path class="st8" d="M1032.7,531h-51.8c-2,0-3.7-1.7-3.7-3.7l0,0c0-2,1.7-3.7,3.7-3.7h51.8c2,0,3.7,1.7,3.7,3.7l0,0
				C1036.4,529.3,1034.7,531,1032.7,531z"/>
			<path class="st8" d="M965.6,558.5H935c-2,0-3.7-1.7-3.7-3.7l0,0c0-2,1.6-3.7,3.7-3.7h30.5c2,0,3.7,1.7,3.7,3.7l0,0
				C969.3,556.8,967.6,558.5,965.6,558.5z"/>
		</g>
		<g>
			<path class="st5" d="M1173.6,488H1143c-2,0-3.7-1.7-3.7-3.7l0,0c0-2,1.7-3.7,3.7-3.7h30.5c2,0,3.7,1.7,3.7,3.7l0,0
				C1177.3,486.3,1175.6,488,1173.6,488z"/>
			<path class="st5" d="M1173.6,547.6H1143c-2,0-3.7-1.7-3.7-3.7l0,0c0-2,1.7-3.7,3.7-3.7h30.5c2,0,3.7,1.7,3.7,3.7l0,0
				C1177.3,545.9,1175.6,547.6,1173.6,547.6z"/>
			<path class="st8" d="M1189.2,503.9h-30.5c-2,0-3.7-1.7-3.7-3.7l0,0c0-2,1.7-3.7,3.7-3.7h30.5c2,0,3.7,1.7,3.7,3.7l0,0
				C1192.9,502.3,1191.3,503.9,1189.2,503.9z"/>
			<path class="st8" d="M1256.3,503.9h-51.8c-2,0-3.7-1.7-3.7-3.7l0,0c0-2,1.7-3.7,3.7-3.7h51.8c2,0,3.7,1.7,3.7,3.7l0,0
				C1260,502.3,1258.3,503.9,1256.3,503.9z"/>
			<path class="st7" d="M1189.2,563.2h-30.5c-2,0-3.7-1.7-3.7-3.7l0,0c0-2,1.7-3.7,3.7-3.7h30.5c2,0,3.7,1.7,3.7,3.7l0,0
				C1192.9,561.5,1191.3,563.2,1189.2,563.2z"/>
			<path class="st7" d="M1256.3,563.2h-51.8c-2,0-3.7-1.7-3.7-3.7l0,0c0-2,1.7-3.7,3.7-3.7h51.8c2,0,3.7,1.7,3.7,3.7l0,0
				C1260,561.5,1258.3,563.2,1256.3,563.2z"/>
			<path class="st6" d="M1175,519.2h-30.5c-2,0-3.7-1.7-3.7-3.7l0,0c0-2,1.6-3.7,3.7-3.7h30.5c2,0,3.7,1.6,3.7,3.7l0,0
				C1178.6,517.5,1177,519.2,1175,519.2z"/>
			<path class="st5" d="M1240.2,519.2h-51.8c-2,0-3.7-1.7-3.7-3.7l0,0c0-2,1.7-3.7,3.7-3.7h51.8c2,0,3.7,1.6,3.7,3.7l0,0
				C1244,517.5,1242.3,519.2,1240.2,519.2z"/>
			<path class="st6" d="M1189.2,534.4h-30.5c-2,0-3.7-1.7-3.7-3.7l0,0c0-2,1.7-3.7,3.7-3.7h30.5c2,0,3.7,1.7,3.7,3.7l0,0
				C1192.9,532.8,1191.3,534.4,1189.2,534.4z"/>
			<path class="st8" d="M1256.3,534.4h-51.8c-2,0-3.7-1.7-3.7-3.7l0,0c0-2,1.7-3.7,3.7-3.7h51.8c2,0,3.7,1.7,3.7,3.7l0,0
				C1260,532.8,1258.3,534.4,1256.3,534.4z"/>
		</g>
		<path class="st5" d="M1064.9,576.9h-176V461.4h176V576.9z M900.8,565h152v-91.6h-152V565z"/>
	</g>
	<g>
		<g>
			<path class="st4" d="M1104.9,1061.2h-14.8c-0.7,0-1.2-0.5-1.2-1.2v-89.9h17.2v89.9C1106.1,1060.7,1105.6,1061.2,1104.9,1061.2z"
				/>
			<polygon class="st10" points="1097.8,1046.8 1013,1051.7 1013,1066.9 1097.8,1066.9 1182.8,1066.9 1182.8,1051.7 			"/>
			<path class="st11" d="M1110.9,987.2h-26.7c-1.2,0-2.1-0.9-2.1-2.1v-44.4h31v44.4C1113,986.2,1112.1,987.2,1110.9,987.2z"/>
			<path class="st4" d="M1071.9,927.2v15.1c0,3.5,2.9,6.3,6.3,6.3h39.3c3.5,0,6.3-2.9,6.3-6.3v-15.1H1071.9z"/>
			<path class="st12" d="M1230.3,697.2c0,12-12,172.5-16.5,192.5c-4.5,20-19,37-32.5,42s-176.6,1.5-184,1.5c-6.3,0-11.8-4.2-13.8-12
				c-0.4-1.5-0.6-3.2-0.7-5c-0.5-11-0.3-24.2,6-27.5c9.5-5,92.5-1.5,92.5-1.5s25-169.5,25.7-190.5c0.1-3.5,0.5-6.5,1.3-9.1
				c3.6-13.3,14.5-16.6,27-17.9c15-1.5,59.5-0.5,75.6,1.5C1226.9,673.2,1230.3,685.2,1230.3,697.2z"/>
			<path class="st11" d="M1216.8,712.2c-1.5,14.5-10.5,159.1-22.5,182.6c-12,23.5-25.5,26.5-49.5,26.5H983.5c-0.4-1.5-0.6-3.2-0.7-5
				c-0.5-11-0.3-24.2,6-27.5c9.5-5,92.5-1.5,92.5-1.5s25-169.5,25.7-190.5c0.1-3.5,0.5-6.5,1.3-9.1c3.8-3.5,9.7-6.2,18.9-6.8
				c28.7-1.7,73.6,0.8,81.1,3.8C1216.8,688.2,1218.3,697.7,1216.8,712.2z"/>
		</g>
		<g>
			<g>
				<g>
					<path class="st13" d="M1082.9,843.1c0,0-85.7,20.5-99.9,29.2c-14.3,8.6-48.9,169.1-48.9,169.1s33.6,11.7,43.8,25.4
						c16.8-73.3,40.8-150.8,40.8-150.8s67.7-18.8,81.4-23.9c13.8-5.1,35.7-20.9,41.2-41.2C1146.8,830.6,1088.2,839.9,1082.9,843.1z"
						/>
				</g>
				<g>
					<path class="st14" d="M977.8,1066.9H955h-6.1h-54.6c0,0,1.8-2.3,4.3-5c2.8-2.9,6.4-6.1,10-7.3c6.8-2.3,17.1-9.1,20.8-12.5
						c3.7-3.4,18.2-11.2,23.8-9.9c4.6,1.1,19,15.7,23.4,27.6c0.3,0.8,0.5,1.4,0.7,2.1C977.7,1063.7,977.9,1065.3,977.8,1066.9z"/>
					<path class="st15" d="M977.8,1066.9H955h-6.1h-54.6c0,0,3.2-2.3,7.9-5h75.1C977.7,1063.7,977.9,1065.3,977.8,1066.9z"/>
					<path class="st16" d="M921.7,1049.8c-6.2,4.2-16.1,7.1-17.8,9c-1.7,1.9-1.7,1.9-1.7,1.9l36.1-0.4
						C938.3,1060.4,931.3,1049.2,921.7,1049.8z"/>
					<path class="st15" d="M963.4,1042.3c0,0-11.6,7.8-18.3,10.2c-6.7,2.4-12.6,4.1-13.7,10.1c-1.4,0.3-1.4,0.3-1.4,0.3
						s-1.4-3.2,4.7-7.6c6.1-4.4,9.7-3.5,15.6-7c5.7-3.5,12.1-7.6,12.1-7.6L963.4,1042.3z"/>
				</g>
			</g>
			<g>
				<g>
					<path class="st9" d="M1194.4,873.6c-3.5,8.8-68.3,41.6-68.3,41.6l-21.8,151.7c0,0-3.8-2.3-9.4-5.4c-0.9-0.5-1.9-1-2.9-1.6
						c-11.2-6.2-30.2-17.4-37-17.6c6.5-35.9,15.2-112.7,18.7-135.9c3.5-23.2,47-48.5,47-48.5l9.1-15.3l34.9,8.5l18.6,4.5l11.4,2.8
						C1194.8,858.3,1197.9,864.8,1194.4,873.6z"/>
					<path class="st13" d="M1183.4,855.5c-3.3,8.3-8.2,15.4-10.6,17.2c-2.5,1.9-27.1,16.7-42.3,25.8c-7.5,4.5-12.5,12.1-13.7,20.7
						l-21.7,142.2c-0.9-0.5-1.9-1-2.9-1.6l22.1-142.6c1.2-8.5,6.1-16.1,13.4-20.5c8.8-5.3,21.9-13.4,37.3-23
						c-3.9-8.6-2.3-17-0.1-22.7L1183.4,855.5z"/>
				</g>
				<g>
					<path class="st14" d="M1104.4,1066.9h-22.8h-6.1h-54.6c0,0,1.8-2.3,4.3-5c2.8-2.9,6.4-6.1,10-7.3c6.8-2.3,17.1-9.1,20.8-12.5
						c3.7-3.4,18.2-11.2,23.8-9.9c4.6,1.1,19,15.7,23.4,27.6c0.3,0.8,0.5,1.4,0.7,2.1C1104.3,1063.7,1104.5,1065.3,1104.4,1066.9z"
						/>
					<path class="st15" d="M1104.4,1066.9h-22.8h-6.1h-54.6c0,0,3.2-2.3,7.9-5h75.1C1104.3,1063.7,1104.5,1065.3,1104.4,1066.9z"/>
					<path class="st16" d="M1048.3,1049.8c-6.2,4.2-16.1,7.1-17.8,9c-1.7,1.9-1.7,1.9-1.7,1.9l36.1-0.4
						C1064.9,1060.4,1057.9,1049.2,1048.3,1049.8z"/>
					<path class="st15" d="M1090,1042.3c0,0-11.6,7.8-18.3,10.2c-6.7,2.4-12.6,4.1-13.7,10.1c-1.4,0.3-1.4,0.3-1.4,0.3
						s-1.4-3.2,4.7-7.6c6.1-4.4,9.7-3.5,15.6-7c5.7-3.5,12.1-7.6,12.1-7.6L1090,1042.3z"/>
				</g>
			</g>
			<g>
				<g>
					<path class="st8" d="M966.7,779.7l15.3,7.6c0,0,12,1,12.2-3.7c0.2-4.7-14.6-19.4-16.7-19.9c-2.1-0.4-10.8,2.7-11.6,3.6
						c-0.8,0.9-2.8,11.3-2.8,11.3L966.7,779.7z"/>
					<path class="st17" d="M967.7,781.5c0.2,2.1-1.2,3.5-3,2.5c-1.2,2.7-3.5,1.6-5.9-1.2c-2.8-3.2-3.2-5.5-3-7.2
						c0.4-3,1.8-3.6,1.8-3.6s0.8-2.4,1.9-4c0.3-0.5,0.7-1,1-1.3c1.4-1.2,13.3,1.7,13.3,1.7l-8.2,1l1.1,6.9
						C967.2,779,967.6,780.5,967.7,781.5z"/>
					<path class="st8" d="M964.7,784.1c-5.8-4.7-7.1-12.1-7.1-12.1s0.8-2.4,1.9-4C960,775.3,961.8,779.1,964.7,784.1z"/>
					<path class="st18" d="M975.4,762.6c0,0-9.1-1.9-11.7,0.6c-2.5,2.5-6.6,18-4.1,20c2.5,2,7.9-14,7.9-14l7.7-0.1L975.4,762.6z"/>
					<path class="st18" d="M976.4,757.1c-4.4,0.8-4.6,8.3-4.4,11.7c0.2,3.4,0.7,13.8,2.5,14.1c1.4,0.3,2.5-9.8,3-14.7
						c0.1-1,1.4-1.4,1.9-0.6c1.6,2,3.1,4.1,4.6,6.2c1.5,2.1,3.1,4,2.5,6.8c-1.2,5.5-7.8,4.6-10.4,8.5c-2.1,3.1-1.3,7.3,1.3,6.1
						c1.4-0.7,4.1-3.5,6.3-3.8c3.4-0.5,6.8-1,10.1-2.2c1.8-0.7,3.5-1.5,4.4-3.4c2.7-5.7-2.8-11.4-6.3-15.4c-3.5-4.1-7.2-8-11.5-11.2
						C979.5,758.3,977.7,756.9,976.4,757.1z"/>
					<path class="st18" d="M986.3,788c0,0,49.9,31.9,82,15.2c13.2-17.1,25.4-40.7,25.2-41.3c-0.3-0.7-28.7-12.3-28.7-12.3
						l-18.9,27.5l-53.8,0.3C992,777.3,981.9,781.3,986.3,788z"/>
				</g>
				<path class="st19" d="M1081.2,711.8c-8.8,3.3-30.9,52.6-30.9,52.6s28.7,10.9,36.7,19.9c9.4-22.9,18.1-38.5,17.6-50.9
					C1103.9,720.9,1095.8,706.3,1081.2,711.8z"/>
			</g>
			<g>
				<g>
					<g>
						<path class="st6" d="M1199,863.7l-116-20.6l10.9-35.9l-1.5-11.7l-4.6-35.3c0,0-8.9-44.3-6.6-48.3s25.4-17.1,25.4-17.1
							c3-2.5,20.1-4.6,24.9-3.5s40.2,11.5,46.6,17.3c6.3,5.8,23.9,72.8,24.7,97.4C1203.6,830.6,1199,863.7,1199,863.7z"/>
						<path class="st19" d="M1162.4,815.2c-0.8,3.5-68.5-7.9-68.5-7.9l-1.5-11.7C1109,797.9,1163.1,812.2,1162.4,815.2z"/>
					</g>
				</g>
			</g>
			<g>
				<path class="st8" d="M1216.2,796.9c0.3-0.8,0.2-14.5-9-34.1c-10.5,0.3-27,9.1-27,9.1l5.1,19.4c0,0,3.4,11,5.7,12.8
					C1193.5,805.8,1208,814.3,1216.2,796.9z"/>
				<path class="st19" d="M1174.9,706.4c1.7-2,22.1,16.1,28.7,31.2c6.3,14.5,9.5,24.4,9.5,24.4s-6.6,7.6-20.2,11.5
					c-13.6,3.9-19.2,2.5-19.2,2.5S1157.2,726.9,1174.9,706.4z"/>
				<path class="st8" d="M1140.6,810.8c0,0,24.4,2.8,34.4,3.2c9.9,0.4,24.6,1,33.4-8.5c8.8-9.5,8.9-14.3,6-19.2
					c-2.9-4.9-13.4-6-21.5-3.1s-20.5,9.2-27,10.8c-6.6,1.5-18,2.4-18,2.4L1140.6,810.8z"/>
				<g>
					<path class="st17" d="M1150.6,799.7c0,0,3.5,4.6,2,11.5c-1.4,6.8-13.9,1.9-16.5-5.9C1140,797.3,1150.6,799.7,1150.6,799.7z"/>
					<path class="st8" d="M1120.6,802.8c-0.8,0.1-7.9-1.6-8.7-0.9c-0.8,0.7-0.1,4.7,6.6,5.9c6.6,1.2,8.1-2.5,8.1-2.5s3,2.5,5.3,3.4
						c3.3,1.2,5.7,0.3,5.7,0.3s6.8,4.7,8.5,3.5c1.7-1.2,3-6.5-0.1-11.4c-3-4.9-8.5-7.5-11.5-7.1
						C1131.6,794.4,1121.3,802.7,1120.6,802.8z"/>
					<path class="st18" d="M1150.6,799.7c-0.3-2.2-3.2-0.7-3.2-0.7s0.9-2.6-1.3-4.1c-0.8-0.6-3.1,0.9-3.1,0.9s1.1-3.3-0.2-4.1
						c-1.2-0.8-4,0-4,0s-0.8-0.5-1.9-1.1c-1.1-0.6-4.1,0.1-5.4,0.7c-4.5,2.2-7.8,7.2-9.1,9.8l0,0c-0.4,0.9,0,2,1,2.3l0.3,0.1
						c0.6,0.2,1.3,0,1.7-0.5c2.7-2.9,7.8-6.9,8.5-6.7l1.9,0.7l0,0c-0.2,0.3-6.7,11.9-5.7,13.4c1,1.4,1.8,1.5,3.4-0.2
						c2.1-2.2,7.2-10.6,7.2-10.6s-4.2,11.9-3.5,12.9c0.8,1.1,1.3,1.5,2.7,0.7s5.3-10.6,5.3-10.6s-2.3,12-0.2,12.5
						C1147.4,815.6,1151,801.8,1150.6,799.7z"/>
					<path class="st17" d="M1138.9,791.7c0,0-0.8,0.3-3,5.3l-1.9-0.7l3-5.7C1138.1,791.3,1138.9,791.7,1138.9,791.7z"/>
				</g>
			</g>
			<g>
				<g>
					<path class="st4" d="M1086,660.8c0,0-1.9-10.5,3.1-15.8c3.8-4.1,17.7-14.6,33.2-4.3c13.9,9.3,12.5,24.4,3.3,38.7
						C1104.2,683.8,1086,660.8,1086,660.8z"/>
				</g>
				<g>
					<g>
						<path class="st17" d="M1129.3,699.7c-3,3.5-14.2,9.9-19.7,10.6c-4.1-1.4-9.2-7.6-8.7-7.7c0.5-0.1,5.1-4.5,5.6-6.9
							c-0.1-0.8-0.3-1.4-0.5-2.1c-1-3.4-2.7-6.2-2.7-6.2c-1.9-9.2,18.4-18.7,20-15.8c0.4,0.8,1.2,2.4,2,4.4
							c2.7,6.2,6.8,16.1,7.1,16.6C1132.8,693.3,1132.2,696.2,1129.3,699.7z"/>
						<path class="st8" d="M1125.3,676.1c-1.4,4.9-3.3,7.5-7.9,11.2c-3.2,2.6-8.3,4.9-11.5,6.3c-1-3.4-2.7-6.2-2.7-6.2
							c-1.9-9.2,18.4-18.7,20-15.8C1123.6,672.3,1124.4,674,1125.3,676.1z"/>
					</g>
				</g>
				<g>
					<g>
						<g>
							<path class="st17" d="M1079.2,666.1c0,2.4,3.1,7.9,6.4,9.2c3,1.2,4.7,0.9,4.7,0.9s-0.1-0.5-0.2-1.3c-0.1-0.3-0.1-0.6-0.2-0.9
								c-0.8-4.4-3.1-13.8-7.9-12.9C1079.7,661.5,1079.2,663.7,1079.2,666.1z"/>
						</g>
						<g>
							<path class="st17" d="M1133.6,663.1c0,2.5-3.4,8.5-6.8,9.9c-3.2,1.3-5.2,0.9-5.2,0.9s0.1-0.5,0.2-1.4c0.1-0.3,0.1-0.7,0.2-1
								c0.8-4.7,3.3-14.8,8.5-13.9C1133.1,658.1,1133.6,660.5,1133.6,663.1z"/>
							<path class="st8" d="M1131.4,664.7c0,0-0.5-2.4-2.4-2.5c-2-0.2-3.8,3.2-3.8,3.2s3.4-0.6,3.7,2c0.3,3.1-5.7,4.7-7.2,5.1
								c0.1-0.3,0.1-0.7,0.2-1c1-0.1,4-1.9,4.4-3.2s-0.7-2-2.6-1.6c1.2-3.9,3.8-6.8,5.7-6.8C1132.6,659.8,1131.4,664.7,1131.4,664.7
								z"/>
						</g>
						<path class="st18" d="M1123.5,666.7c-0.1,1.5-0.2,3.2-0.3,5c-0.5,6.5-4.4,9.8-9,12.7c-4.1,2.5-15,7.7-20.2,4.7
							c-4.1-2.3-6.9-19.8-8-28.3l2.8-2.5l0.5-5.9c0,0,5,0.1,7.5-0.3c5.2-0.6,15.5-1.9,15.5-1.9l1,7.1l6.3,0.8L1123.5,666.7z"/>
						<path class="st8" d="M1096,678c0,0,2.5,2.4,7.4,1.3c6.3-1.5,7.2-7.4,7.2-7.4S1104.9,678.9,1096,678z"/>
						<g>
							<path class="st8" d="M1097.9,663.5c0,0,2.2,3.5,1.6,6.3c-0.6,2.7-3.5,4.5-3.5,4.5S1098.6,670.7,1097.9,663.5z"/>
							<path class="st17" d="M1101.3,673.5c-0.3-1-3.9,0.3-3.3,0.7C1098.6,674.5,1101.6,674.6,1101.3,673.5z"/>
						</g>
						<g>
							<path class="st4" d="M1107.6,665.8c-0.1-0.6-0.3-1.2-0.8-1.5c-0.2-0.1-0.3-0.3-0.5-0.3c-0.3-0.2-0.8-0.3-1.2-0.2
								c-0.5,0-1.2,0.4-1.5,0.8c-0.3,0.4-0.6,1.1-0.5,1.7c0.1,0.6,0.3,1.2,0.8,1.5c0.2,0.1,0.3,0.3,0.5,0.3c0.3,0.2,0.8,0.3,1.2,0.2
								c0.5,0,1.2-0.4,1.5-0.8C1107.5,667.1,1107.7,666.4,1107.6,665.8z"/>
							<path class="st4" d="M1101.9,661.7c0,0,2.5-0.9,4.2-0.8s4.2,0.7,4.2,0.7s-1.3-2.6-4.6-2.5
								C1103.5,659.2,1101.9,661.7,1101.9,661.7z"/>
						</g>
						<g>
							<path class="st4" d="M1094.5,665.8c-0.1-0.6-0.3-1.2-0.8-1.5c-0.2-0.1-0.3-0.3-0.5-0.3c-0.3-0.2-0.8-0.3-1.2-0.2
								c-0.5,0-1.2,0.4-1.5,0.8c-0.3,0.4-0.6,1.1-0.5,1.7s0.3,1.2,0.8,1.5c0.2,0.1,0.3,0.3,0.5,0.3c0.3,0.2,0.8,0.3,1.2,0.2
								c0.5,0,1.2-0.4,1.5-0.8C1094.4,667.1,1094.6,666.4,1094.5,665.8z"/>
							<path class="st4" d="M1087.8,662.2c0,0,2.5-0.9,4.2-0.8c1.8,0.2,4.2,0.7,4.2,0.7s-1.3-2.6-4.6-2.5
								C1089.5,659.6,1087.8,662.2,1087.8,662.2z"/>
						</g>
					</g>
				</g>
			</g>
		</g>
	</g>
	<g>
		<path class="st4" d="M402.3,1062.7H417c0.7,0,1.2-0.5,1.2-1.2v-89.9h-17.2v89.9C401.1,1062.2,401.6,1062.7,402.3,1062.7z"/>
		<polygon class="st10" points="477.8,1066.9 477.8,1053.3 409.3,1048.3 340.8,1053.3 340.8,1066.9 		"/>
		<path class="st11" d="M396.3,988.7H423c1.2,0,2.1-0.9,2.1-2.1v-44.4h-31v44.4C394.1,987.8,395.1,988.7,396.3,988.7z"/>
		<path class="st4" d="M435.3,928.8v15.1c0,3.5-2.9,6.3-6.3,6.3h-39.3c-3.5,0-6.3-2.9-6.3-6.3v-15.1H435.3z"/>
		<path class="st8" d="M276.8,698.7c0,12,12,172.5,16.5,192.5s19,37,32.5,42c13.5,5,176.6,1.5,184,1.5c6.3,0,11.8-4.2,13.8-12
			c0.4-1.5,0.6-3.2,0.7-5c0.5-11,0.3-24.2-6-27.5c-9.5-5-92.5-1.5-92.5-1.5s-25-169.5-25.7-190.5c-0.1-3.5-0.5-6.5-1.3-9.1
			c-3.6-13.3-14.5-16.6-27-17.9c-15-1.5-59.5-0.5-75.6,1.5C280.3,674.7,276.8,686.7,276.8,698.7z"/>
		<path class="st20" d="M290.3,713.7c1.5,14.5,10.5,159.1,22.5,182.6c12,23.5,25.5,26.5,49.5,26.5h161.3c0.4-1.5,0.6-3.2,0.7-5
			c0.5-11,0.3-24.2-6-27.5c-9.5-5-92.5-1.5-92.5-1.5s-25-169.5-25.7-190.5c-0.1-3.5-0.5-6.5-1.3-9.1c-3.8-3.5-9.7-6.2-18.9-6.8
			c-28.7-1.7-73.6,0.8-81.1,3.8C290.3,689.7,288.8,699.2,290.3,713.7z"/>
	</g>
	<g>
		<g>
			<g>
				<path class="st14" d="M429.8,672.3c0-0.7,3-8.3,3.3-14c0.3-5.7-8.3-11.4-8.3-11.4s-0.8-2.5-2.9-3.6c-1.7-0.8-25-7.4-33,4.1
					c-5.9,8.5-31.5,62.1-27,71.4s23.9,25.4,44.3,16.1C426.6,725.2,429.8,672.3,429.8,672.3z"/>
				<path class="st21" d="M420.8,654.2c0,0-7.5,3.8-13.1,3s-15.4-0.2-19,8c-3.6,8.2-17.1,38.8-10,48.7c8.4,11.7,34.6,9.6,40.3-8
					s9.6-42.3,9.6-42.3S421.2,660.3,420.8,654.2z"/>
			</g>
			<g>
				<g>
					<path class="st8" d="M424.1,678.9c0,0,2.3,0.2,4.6-0.8c2.5-1.1,4.1-5.7,4.1-7.6s-0.5-3.6-2.5-4c-3.9-0.6-5.4,7-5.9,10.6
						c0,0.3-0.1,0.5-0.1,0.8C424.1,678.5,424.1,678.9,424.1,678.9z"/>
				</g>
				<path class="st3" d="M385.7,698.3c0,0-4.8,2.8-14.8,7.1c9.6,14.6,20.7,20.1,29.5,19.4c8.8-0.8,16.6-7.8,19.9-16.8
					c-6.6-5.3-11.1-8.1-11.1-8.1S399,689.6,385.7,698.3z"/>
				<path class="st5" d="M387.7,691l-4.6,8.4c0,0,6.3,10.6,11,13.3c5.4-5.6,8.5-9.9,8.5-9.9s7.4,10.1,7.4,9.6
					c-0.2-0.5,5.2-9.8,5.2-9.8l-5.1-10.1C410,692.4,394.8,686.1,387.7,691z"/>
				<g>
					<path class="st18" d="M409.1,693.6c0,0.3,0,0.6-0.1,0.9c-0.2,3-1.7,5.7-4.1,7.3c-0.9,0.7-1.8,1.1-2.3,1.3
						c-1,0.3-5.5-0.5-10.3-4.2c-1.8-1.4-2.6-3.7-2.2-5.9c0.7-3.6,1.4-9.1,1.9-13.9c0.6-5.3,0.9-9.8,0.9-9.8l16.9,15.8
						C409.8,684.9,409.4,689.5,409.1,693.6z"/>
					<path class="st8" d="M409.8,684.9c0,0-0.5,4.6-0.8,8.6c-3.9-0.4-10-1.4-12.6-3.9c-2.4-2.3-3.8-7.1-4.6-10.7
						c0.6-5.3,0.9-9.8,0.9-9.8L409.8,684.9z"/>
				</g>
				<g>
					<path class="st17" d="M395.1,677.8c0,0-2.6,0.2-5.4-1c-3-1.3-4.8-6.7-4.7-8.9c0.1-2.2,0.6-4.3,3-4.6c4.5-0.7,6.3,8.2,6.9,12.4
						c0.1,0.3,0.1,0.6,0.1,0.9C395.1,677.3,395.1,677.8,395.1,677.8z"/>
					<path class="st8" d="M394.9,676.7c-1.4-0.3-6.4-2-6.1-4.6c0.3-2.3,3.3-1.6,3.3-1.6s-1.4-3-3.2-3c-1.7,0.1-2.2,2.1-2.2,2.1
						s-0.9-4.2,1.9-4.1c1.7,0.1,3.9,2.7,4.8,6.2c-1.7-0.4-2.6,0.1-2.4,1.4c0.3,1.2,2.8,2.9,3.7,3
						C394.9,676.1,394.9,676.4,394.9,676.7z"/>
				</g>
				<g>
					<path class="st18" d="M428.7,663.6c0,0-0.3,1.5-0.8,3.8c-0.6,2.9-1.5,7.1-2.5,11.3c-1.8,7.6-4.7,12.3-5.7,13.3
						c-1,0.9-18.1-2.8-21-5.6c-2.1-2-4.2-11-5.2-15.8c-0.4-1.9-0.6-3.1-0.6-3.1c1.8-6.3,11.3-7.3,16.4-7.3c5.1,0,8.8-4.2,11.6-6
						C421.5,659.2,428.7,663.6,428.7,663.6z"/>
					<path class="st17" d="M428.7,663.6c0,0-0.3,1.5-0.8,3.8c-3.5-1.4-7.4-5.3-9.3-8c-4.3,5.5-13.1,4.1-17.8,5.2
						c-3,0.8-5.7,3.8-7.4,5.9c-0.4-1.9-0.6-3.1-0.6-3.1c1.8-6.3,11.3-7.3,16.4-7.3s8.8-4.2,11.6-6
						C421.5,659.2,428.7,663.6,428.7,663.6z"/>
				</g>
				<g>
					<path class="st8" d="M415.3,670c0,0-1.2,3.7-0.7,5.7c0.5,1.6,3.5,3,3.5,3s-1.4-2.3-1.9-3.7C415.6,673.8,415.3,670,415.3,670z"
						/>
					<path class="st17" d="M415.7,678.6c-0.3-1-3.7-0.1-3.4,0.4C412.8,679.8,415.9,679.2,415.7,678.6z"/>
				</g>
				<path class="st8" d="M405,678.3c0,0,1.1,3.5,3.5,4.5c2.5,0.9,6.9-0.8,6.9-0.8S409.3,682.3,405,678.3z"/>
				<g>
					<path class="st4" d="M423.2,670.4c-0.1-0.6-0.3-1.2-0.8-1.5c-0.2-0.1-0.3-0.3-0.5-0.3c-0.4-0.2-0.8-0.3-1.2-0.3
						c-0.3,0-0.6,0.1-0.8,0.3c-0.3,0.1-0.5,0.3-0.7,0.5c-0.2,0.3-0.3,0.5-0.4,0.8c-0.1,0.3-0.2,0.6-0.1,0.9c0.1,0.6,0.3,1.2,0.8,1.5
						c0.2,0.1,0.3,0.3,0.5,0.3c0.4,0.2,0.8,0.3,1.2,0.3c0.3,0,0.6-0.1,0.8-0.3c0.3-0.1,0.5-0.3,0.7-0.5s0.3-0.5,0.4-0.8
						C423.2,671.1,423.2,670.7,423.2,670.4z"/>
					<path class="st4" d="M414.7,667.4c-1.1-2.9-4.5-4.7-7.5-4.1c-3.2,0.7-5.7,4.6-5.2,7.8c0.7,4,4.2,6.4,8.1,5.5
						C414,675.5,416.1,671.2,414.7,667.4z M410.2,675.3c-3.2,1.1-6.8-1-7.4-4.3c-0.5-2.9,1.3-5.2,3.7-6.3c2.8-0.5,5.7,0.2,6.9,3.1
						C414.8,670.9,413.3,674.2,410.2,675.3z"/>
					<path class="st4" d="M427.6,667.4c-1.1-2.9-4.5-4.7-7.5-4.1c-3.2,0.7-5.7,4.6-5.2,7.8c0.7,4,4.2,6.4,8.1,5.5
						C426.9,675.5,429.1,671.2,427.6,667.4z M423.1,675.3c-3.2,1.1-6.8-1-7.4-4.3c-0.5-2.9,1.3-5.2,3.7-6.3c2.8-0.5,5.7,0.2,6.9,3.1
						C427.8,670.9,426.3,674.2,423.1,675.3z"/>
					<g>
						<path class="st4" d="M411.1,670.4c-0.1-0.6-0.3-1.2-0.8-1.5c-0.2-0.1-0.3-0.3-0.5-0.3c-0.4-0.2-0.8-0.3-1.2-0.3
							c-0.3,0-0.6,0.1-0.8,0.3c-0.3,0.1-0.5,0.3-0.7,0.5c-0.2,0.3-0.3,0.5-0.4,0.8c-0.1,0.3-0.2,0.6-0.1,0.9
							c0.1,0.6,0.3,1.2,0.8,1.5c0.2,0.1,0.3,0.3,0.5,0.3c0.4,0.2,0.8,0.3,1.2,0.3c0.3,0,0.6-0.1,0.8-0.3c0.3-0.1,0.5-0.3,0.7-0.5
							c0.2-0.3,0.3-0.5,0.4-0.8C411.1,671.1,411.2,670.7,411.1,670.4z"/>
						<path class="st4" d="M405.9,667.3c0,0,0.8-0.3,2.4-0.4c1.6-0.2,3,0.5,3,0.5s-0.5-2-2.3-2.1
							C406.4,665.2,405.9,667.3,405.9,667.3z"/>
					</g>
					<path class="st4" d="M418.6,667.5c0,0,0.8-0.3,2.4-0.4c1.6-0.2,3,0.5,3,0.5s-0.5-2-2.3-2.1
						C419.1,665.4,418.6,667.5,418.6,667.5z"/>
					<path class="st4" d="M402.8,667.5c0,0-10.3-1.4-10.8-0.8c-0.5,0.6-0.3,0.9,0.3,1.4c0.6,0.4,9.9,0.8,9.9,0.8L402.8,667.5z"/>
				</g>
			</g>
		</g>
		<g>
			<g>
				<path class="st18" d="M494.4,808.6c-2.1,1.9-20,0.2-31.7-1.1c-5.7-0.7-10-1.2-10-1.2s-11.2-10.6-8.7-16.1
					c2.4-5.5,11.3-6.7,15.4-5.2c0,0,3.2,1.3,7.9,3.2c11,4.5,29.8,12.3,31.5,13.9C501.1,804.4,498.3,805.3,494.4,808.6z"/>
			</g>
			<path class="st3" d="M462.7,807.4c-5.7-0.7-10-1.2-10-1.2s-11.2-10.6-8.7-16.1c2.4-5.5,11.3-6.7,15.4-5.2c0,0,3.2,1.3,7.9,3.2
				C465.2,791.4,462.2,798.1,462.7,807.4z"/>
			<path class="st11" d="M457.6,801.2c-1.3-0.6-3,0.7-2.4,2.1c0.3,0.7,0.9,1.3,1.8,1.2c0.1,0,0.3,0,0.3-0.1c0.1,0,0.1,0,0.2,0
				C458.9,803.9,458.9,801.8,457.6,801.2z"/>
			<g>
				<path class="st4" d="M432.9,712.5c0,0,6.1,2.3,7.4,9.6c1.4,7.4,5.3,56.1,5.3,56.1l14.5,6.2c0,0-11.7,7.9-7.3,22.6
					c-13.6-1.7-26-3.4-31.9-8.2C415.1,794,410.1,712,432.9,712.5z"/>
			</g>
			<g>
				<path class="st8" d="M509.1,804.1l-11,5.5c0,0-8.5,0.8-8.7-2.7c-0.1-3.4,10.5-13.9,12-14.2c1.5-0.3,7.8,1.9,8.4,2.6
					c0.5,0.7,2,8.1,2,8.1L509.1,804.1z"/>
				<path class="st17" d="M508.5,805.5c-0.2,1.5,0.8,2.5,2.1,1.8c0.8,1.9,2.5,1.2,4.2-0.8c2-2.3,2.3-4,2.1-5.2
					c-0.3-2.2-1.3-2.6-1.3-2.6s-0.6-1.7-1.4-2.9c-0.3-0.3-0.5-0.7-0.7-0.9c-1-0.8-9.6,1.2-9.6,1.2l5.9,0.7l-0.8,5
					C508.7,803.6,508.5,804.7,508.5,805.5z"/>
				<path class="st8" d="M510.6,807.2c4.2-3.4,5.1-8.6,5.1-8.6s-0.6-1.7-1.4-2.9C513.9,801,512.7,803.7,510.6,807.2z"/>
				<path class="st18" d="M502.9,791.9c0,0,6.6-1.4,8.4,0.4c1.9,1.9,4.7,12.9,3,14.4c-1.9,1.4-5.7-10.1-5.7-10.1l-5.5-0.1
					L502.9,791.9z"/>
				<path class="st18" d="M502.2,787.9c3.1,0.6,3.3,6,3.1,8.4c-0.1,2.5-0.5,9.9-1.9,10.1c-1,0.2-1.8-7-2.1-10.6
					c-0.1-0.7-0.9-0.9-1.4-0.4c-1.1,1.4-2.3,2.9-3.4,4.4c-1.1,1.5-2.3,2.9-1.8,4.8c0.8,4,5.6,3.2,7.4,6.1c1.5,2.3,0.8,5.2-0.9,4.4
					c-1-0.5-3-2.5-4.5-2.7c-2.5-0.3-4.9-0.8-7.3-1.6c-1.3-0.5-2.5-1.1-3.1-2.4c-1.9-4.1,2-8.2,4.5-11.1c2.5-2.9,5.2-5.7,8.3-8
					C500,788.7,501.2,787.7,502.2,787.9z"/>
			</g>
		</g>
		<g>
			<path class="st10" d="M471.9,1066.9h42.7c-5.3-3.4-14.6-9.1-15.7-9.1c-1.5,0-21.7-27.1-24.1-27.9c-2.3-0.8-28.7,7.3-28.7,7.3
				l14.1,9.1L471.9,1066.9z"/>
			<path class="st22" d="M424.1,818.5l3.5,24.1c0,0,77.1,55.7,81.6,68.7c4.6,13-32.6,122-32.6,122s-30.3,5.2-30.3,4
				c0-1.2,15.3-113.3,15.3-113.3s-63-36.7-75.2-48.1c-12.3-11.4-2.3-55.7-2.3-55.7L424.1,818.5z"/>
			<polygon class="st4" points="397.3,831.7 399.5,839.4 422.8,839.4 421.7,830.9 			"/>
		</g>
		<g>
			<path class="st23" d="M393.7,922.7c0,0-1.3,19.4,1,29.5c2.1,9.4,18.6,99.9,21.2,114.7h3.4l4.2-2.9l2.2-1.5l19.5-13.4
				c0,0-1.5-122.4-6.1-134.1c-4.6-11.7-31.5-44.5-47.8-52.9c0-28.7,0.5-42,0.5-42l-34.1-1.2l-3.3-0.1l-7.6-0.3
				c0,0-13.8,29.7-17.1,40.7c-3.3,10.9-1.3,21.1,7.4,29.5C345.9,897.2,393.7,922.7,393.7,922.7z"/>
			<path class="st22" d="M425.8,1062.5l-2.2,1.5c-3-26.5-15.8-139.6-16.6-149.9c-4.1-5.6-63.6-42-65.2-46.1
				c-1.5-4.1,0.8-14.3,1.5-15.6c0.8-1.3,8.4-4.3,9.6-7.4c1-2.5,1.4-20.1,1.5-26.2c0-1.3,0-2,0-2l3.3,0.8c0,0,0,0.5-0.1,1.4
				c-0.3,5.5-1.4,25.4-2.2,27.4c-1,2.3-6.8,4.8-9.4,7.1c-2.5,2.3-2,13.3-2,13.3l65.9,44.5L425.8,1062.5z"/>
			<path class="st11" d="M486.4,1066.9c-2.4-3-7.1-7.9-13.9-9.8c-10.1-3-28.4-14.8-33-13.1c-3.8,1.4-16.8,17.2-21.4,23L486.4,1066.9
				L486.4,1066.9z"/>
			<polygon class="st11" points="345.4,830.1 386.9,830.1 386.9,838.3 341.2,838.3 			"/>
		</g>
		<g>
			<path class="st11" d="M427,772.4c-1.7,2.2-1.7,24.8-1.5,39.8c0.1,7.8,0.3,13.5,0.3,13.5h-84.3c0,0,2-5.8,4.6-13.5
				c0.5-1.5,1.1-3.1,1.6-4.8c5.9-17.6,5.7-36.8-0.8-54.2c-6.2-16.6-9.3-33.6-1-38.5c4.4-2.6,15.1-7.4,21.4-9.9
				c2.6-1,4.5-1.7,4.8-1.7c1.2,0.1,13,19.6,25.7,19.6c12.8,0,20.2-13.4,21.1-16.8c1.3,0.5,2.5,1.1,3.8,1.6c4.6,2,9,4.1,10.1,4.8
				c1.3,0.9-4.2,22.4-2.5,25.9c1.7,3.5,7,10.1,8.1,14.1C439.6,756.4,429.6,769,427,772.4z"/>
			<path class="st4" d="M422.9,707.6c-2.5,6.6-9.3,19.1-24.1,19.9c-14.5,0.8-26.5-15-31.4-22.7c2.6-1,4.5-1.7,4.8-1.7
				c1.2,0.1,13,19.6,25.7,19.6c12.8,0,20.2-13.4,21.1-16.8C420.3,706.5,421.5,707.1,422.9,707.6z"/>
			<path class="st3" d="M405.8,644.8C405.8,644.8,405.9,644.8,405.8,644.8L405.8,644.8L405.8,644.8z"/>
		</g>
		<g>
			<g>
				<path class="st4" d="M376.1,786.3c-5.7,3.7-7.3,16.6-7.3,16.6h-42.3c-4.2,0-7.9-3.1-8.5-7.3c-3-21,14.4-62.7,20.5-72.4
					c6.9-11,16.1-12.7,19.7-11.2c8.3,3.5,6.9,15.1,3.9,27.1c-2.4,9.5-9,27.4-11.6,34.5c-0.7,1.9-1.1,3-1.1,3l0,0
					c0,0,5.4,2.4,13.6,5.3C366.8,783.3,371.3,784.8,376.1,786.3z"/>
				<path class="st10" d="M350.4,773.5c-0.7,1.9-1.1,3-1.1,3l0,0c0,0-9.5-2.4-18.2,3.7c4.4-6.9,11.7-7.8,11.7-7.8s-5.2-2-2.7-4.4
					C342.1,766.3,347.8,771.1,350.4,773.5z"/>
				<path class="st3" d="M376.1,786.3c-6.3,2-7.3,16.6-7.3,16.6H356c-2.8-11,2.8-17.7,6.9-21C366.9,782.3,371.3,784.1,376.1,786.3z"
					/>
				<path class="st11" d="M363.7,797.5c-1.3-0.6-3,0.7-2.4,2.1c0.3,0.7,0.9,1.3,1.8,1.2c0.1,0,0.3,0,0.3-0.1c0.1,0,0.1,0,0.2,0
					C364.9,800.2,365,798.2,363.7,797.5z"/>
			</g>
			<g>
				<path class="st17" d="M376.1,786.3c0.5,0,19.3,5.8,19.3,5.8s-0.8,6.9-4.6,10.8c-11.7,0-21.9,0-21.9,0S362.3,786,376.1,786.3z"/>
				<g>
					<path class="st8" d="M392.5,797.4c0,0,5,5.7,7,5.4c3-0.3,7-3.2,7-3.2s4,2.2,5.6,2.2s5.2-2.2,4.7-3.1s-6.3-0.7-6.3-0.7
						s-6.6-6.9-9.8-7.6C397.5,789.7,392.5,793.8,392.5,797.4z"/>
					<path class="st8" d="M387.7,802.9c0,0,9.4,2.9,10.1-2.7c0.1-0.6-2.3-7.8-2.3-7.8l-7.3,1.2L387.7,802.9z"/>
					<path class="st18" d="M399.1,788.1c0,0,2.8-2.6,4.1-2.2c1.4,0.4,3.6,6.3,4.5,8.2c0.8,1.9,2,7.4,0.8,8c-1.2,0.7-2,0.3-2.3-0.1
						c-0.3-0.4-4.5-9.6-5.5-10.4c-1.4-0.3-1.9-0.1-1.9-0.1s4,12.4,3.5,12.8c-0.4,0.4-2.3,0.8-3,0.2c-0.8-0.6-3.9-7.8-5.3-10.2
						c-0.3,2.4,0.3,3.8,0.5,5.1c0.6,3,1.8,5,1.4,5.2c-0.5,0.3-2.4,1-3.1,0.3c-0.8-0.7-3.3-3.9-3.4-8.5c-0.6,1.9-0.5,4.2-0.7,4.7
						c-0.2,0.4,1.2,4.6,1,5c-0.2,0.3-1.5,1.2-2.6,0.3s-2.3-4.3-2.5-5.6c-0.3-1.4,0.3-6.6,1.2-7.8
						C386.8,791.6,399.1,788.1,399.1,788.1z"/>
				</g>
			</g>
		</g>
	</g>
	<g>
		<path class="st4" d="M1314.9,587.6c0,0,30.8,3.5,36.7,13.8c5.8,10.1,2.8,36.4,2,40.2c-0.8,3.8-39.2-9.4-46.8-22.9s-7.4-32-7.4-32
			L1314.9,587.6z"/>
		<path class="st4" d="M1269.6,597.6c0,0-5.7-3.5-8.5-7.7c-2.8-4.2-3.2-11.1-2-14.4c1.2-3.3,7.3-10.8,7.3-10.8s-2.2-4.3-0.7-6.3
			s16.1-3.5,29.2,0.5c13,4,19.6,9.4,21.4,16.1c1.8,6.6-1.5,17.6-6.8,22.7C1303.9,602.7,1284.3,604.7,1269.6,597.6z"/>
	</g>
	<g>
		<g>
			<path class="st18" d="M1251.4,780.2c-2.4,3.1-4.6,6-6.7,8.6c-24.8,31.7-26.2,29.8-26.2,29.8c-9.4-0.7-12.8-9.8-12.8-9.8
				l18.4-32.1l6.5-11.3C1237.3,767.7,1245.1,772.5,1251.4,780.2z"/>
			<path class="st8" d="M1251.4,780.2c-2.4,3.1-4.6,6-6.7,8.6c-5.9-4.2-14.2-8.8-20.5-12.1l6.5-11.3
				C1237.3,767.7,1245.1,772.5,1251.4,780.2z"/>
		</g>
		<g>
			<path class="st24" d="M1291.5,689.4c-2,19.6-3.4,45.2-22,71.3c-4.6,6.6-10.6,14-16.7,21.5c-6.3-7.7-18.9-12.8-25.5-15.2
				l23.1-42.8c0,0,7.4-85.2,11.3-91.8c4.1-6.5,14-7.9,22.1-1C1291.3,637.8,1293.6,669.9,1291.5,689.4z"/>
		</g>
		<g>
			<path class="st18" d="M1218.8,818.6c-2.8,1.4-15.1,1.4-15.1,1.4s-11,2.1-15.4,2.3c-1.7,0.1-3.8,0.2-5.8,0.3c-1.2,0-2.4,0-3.5,0
				c-1.8-0.1-3-0.4-3.4-1c-0.8-1.5,14.6-17.4,17.7-17.4c4.9,0,20.2,1.5,20.2,1.5C1222.7,808.3,1221.6,817.4,1218.8,818.6z"/>
			<path class="st8" d="M1182.4,822.5c-1.2,0-2.4,0-3.5,0c4-4.9,12.7-12.8,12.9-12.1C1192.2,811.1,1186.2,818.2,1182.4,822.5z"/>
			<path class="st17" d="M1200.8,821.1c0,0-12.3,3.3-15,1.2c-2.8-2.1,10.6-6.8,15.1-7.6c4.5-0.8,20.6-2.3,17.7,4
				C1215.6,825,1200.8,821.1,1200.8,821.1z"/>
		</g>
	</g>
	<g>
		<path class="st18" d="M1321.9,984.6c0,0-8,14.6-13.9,25.5c-1.7,3.1-3.3,6-4.4,8.1c-5,9.1-10.7,25.6-10.7,27.5c0,0.8,0.8,3,1.6,5.7
			c1.2,4.2,2.4,9.9,0.8,14.5c-25.2,0-78.6,0-78.6,0s3-5.3,9.6-9.1c3.8-2.3,15.2-5.8,24.6-9.7c6.6-2.7,12.2-5.6,13.6-8.2
			c1.6-3,5.8-15.9,10-28.7c4.6-14.6,9.1-29.3,9.1-29.3L1321.9,984.6z"/>
		<path class="st8" d="M1321.9,984.6c0,0-8,14.6-13.9,25.5h-33.7c4.6-14.6,9.1-29.3,9.1-29.3L1321.9,984.6z"/>
		<path class="st20" d="M1295.4,1066.6c-25.2,0-79.7,0.3-79.7,0.3s-0.7-5.8,9.1-11c5.2-2.7,15.9-6.3,25.4-10.1
			c3.7,2.1,8.2,6.8,9.5,12.4c17.4-3.2,29-5.5,34.7-6.7C1295.6,1055.7,1297,1062.1,1295.4,1066.6z"/>
	</g>
	<g>
		<path class="st11" d="M1384.1,786.5c-1,9-6.9,28.8-14.4,51l0,0c-7.8,23.3-17.2,49.3-24.3,68.3c-5.6,15-7.9,34.7-12,56.6
			c-0.5,3-1.6,7-3,11.8c-1.9,6.5-4.4,14.4-7.2,22.8h-50.1l7.4-24.3l13.3-43.8l28.5-151.9l4.3-23l47.2-21.3
			C1373.7,733,1387,760.1,1384.1,786.5z"/>
		<path class="st4" d="M1304.6,997.2c2.7-8,4.9-15.1,6.2-20.5c6.2-24.5,11.2-47.8,18.9-73.1c7.7-25.3,37.4-111.5,37.4-111.5
			l-2.8-3.3c0,0-42.4,123.7-45.5,140.6c-1.6,8.9-9.4,38.4-18.7,67.7H1304.6z"/>
		<path class="st4" d="M1384.1,786.5c-1,9-6.9,28.8-14.4,51c-3-12.1-5.3-33-16.1-58.6c-8.2,0.5-21.1-0.6-31.4-1.8l4.3-23l47.2-21.3
			C1373.7,733,1387,760.1,1384.1,786.5z"/>
		<path class="st4" d="M1330.5,974.4c-1.9,6.5-4.4,14.4-7.2,22.8h-50.1l7.4-24.3L1330.5,974.4z"/>
	</g>
	<g>
		<path class="st18" d="M1425.7,1007.8c-1.9,12.5-3.8,26.7-4.2,32.6c4.2,13.4,5,21.4,2.7,25.9c-33.2,0-77.8,0-77.8,0
			s7.3-9.6,13.8-12.6c6.5-3,28.2-6.8,32.5-14.9c2.1-4.1,2.8-18.1,3-31.1c0.2-12.8-0.3-24.7-0.3-24.7l34,2.3
			C1429.1,985.4,1427.4,995.8,1425.7,1007.8z"/>
		<path class="st8" d="M1429.1,985.4c0,0-1.7,10.4-3.4,22.4h-30.3c0.2-12.8-0.3-24.7-0.3-24.7L1429.1,985.4z"/>
		<path class="st8" d="M1342.4,1066.7c0,0,8.9-9.4,15.3-13.3c6.3-3.8,16.1-6.1,16.1-6.1s7.6,2,13.8,12.3c25.7-6.1,37.7-8.6,37.7-8.6
			s2.5,11.4,0.3,15.9C1402,1066.9,1342.4,1066.7,1342.4,1066.7z"/>
	</g>
	<g>
		<g>
			<g>
				<path class="st7" d="M1403.5,731.9c-6.9,9.4-35.2,24.7-43.5,26.8c-8.4,2.1-23.2,3.7-44.8,1.7c-0.3-4.3-5.7-21.6-10.5-35.4
					c-3-8.7-5.9-16.1-7.1-17.9c-3.1-4.9-21-10.3-24.2-16.9c-3.1-6.6-1.1-28.3-1.1-28.3s-14.2-26.5-10.7-30.3s21.8-12.5,21.8-12.5
					s14.8-3.4,21.6-2.8c1.9,0.2,6.9,0.3,13.1,0.8c15.1,1.1,37.6,4.1,42.3,15c6.6,15.3,27.5,82.5,27.5,82.5
					S1389.2,718.1,1403.5,731.9z"/>
				<path class="st24" d="M1367.8,720.9c-2.4,1.8-41.8,5.7-63,4.1c-3-8.7-5.9-16.1-7.1-17.9c0,0,19.5,7.7,34.9,9.2
					C1347.8,717.8,1370.8,718.6,1367.8,720.9z"/>
			</g>
		</g>
	</g>
	<g>
		<path class="st12" d="M1438.3,934.1c-0.3,4.2-1.9,20.5-3.9,40.2c-0.8,7.3-1.5,15-2.4,22.8h-46.7c0.8-7.3,1.4-15,2.1-22.8
			c1.9-21.6,3.4-44.4,3.2-60.9c-3-54.9-17.4-107.7-26.5-136.7c-4.6-14.5-7.9-23.2-7.9-23.2l24.1-11l19.6-9l3.5-1.6
			c0,0,4.1,3.3,9.5,8.3c8.5,7.9,19.9,20.4,22.2,30.9c3.8,17.2-3.5,122.7-3.5,122.7S1439.1,921.5,1438.3,934.1z"/>
		<path class="st11" d="M1413,740.2c-5.7,7.2-13.3,15.7-20.3,21c-7.7,5.7-19.7,11.6-28.5,15.5c-4.6-14.5-7.9-23.2-7.9-23.2
			l47.2-21.6C1403.5,731.9,1407.7,735.2,1413,740.2z"/>
		<path class="st11" d="M1408.8,771.1c5.1,24.6,9.8,104.9,10,125.4c0,1.9,0.2,4,0.5,5.9c4,22.2,2.5,50.6,1.4,72.7
			c-0.3,5.5-1.2,13.4-2.3,22.1h3.6c1.4-11.7,2.6-22.3,2.9-29c1-20.1,0.3-46.7-2.1-61.6c-0.8-4.9-1.3-9.9-1.4-14.9
			c-0.5-32.5-4.5-114.8-7.3-124.4c-2.2-7.5-9.8-24.4-14.2-33.7l-19.6,9C1382.3,754.1,1388.6,769.5,1408.8,771.1z"/>
		<path class="st11" d="M1396.5,907.6c0.5-1.1,17.2-1.5,18.8,1.2c1.5,2.7-5,29.2-9.6,26.1C1401.2,931.8,1393.8,913.4,1396.5,907.6z"
			/>
		<path class="st11" d="M1434.5,974.4c-0.8,7.3-1.5,15-2.4,22.8h-46.7c0.8-7.3,1.4-15,2.1-22.8H1434.5z"/>
	</g>
	<g>
		<g>
			<path class="st18" d="M1322,777.1c-2,2.6-4,5.1-5.7,7.4c-25.7,33-27.1,31.1-27.1,31.1c-9.4-0.7-12.8-9.8-12.8-9.8l17.8-31
				l7.1-12.4C1307.9,764.6,1315.7,769.5,1322,777.1z"/>
			<path class="st8" d="M1322,777.1c-2,2.6-4,5.1-5.7,7.4c-7.9-4.5-15.7-7.7-22.1-9.8l7.1-12.4
				C1307.9,764.6,1315.7,769.5,1322,777.1z"/>
		</g>
		<g>
			<path class="st24" d="M1362.1,686.4c-2,19.6,0.6,42.8-18,69c-4.6,6.6-14.5,16.4-20.7,23.8c-6.3-7.7-18.9-12.8-25.5-15.2
				l23.1-42.8c0,0,7.4-85.2,11.3-91.8c4.1-6.5,14-7.9,22.1-1C1361.9,634.7,1364.1,666.8,1362.1,686.4z"/>
		</g>
		<g>
			<path class="st8" d="M1264,801.1c0,0-5.6,0.7-6.6,1.2c-1,0.5-10.3,9.6-11.3,10.6c-1,1-5.9,2.3-6.4,3.3c-0.5,0.9,2,4,6.6,2.5
				C1250.8,817,1262.3,804.2,1264,801.1z"/>
			<path class="st18" d="M1289.3,815.6c-2.8,1.4-15.1,1.4-15.1,1.4s-11,2.1-15.4,2.3c-1.7,0.1-3.8,0.2-5.8,0.3c-1.2,0-2.4,0-3.5,0
				c-1.8-0.1-3-0.4-3.4-1c-0.8-1.5,14.6-17.4,17.7-17.4c4.9,0,20.2,1.5,20.2,1.5C1293.4,805.3,1292.1,814.3,1289.3,815.6z"/>
			<path class="st8" d="M1253.1,819.5c-1.2,0-2.4,0-3.5,0c4-4.9,12.7-12.8,12.9-12.1C1262.8,808.1,1256.8,815.2,1253.1,819.5z"/>
		</g>
	</g>
	<g>
		<g>
			<path class="st24" d="M1292.9,639.5c-12.9-0.7-9.6-20.5-9.6-20.5s14.8-3.4,21.6-2.8c1.9,0.2,6.9,0.3,13.1,0.8
				C1320.1,628.1,1305.5,640.1,1292.9,639.5z"/>
			<g>
				<path class="st17" d="M1311.3,626.2c-4.3,5.9-14,10.1-18.5,9.2c-5.6-1-5.8-9.9-5.8-12.5c0-1.6-0.1-2.5-1.7-6
					c-0.9-2-2.3-5-4.5-9.5c5.6-5.1,19.9-12.8,19.9-12.8s1.6,5.7,4.1,11.8c1.8,4.4,4,9.1,6.4,12.3
					C1312.8,621,1312.9,624,1311.3,626.2z"/>
				<path class="st8" d="M1304.8,606.5c-1.9,2.6-4.4,5.5-6.8,7.1c-3.3,2.3-8.9,3-12.7,3.3c-0.9-2-2.3-5-4.5-9.5
					c5.6-5.1,19.9-12.8,19.9-12.8S1302.3,600.3,1304.8,606.5z"/>
			</g>
		</g>
		<g>
			<g>
				<path class="st17" d="M1313.3,585.4c2.8,1.1,2.9,3.7,2.4,6.4s-5.3,8.5-9.3,9.3c-3.7,0.8-5.7,0-5.7,0S1306.3,582.8,1313.3,585.4z
					"/>
				<path class="st8" d="M1311.9,587.6c-2.1-0.4-5.5,2.3-7.5,6.3c2.2-0.1,3.2,0.8,2.5,2.3c-0.8,1.4-4.6,2.9-5.5,2.5
					c-0.4,0.8-0.6,1-0.6,1.1c0.6,0,8.7-0.3,9.1-4.1c0.2-2.9-3.5-2.9-3.5-2.9s2.6-3.4,4.7-2.8c2,0.5,2.1,3.1,2.1,3.1
					S1315.4,588.3,1311.9,587.6z"/>
			</g>
			<g>
				<path class="st17" d="M1261.4,588.3c-2.9,0.8-3.2,3.5-3,6.3c0.3,2.8,4.6,9,8.5,10.1c3.6,1,5.7,0.6,5.7,0.6
					S1268.5,586.3,1261.4,588.3z"/>
				<path class="st8" d="M1262.5,590.6c2.1-0.2,5.2,2.8,6.9,6.9c-2.2-0.3-3.3,0.5-2.7,2c0.6,1.5,4.3,3.3,5.2,3
					c0.3,0.8,0.4,1.1,0.5,1.2c-0.6-0.1-8.6-1.1-8.7-4.9c0.1-2.9,3.8-2.5,3.8-2.5s-2.3-3.5-4.5-3.2c-2,0.3-2.4,3-2.4,3
					S1259.1,591,1262.5,590.6z"/>
			</g>
			<g>
				<path class="st18" d="M1265.3,584.4c0,0,0.3,1,0.7,2.8c1.7,7,6.3,25,9,27.3c3.3,2.8,19.9-3.5,23.8-6.3
					c3.9-2.7,7.9-19.5,7.9-19.5s-2.8-4.9-3.3-5.5c-0.6-0.7-4.5-2.7-10.1-3.6c-5.7-0.9-12.9-4.8-16.1-9
					C1276.2,580,1265.3,584.4,1265.3,584.4z"/>
				<path class="st17" d="M1265.3,584.4c0,0,0.3,1,0.7,2.8c5.4-1.8,10.2-6.8,12.8-10.2c4.1,4.3,16.4,6.6,19.9,7.2
					c3.6,0.6,7.9,4.6,7.9,4.6s-2.8-4.9-3.3-5.5c-0.6-0.7-4.5-2.7-10.1-3.6c-5.7-0.9-12.9-4.8-16.1-9
					C1276.2,580,1265.3,584.4,1265.3,584.4z"/>
			</g>
			<g>
				<path class="st8" d="M1280,585.5c0,0,2,6.2,1.2,8.1c-0.8,1.9-5,3.2-5,3.2s2.4-2.3,3-4C1280,591.2,1280,585.5,1280,585.5z"/>
				<path class="st17" d="M1278.5,597.4c0.2-0.4,4-0.7,4,0.2C1282.4,599.1,1278.4,598,1278.5,597.4z"/>
			</g>
			<g>
				<path class="st4" d="M1285.1,589.7c0-1.5,1.2-2.4,2.6-2.5c1.4-0.1,2.5,1.4,2.5,2.6c0,1.5-1.2,2.4-2.6,2.5
					C1286.2,592.4,1285.1,591,1285.1,589.7z"/>
				<path class="st4" d="M1292.8,584.9c0,0-2.9-1.3-5-1c-2.1,0.3-4.7,1.8-4.7,1.8s1.4-3.3,4.6-4
					C1291.2,580.8,1292.8,584.9,1292.8,584.9z"/>
			</g>
			<g>
				<path class="st4" d="M1272.2,590.7c0-1.5,1.2-2.4,2.6-2.5c1.4-0.1,2.5,1.4,2.5,2.6c0,1.5-1.2,2.4-2.6,2.5
					C1273.3,593.4,1272.2,592,1272.2,590.7z"/>
				<path class="st4" d="M1268.2,587c0,0,2.4-1.7,4.3-1.8c1.9-0.1,4.5,1,4.5,1s-1.7-3-4.6-3.2C1269.1,582.8,1268.2,587,1268.2,587z"
					/>
			</g>
			<path class="st8" d="M1289.8,600.3c0.2-0.1-1.1,3.8-5.1,4.8c-5.5,1.4-7.9-2.5-7.9-2.5S1282.7,604.6,1289.8,600.3z"/>
		</g>
	</g>
	<rect x="354.5" y="802.3" class="st3" width="123.6" height="9.1"/>
	<g>
		<path class="st25" d="M1097.6,781.9H943.1c-1.9,0-3.5-1.6-3.5-3.5V675c0-1.9,1.6-3.5,3.5-3.5h154.5c1.9,0,3.5,1.6,3.5,3.5v103.3
			C1101.2,780.3,1099.6,781.9,1097.6,781.9z"/>
		<path class="st3" d="M1093.3,781.9H938.8c-1.9,0-3.5-1.6-3.5-3.5V675c0-1.9,1.6-3.5,3.5-3.5h154.5c1.9,0,3.5,1.6,3.5,3.5v103.3
			C1096.9,780.3,1095.3,781.9,1093.3,781.9z"/>
		<path class="st2" d="M1032.9,726.5h-33.8c-0.7,0-1.2-0.5-1.2-1.2l0,0c0-0.7,0.5-1.2,1.2-1.2h33.8c0.7,0,1.2,0.5,1.2,1.2l0,0
			C1034.1,725.9,1033.6,726.5,1032.9,726.5z"/>
		<path class="st2" d="M1032.9,733.5h-33.8c-0.7,0-1.2-0.5-1.2-1.2l0,0c0-0.7,0.5-1.2,1.2-1.2h33.8c0.7,0,1.2,0.5,1.2,1.2l0,0
			C1034.1,732.9,1033.6,733.5,1032.9,733.5z"/>
		<path class="st2" d="M1032.9,712.2h-33.8c-0.7,0-1.2-0.5-1.2-1.2l0,0c0-0.7,0.5-1.2,1.2-1.2h33.8c0.7,0,1.2,0.5,1.2,1.2l0,0
			C1034.1,711.7,1033.6,712.2,1032.9,712.2z"/>
		<path class="st2" d="M1032.9,719.3h-33.8c-0.7,0-1.2-0.5-1.2-1.2l0,0c0-0.7,0.5-1.2,1.2-1.2h33.8c0.7,0,1.2,0.5,1.2,1.2l0,0
			C1034.1,718.7,1033.6,719.3,1032.9,719.3z"/>
		<path class="st2" d="M995.8,751.5L995.8,751.5c0-2.1,1.7-3.8,3.8-3.8h28.3c2.1,0,3.8,1.7,3.8,3.8l0,0c0,2.1-1.7,3.8-3.8,3.8h-28.3
			C997.5,755.2,995.8,753.6,995.8,751.5z"/>
		<path class="st25" d="M1027.3,802.8c0,0-5.3-21.6,0.1-50.4h-27.5c-3,9.6-11.3,37.8-9.8,56.3h34.7c13.4,0,23.4,0,23.4,0v-5.9
			H1027.3z M1008.6,789.7c-3.5,0-6.3-4.4-6.3-9.9c0-5.4,2.9-9.9,6.3-9.9c3.5,0,6.3,4.4,6.3,9.9
			C1014.9,785.3,1012,789.7,1008.6,789.7z"/>
		<path class="st2" d="M1048.1,802.8v5.9c0,0-10,0-23.4,0c-7.4-16-2.4-48.4-0.8-56.3h3.4c-5.4,28.8-0.1,50.4-0.1,50.4H1048.1z"/>
	</g>
	<g>
		<path class="st25" d="M920.8,781.9H766.4c-1.9,0-3.5-1.6-3.5-3.5V675c0-1.9,1.6-3.5,3.5-3.5h154.5c1.9,0,3.5,1.6,3.5,3.5v103.3
			C924.5,780.3,922.9,781.9,920.8,781.9z"/>
		<path class="st3" d="M916.6,781.9H762.1c-1.9,0-3.5-1.6-3.5-3.5V675c0-1.9,1.6-3.5,3.5-3.5h154.5c1.9,0,3.5,1.6,3.5,3.5v103.3
			C920.2,780.3,918.6,781.9,916.6,781.9z"/>
		<path class="st2" d="M856.2,726.5h-33.8c-0.7,0-1.2-0.5-1.2-1.2l0,0c0-0.7,0.5-1.2,1.2-1.2h33.8c0.7,0,1.2,0.5,1.2,1.2l0,0
			C857.4,725.9,856.9,726.5,856.2,726.5z"/>
		<path class="st2" d="M856.2,733.5h-33.8c-0.7,0-1.2-0.5-1.2-1.2l0,0c0-0.7,0.5-1.2,1.2-1.2h33.8c0.7,0,1.2,0.5,1.2,1.2l0,0
			C857.4,732.9,856.9,733.5,856.2,733.5z"/>
		<path class="st2" d="M856.2,712.2h-33.8c-0.7,0-1.2-0.5-1.2-1.2l0,0c0-0.7,0.5-1.2,1.2-1.2h33.8c0.7,0,1.2,0.5,1.2,1.2l0,0
			C857.4,711.7,856.9,712.2,856.2,712.2z"/>
		<path class="st2" d="M856.2,719.3h-33.8c-0.7,0-1.2-0.5-1.2-1.2l0,0c0-0.7,0.5-1.2,1.2-1.2h33.8c0.7,0,1.2,0.5,1.2,1.2l0,0
			C857.4,718.7,856.9,719.3,856.2,719.3z"/>
		<path class="st2" d="M819.1,751.5L819.1,751.5c0-2.1,1.7-3.8,3.8-3.8h28.3c2.1,0,3.8,1.7,3.8,3.8l0,0c0,2.1-1.7,3.8-3.8,3.8h-28.3
			C820.8,755.2,819.1,753.6,819.1,751.5z"/>
		<path class="st25" d="M850.5,802.8c0,0-5.3-21.6,0.1-50.4h-27.5c-3,9.6-11.3,37.6-9.8,56H848c13.4,0,23.4,0,23.4,0v-5.7
			L850.5,802.8L850.5,802.8z M831.9,789.7c-3.5,0-6.3-4.4-6.3-9.9c0-5.4,2.9-9.9,6.3-9.9c3.5,0,6.3,4.4,6.3,9.9
			C838.2,785.3,835.3,789.7,831.9,789.7z"/>
		<path class="st2" d="M871.4,802.8v5.7c0,0-10,0-23.4,0c-7.4-16-2.4-48.2-0.8-56h3.4c-5.4,28.8-0.1,50.4-0.1,50.4L871.4,802.8
			L871.4,802.8z"/>
	</g>
	<g>
		<g>
			<g>
				<polygon class="st1" points="730.5,414.7 730.5,449.5 720.1,459.9 685.4,459.9 685.4,414.7 				"/>
				<g>
					<g>
						<polygon class="st3" points="725.9,410.9 725.9,445.6 715.5,456 680.7,456 680.7,410.9 						"/>
						<polygon class="st26" points="725.9,445.6 715.5,456 715.5,445.6 						"/>
					</g>
					<rect x="699.4" y="406.1" class="st26" width="7.6" height="9.6"/>
				</g>
			</g>
			<g>
				<polygon class="st1" points="783.3,414.7 783.3,449.5 772.9,459.9 738.1,459.9 738.1,414.7 				"/>
				<g>
					<g>
						<polygon class="st3" points="778.6,410.9 778.6,445.6 768.2,456 733.5,456 733.5,410.9 						"/>
						<polygon class="st26" points="778.6,445.6 768.2,456 768.2,445.6 						"/>
					</g>
					<rect x="752.2" y="406.1" class="st26" width="7.6" height="9.6"/>
				</g>
			</g>
			<polygon class="st1" points="836,414.7 836,449.5 825.6,459.9 790.8,459.9 790.8,414.7 			"/>
			<polygon class="st3" points="831.3,410.9 831.3,445.6 820.9,456 786.2,456 786.2,410.9 			"/>
			<rect x="804.9" y="406.1" class="st26" width="7.6" height="9.6"/>
		</g>
		<g>
			<g>
				<g>
					<polygon class="st26" points="831.3,445.6 820.9,456 820.9,445.6 					"/>
				</g>
			</g>
		</g>
	</g>
	<g>
		<g>
			<path class="st11" d="M650.6,361.5H545.8c-7.7,0-13.9,6.3-13.9,13.9v63.4c0,7.7,6.3,13.9,13.9,13.9h108.5l10.2,11.2v-88.5
				C664.5,367.7,658.3,361.5,650.6,361.5z"/>
		</g>
		<g>
			<path class="st27" d="M584.6,405.4l-14.2,4.6l12.3,4.6l-1.4,7l-20.7-8.1l1.6-7.8l23.9-8.1L584.6,405.4z"/>
			<path class="st27" d="M602.8,388h9l-22.4,41.2h-9L602.8,388z"/>
			<path class="st27" d="M630.9,405.6l-1.6,7.8l-23.9,8.1l1.6-7.9l14.2-4.6l-12.3-4.6l1.4-7L630.9,405.6z"/>
		</g>
	</g>
	<g>
		<path class="st11" d="M473.2,443h-193c-14.1,0-25.5,11.4-25.5,25.5v116.7c0,14.1,11.4,25.5,25.5,25.5h199.8l18.8,20.6V468.5
			C498.8,454.4,487.3,443,473.2,443z"/>
		<g>
			<path class="st27" d="M446,468.3H302.9c-1.7,0-3.1-1.4-3.1-3.1l0,0c0-1.7,1.4-3.1,3.1-3.1H446c1.7,0,3.1,1.4,3.1,3.1l0,0
				C449.2,467,447.8,468.3,446,468.3z"/>
			<path class="st27" d="M352.5,591.3h-49.6c-1.7,0-3.1-1.4-3.1-3.1l0,0c0-1.7,1.4-3.1,3.1-3.1h49.6c1.7,0,3.1,1.4,3.1,3.1l0,0
				C355.6,589.9,354.3,591.3,352.5,591.3z"/>
			<path class="st27" d="M462.3,538.6H319.2c-1.7,0-3.1-1.4-3.1-3.1l0,0c0-1.7,1.4-3.1,3.1-3.1h143.2c1.7,0,3.1,1.4,3.1,3.1l0,0
				C465.5,537.3,464,538.6,462.3,538.6z"/>
			<path class="st27" d="M360.9,553.3h-41.8c-1.7,0-3.1-1.4-3.1-3.1l0,0c0-1.7,1.4-3.1,3.1-3.1h41.8c1.7,0,3.1,1.4,3.1,3.1l0,0
				C364.1,551.8,362.6,553.3,360.9,553.3z"/>
			<path class="st28" d="M429,480.8h-90.6c-1.7,0-3.1-1.4-3.1-3.1l0,0c0-1.7,1.4-3.1,3.1-3.1H429c1.7,0,3.1,1.4,3.1,3.1l0,0
				C432.1,479.5,430.7,480.8,429,480.8z"/>
			<path class="st28" d="M429,493.3h-90.6c-1.7,0-3.1-1.4-3.1-3.1l0,0c0-1.7,1.4-3.1,3.1-3.1H429c1.7,0,3.1,1.4,3.1,3.1l0,0
				C432.1,492,430.7,493.3,429,493.3z"/>
			<path class="st28" d="M429,506.7h-90.6c-1.7,0-3.1-1.4-3.1-3.1l0,0c0-1.7,1.4-3.1,3.1-3.1H429c1.7,0,3.1,1.4,3.1,3.1l0,0
				C432.1,505.3,430.7,506.7,429,506.7z"/>
			<path class="st28" d="M429,565h-90.6c-1.7,0-3.1-1.4-3.1-3.1l0,0c0-1.7,1.4-3.1,3.1-3.1H429c1.7,0,3.1,1.4,3.1,3.1l0,0
				C432.1,563.6,430.7,565,429,565z"/>
			<path class="st28" d="M429,578.4h-90.6c-1.7,0-3.1-1.4-3.1-3.1l0,0c0-1.7,1.4-3.1,3.1-3.1H429c1.7,0,3.1,1.4,3.1,3.1l0,0
				C432.1,576.9,430.7,578.4,429,578.4z"/>
			<path class="st29" d="M410.1,522.2h-90.5c-1.7,0-3.1-1.4-3.1-3.1l0,0c0-1.7,1.4-3.1,3.1-3.1h90.6c1.7,0,3.1,1.4,3.1,3.1l0,0
				C413.2,520.8,411.9,522.2,410.1,522.2z"/>
		</g>
	</g>
	<g>
		<path class="st11" d="M1383.7,514.7h117.9c8.6,0,15.6,7,15.6,15.6v71.2c0,8.6-7,15.6-15.6,15.6h-122l-11.5,12.6v-99.5
			C1368.1,521.7,1375,514.7,1383.7,514.7z"/>
		<g>
			<path class="st27" d="M1400.2,530.3h87.4c1,0,1.9-0.8,1.9-1.9l0,0c0-1-0.8-1.9-1.9-1.9h-87.4c-1,0-1.9,0.8-1.9,1.9l0,0
				C1398.4,529.4,1399.2,530.3,1400.2,530.3z"/>
			<path class="st27" d="M1457.4,605.3h30.3c1,0,1.9-0.8,1.9-1.9l0,0c0-1-0.8-1.9-1.9-1.9h-30.3c-1,0-1.9,0.8-1.9,1.9l0,0
				C1455.4,604.5,1456.3,605.3,1457.4,605.3z"/>
			<path class="st27" d="M1390.3,573.2h87.4c1,0,1.9-0.8,1.9-1.9l0,0c0-1-0.8-1.9-1.9-1.9h-87.4c-1,0-1.9,0.8-1.9,1.9l0,0
				C1388.4,572.4,1389.2,573.2,1390.3,573.2z"/>
			<path class="st27" d="M1452.2,582.1h25.5c1,0,1.9-0.8,1.9-1.9l0,0c0-1-0.8-1.9-1.9-1.9h-25.5c-1,0-1.9,0.8-1.9,1.9l0,0
				C1450.3,581.2,1451.2,582.1,1452.2,582.1z"/>
			<path class="st28" d="M1410.7,537.9h55.3c1,0,1.9-0.8,1.9-1.9l0,0c0-1-0.8-1.9-1.9-1.9h-55.3c-1,0-1.9,0.8-1.9,1.9l0,0
				C1408.8,537,1409.6,537.9,1410.7,537.9z"/>
			<path class="st28" d="M1410.7,545.6h55.3c1,0,1.9-0.8,1.9-1.9l0,0c0-1-0.8-1.9-1.9-1.9h-55.3c-1,0-1.9,0.8-1.9,1.9l0,0
				C1408.8,544.7,1409.6,545.6,1410.7,545.6z"/>
			<path class="st28" d="M1410.7,553.7h55.3c1,0,1.9-0.8,1.9-1.9l0,0c0-1-0.8-1.9-1.9-1.9h-55.3c-1,0-1.9,0.8-1.9,1.9l0,0
				C1408.8,552.8,1409.6,553.7,1410.7,553.7z"/>
			<path class="st28" d="M1410.7,589.3h55.3c1,0,1.9-0.8,1.9-1.9l0,0c0-1-0.8-1.9-1.9-1.9h-55.3c-1,0-1.9,0.8-1.9,1.9l0,0
				C1408.8,588.4,1409.6,589.3,1410.7,589.3z"/>
			<path class="st28" d="M1410.7,597.5h55.3c1,0,1.9-0.8,1.9-1.9l0,0c0-1-0.8-1.9-1.9-1.9h-55.3c-1,0-1.9,0.8-1.9,1.9l0,0
				C1408.8,596.5,1409.6,597.5,1410.7,597.5z"/>
			<path class="st29" d="M1422.1,563.2h55.3c1,0,1.9-0.8,1.9-1.9l0,0c0-1-0.8-1.9-1.9-1.9h-55.3c-1,0-1.9,0.8-1.9,1.9l0,0
				C1420.3,562.3,1421.1,563.2,1422.1,563.2z"/>
		</g>
	</g>
	<rect x="115.4" y="1066.7" class="st30" width="1325" height="4.9"/>
	<g>
		<g>
			<path class="st25" d="M734.2,570.8c7.4,3,26.5,46.6,30,51.1c6.6-0.8,8.9,0.8,8.6,2.5c-0.3,1.8,0,4.6,0,4.6s13.3,11.2,8.9,23.2
				c-4.3,12-14.3,24.4-30.8,14.5c-16.6-9.9-35.7-43-41.8-61.4C703.1,587.2,715.6,563.2,734.2,570.8z"/>
		</g>
		<g>
			<g>
				<path class="st14" d="M786.6,1066.7H733h-6h-22.4c-0.3-1.4-0.2-3,0.1-4.6c0.1-0.7,0.3-1.4,0.5-2c3.3-11.2,16.1-24.8,20.6-25.9
					c5.4-1.3,20.4,6.2,24.3,9.3c3.9,3.1,14.6,9.6,21.6,11.7c3.5,1.1,7.4,4.1,10.4,6.8C784.8,1064.5,786.6,1066.7,786.6,1066.7z"/>
				<path class="st15" d="M786.6,1066.7H733h-6h-22.4c-0.3-1.4-0.2-3,0.1-4.6H782C784.8,1064.5,786.6,1066.7,786.6,1066.7z"/>
				<path class="st16" d="M758.2,1050.6c6.4,4,16.5,6.7,18.3,8.5c1.8,1.9,1.8,1.9,1.8,1.9l-35.5-0.4
					C742.9,1060.6,748.7,1050.1,758.2,1050.6z"/>
				<path class="st15" d="M716.7,1043.6c0,0,12,7.4,18.8,9.6c6.8,2.2,12.7,3.8,14.4,9.5c1.4,0.3,1.4,0.3,1.4,0.3s1.1-3-5.3-7.2
					c-6.4-4.1-9.9-3.3-15.9-6.6c-6-3.3-12.6-7.2-12.6-7.2L716.7,1043.6z"/>
			</g>
			<g>
				<path class="st4" d="M741.3,702.3l-5.1,202c0,0,3.1,124.8,4.1,132.9c-23.4,12.1-35.8,28.5-35.8,28.5s-15.1-38.5-24.4-155.3
					c-1.4-17.7,3.1-50.1,3.1-50.1l0.7-159.2L741.3,702.3z"/>
			</g>
		</g>
		<g>
			<g>
				<path class="st11" d="M697.8,703.8c0,0-1.2,44.7-2,47.8s-9.1,16.8-9.1,16.8l-15.8,136.9c0,0-8.9,123.3-8.6,131.3
					c-18.8,5.6-17.9,11-27.1,15.3c-1.4,0.6-2.5,1.2-3.7,1.8c-9.1,4.6-12.9,7.5-12.9,7.5s-5.7-142.7-5.6-149.4
					c0.5-17.8,4.7-37.9,4.7-37.9l10-170.2h13.2h3L697.8,703.8z"/>
				<path class="st4" d="M635.1,872.8c-0.3,1.8-0.2,124.1-0.1,179.1c-1.4,0.6-2.5,1.2-3.7,1.8c-0.6-52.6-1.9-172.1-0.5-180.7
					c1.5-9.9,8.5-141.1,10-169.3h3C642,739.8,635.4,870.8,635.1,872.8z"/>
			</g>
			<g>
				<g>
					<path class="st14" d="M709.1,1066.7h-59.3h-6.7h-24.8c-0.2-1.5,0.1-3.1,0.6-4.9c0.2-0.7,0.4-1.4,0.8-2.1
						c4.7-11.7,20.4-26,25.4-27.1c6.2-1.4,21.9,6.5,25.9,9.7c4,3.3,15.2,10.1,22.6,12.3c3.8,1.2,7.9,4.3,10.8,7.1
						C707.3,1064.4,709.1,1066.7,709.1,1066.7z"/>
					<path class="st15" d="M709.1,1066.7h-59.3h-6.7h-24.8c-0.2-1.5,0.1-3.1,0.6-4.9h85.4C707.3,1064.4,709.1,1066.7,709.1,1066.7z"
						/>
					<path class="st16" d="M679.4,1049.9c6.8,4.1,17.6,7,19.4,9c1.8,1.9,1.8,1.9,1.8,1.9l-39.2-0.4
						C661.3,1060.3,668.9,1049.3,679.4,1049.9z"/>
					<path class="st15" d="M634.1,1042.5c0,0,12.5,7.7,19.8,10.1c7.3,2.4,13.7,4,14.9,9.9c1.4,0.3,1.4,0.3,1.4,0.3s1.4-3.1-5.2-7.4
						c-6.7-4.3-10.6-3.5-16.8-6.9c-6.3-3.5-13.2-7.4-13.2-7.4L634.1,1042.5z"/>
				</g>
			</g>
		</g>
		<g>
			<g>
				<path class="st3" d="M741.3,716.3c0,0-18.8,0-41.3,0c-1.3,0-2.5,0-3.7,0c-33.3,0-72.9-0.1-72.9-0.3c2.2-17.7,3.5-53.8,3.5-53.8
					s-6-25.1-10.6-40.7c-9.6-31.8-6.7-53.8-3.7-56.7c9.6-9.4,54.9-22.1,54.9-22.1s12.5-4.6,23.9,1c5.7,2.8,39.2,18.8,43,27.2
					s3,88.6,3,88.6l2,30.3c0,0,6.6,14,7.4,16.3C747.4,708.3,741.3,716.3,741.3,716.3z"/>
				<path class="st25" d="M696.2,716.3c0.1-29.4,0.3-109.5-0.4-116.4c-0.8-8.4-3.2-30.4-3.2-30.4l2-7c0,0,2.3,26.7,3.5,37
					c0.9,8.5,1.6,88.4,1.9,116.8C698.7,716.3,697.5,716.3,696.2,716.3z"/>
				<path class="st25" d="M650,615.6h29c0,0,3,30.5-12.3,31C646.8,647.3,650,627.9,650,615.6z"/>
			</g>
			<path class="st11" d="M660,711.7"/>
		</g>
		<g>
			<path class="st18" d="M811.8,583.8c0,0-51.6,43.5-57.6,58.1c-3.6,9-6.4,24.2,10.6,27.8c17.2,3.6,52.8-68,56.2-74.7
				C820.8,587.4,818.8,584.4,811.8,583.8z"/>
		</g>
		<g>
			<g>
				<path class="st17" d="M817.1,573.4c0,0,7.8,0.5,12.8-0.4c4.5-0.8,20.1-4.4,22.6-1.3c4,5.1-9.3,3.8-16.7,6.9
					c-7.4,3.2-3.4,11-8.9,12.8c-5.5,1.9-9.6,1.1-11.2-4.2C813.9,582,817.1,573.4,817.1,573.4z"/>
				<path class="st18" d="M812.6,591c0,0-7.4-10.8-7.2-14.5c0.3-3.6,13.4-13.1,13.4-13.1s0.5-7.2,2.5-7.9c2-0.7,4.3,3.7,3.6,8.6
					c-0.4,3.4-3.9,6.3-6,7.7c-0.9,0.6-1.3,1.8-0.8,2.8c1,2.1,2.4,5.7,2,7.8C819.7,585.5,812.6,591,812.6,591z"/>
				<path class="st18" d="M839,580.7c-0.1,0.4-0.2,0.9-0.3,1.4c-0.3,0.5-0.5,1.1-0.8,1.7c1.5,3.4-0.7,6.2-2,6.8
					c0.4,1.2,0.2,2.3-0.3,3.4c-1.1,2.1-3.4,4.1-5.1,5.2c-0.2,0.1-0.3,0.3-0.4,0.3c-2.5,1.7-13.2,3.4-15.3-0.1s-2.2-10.1-2.2-10.1
					s10.6-3.5,15.2-0.8v-0.1c-2.4-3.5,0.4-4.5,0.8-4.6l0,0c0,0-0.5-0.3-0.8-0.9c-0.1-0.3-0.2-0.5-0.2-0.8c-0.1-0.7,0.2-1.4,0.9-2.5
					c2.1-2.7,6.3-4.1,9-2.3C838.8,578.5,839.1,579.5,839,580.7z"/>
				<path class="st8" d="M835.5,593.9c-0.3-1-0.3-2.3-1.4-3.1c-1.7-1.3-3.8-1.4-5-1.4c-1.2,0-5.9,0.9-5.9,0.9s1.9-1.6,4.4-1.8
					c0,0,5.6-1.9,8.3,2C836.2,591.7,836.1,592.8,835.5,593.9z"/>
				<path class="st17" d="M814.6,599.4c2.1,3.5,12.8,1.9,15.3,0.1c0.2-0.1,0.3-0.2,0.4-0.3c0.5-1,0.7-1.9,0.8-2.8
					c0.1-1.5-0.9-2.4-3.3-1.9c-2.5,0.4-4.1,0.2-4.6-0.9c-1.6-3,4.4-5,4.4-5c-4.6-2.8-15.2,0.8-15.2,0.8S812.5,595.9,814.6,599.4z"/>
			</g>
			<path class="st8" d="M838.6,582.1c-0.3,0.5-0.5,1.1-0.8,1.7c-2.5-1.1-9.6,0.2-9.6,0.2s-0.5-0.3-0.8-0.9
				C831.1,581.7,835.2,581.2,838.6,582.1z"/>
		</g>
		<g>
			<path class="st25" d="M612.4,564.8c-3.5,1.4-6.8,6.2-8.8,9c-4.6,6.5-8.5,13.4-12.3,20.4c-5.2,9.5-10.1,19.1-14.8,28.8
				c-2.2,4.6-4.1,9.4-6.2,13.9c-2.7,5.9-5.5,11.8-6.4,18.3c-1,7.1,0.5,15,5.7,20c3,2.9,10.2,7.5,14.5,6.5c4.2-1,8.6-4,11.7-6.9
				c4.6-4.3,8.3-9.1,10.6-14.9c4.7-11.9,18.1-39.5,25-57.3C638.6,583.9,634.8,556,612.4,564.8z"/>
			<g>
				<path class="st18" d="M656.1,735.9c-2.5-2.4-6.3-5.1-6.3-5.1s-4.2-8.5-5.7-11.9c-0.3-0.7-0.8-1.1-1.4-1.4
					c-6.6-2.6-11.7-7.7-15.2-13.9c-8.4-15.1-21.5-37.7-30-46.9c-3.5-3.8-4.9-5.7-10.5-7.3c-4.5-1.3-9.4,0.3-14.5,3.5
					c-10.1,6.3-7.9,16.3-3.9,23c5.8,9.8,53.7,49.4,53.7,49.4s-0.2,16.6,0.7,18.8c0.5,1.3,0.6,1.4,1.8,2.5l0,0
					c0.9,0.9,1.7,1.6,1.7,1.6s0.5,3,3.7,5.3c0.7,0.3,1.3,0.8,1.9,1.3c0.3,1.9,1,2.3,2.6,3c0.1,0.1,0.1,0.2,0.2,0.3
					c0.9,1.5,2,3,3,4.1c0.8,0.8,1.7,1.4,2.5,1.5c0.6-0.7,2.4-12,1.4-33.1c0.5,0.3,1.9,3,3.3,4.3
					C648.4,738.4,653.9,737.8,656.1,735.9z"/>
				<path class="st8" d="M638,762.4c-1.1-1.1-2.1-2.6-3-4.1c0-2.2-0.1-4.2-0.2-5.5c0.1-5.7,1.4-14.5,1.4-14.5s0.9,6.5,0.8,11.6
					C636.9,753.9,637.6,759.8,638,762.4C638,762.4,638,762.4,638,762.4z"/>
				<path class="st8" d="M632.1,755c-0.6-0.4-1.2-0.8-1.9-1.3c-1.2-8.8,0.5-17.2,0.5-17.2S631.6,750.4,632.1,755z"/>
				<path class="st8" d="M626.6,748.4c0,0-0.8-0.7-1.7-1.6l0,0c0.1-3.5,1.1-13,1.8-14.9C626.3,736.2,626.6,748.4,626.6,748.4z"/>
			</g>
		</g>
		<g>
			<path class="st9" d="M672.8,535.1c0,0-4.8,1.4-7.3,7c-1.4,3.4-1.5,9.1-0.9,12c0.7,2.8,10.1,17.9,10.1,17.9s6.8-5.6,9.6-6.3
				c2.8-0.7,8.1,4.1,8.1,3.7c0-0.3,2.5-6,5.2-5.6c2.8,0.4,8.8,4.2,9,3.5c0.3-0.8,0.7-7.6-1.9-14c-2.5-6.3-5.3-10.4-11.8-15.4
				C686.7,533,675.2,534.1,672.8,535.1z"/>
			<g>
				<path class="st4" d="M715.6,510.9c4-3.9,5.2-9.3,5.3-12.5c0-3.2-10.8-11.1-10.8-11.1s4.9-2.6,3.2-4.3c-1.7-1.8-15.3-6-30.1-1.3
					c-14.9,4.8-18.3,11.6-16.8,23.7c2.7,23.4,14.4,29.7,24.5,27.3C701.1,530.4,714.7,517.3,715.6,510.9z"/>
				<path class="st10" d="M711.3,515.7c0.6-1.2,7.3-9,5.7-13.3c-1.5-4.3-11.7-11.9-11.7-11.9s3.9-3.5,1.4-4.9
					c-2.4-1.5-32,3.5-35,9.3c-3,5.7-1.8,22,1.8,25.2C677.3,523.3,706.9,524.8,711.3,515.7z"/>
			</g>
			<g>
				<path class="st17" d="M696.5,548.5c0.8,3.2,0,8.6-4.7,16c-1.4-4.4-10.6-8.1-15.2-11.7c-4.5-3.5-9.1-6.3-7-12.3
					c1.4-2.5,2.6-11.2,3.4-17.4c0.5-3.7,0.8-6.5,0.8-6.5l24.9,9.6c0,0-2.5,8.6-3,13c0,0.3-0.1,0.5-0.1,0.8
					C695.2,544.2,695.6,545.3,696.5,548.5z"/>
				<path class="st8" d="M698.6,526.3c0,0-2.5,8.6-3,13c-5.9-0.8-14.1-2.2-17.1-4.6c-2.6-2.2-4.8-18.1-4.8-18.1L698.6,526.3z"/>
			</g>
			<g>
				<path class="st17" d="M706.4,524.4c0,0,1.6,0.6,4.6,0.1c3.2-0.5,7.2-5,7.7-7.2c0.5-2.2,0.5-4.3-1.7-5.2
					c-4.2-1.8-8.1,6.4-9.7,10.3c-0.2,0.3-0.3,0.6-0.3,0.8C706.5,523.9,706.4,524.4,706.4,524.4z"/>
				<path class="st8" d="M706.9,523.3c1.4,0,6.7-0.3,7-3c0.3-2.3-2.8-2.5-2.8-2.5s2.1-2.6,3.8-2.1c1.6,0.5,1.6,2.5,1.6,2.5
					s1.9-3.9-0.8-4.5c-1.7-0.3-4.5,1.7-6.2,4.8c1.8,0,2.5,0.8,1.9,1.9c-0.6,1.1-3.5,2-4.3,1.9C707,522.7,706.9,523,706.9,523.3z"/>
			</g>
			<g>
				<path class="st17" d="M675.5,518.5c0,0-1.7,0.2-4.5-1c-3-1.3-5.7-6.6-5.7-8.9c0.1-2.2,0.6-4.3,3-4.6c4.5-0.7,6.3,8.2,6.9,12.4
					c0.1,0.3,0.1,0.6,0.1,0.9C675.5,518,675.5,518.5,675.5,518.5z"/>
				<path class="st8" d="M675.4,517.3c-1.4-0.3-6.4-2-6.1-4.6c0.3-2.3,3.3-1.6,3.3-1.6s-1.4-3-3.2-3c-1.7,0.1-2.2,2.1-2.2,2.1
					s-0.9-4.2,1.9-4.1c1.7,0.1,3.9,2.7,4.8,6.2c-1.7-0.4-2.6,0.1-2.4,1.4c0.3,1.2,2.8,2.9,3.7,3C675.3,516.8,675.3,517,675.4,517.3z
					"/>
			</g>
			<g>
				<path class="st18" d="M712.8,509.7c0,0-0.6,1.9-1.6,4.8c-2.5,7.6-7.2,21.6-8.5,22.6c-1.9,1.3-20.3-4.5-22.7-6.8
					c-4.3-4.1-6-20.1-6.5-20.1l2.9-5.2l1.1-2.1c0,0,6.8,0.8,12.1,2s10.8-3.2,15-8C708.8,500.4,712.8,509.7,712.8,509.7z"/>
				<path class="st17" d="M712.8,509.7c0,0-0.6,1.9-1.6,4.8l-6.2-13.4c0,0-4.2,6.7-11.7,8.1c-5.2,0.9-12.9-2.3-17.2-4.4l1.1-2.1
					c0,0,6.8,0.8,12.1,2c5.3,1.2,10.8-3.2,15-8C708.8,500.4,712.8,509.7,712.8,509.7z"/>
			</g>
			<g>
				<path class="st8" d="M699.3,516.2c0.8,2.4,3.3,3.9,3.3,3.9s-1.4-2.7-1.8-4.6c-0.4-1.9,0-7.4,0-7.4S698.6,513.7,699.3,516.2z"/>
				<path class="st17" d="M700.3,519.8c-0.2-0.5-4.6-1.3-4.6,0C695.9,520.9,700.5,520.3,700.3,519.8z"/>
			</g>
			<g>
				<path class="st4" d="M694.3,511c0.1-0.7-0.2-1.3-0.8-1.8c-1.4-1-3.9-0.3-3.8,1.6C689.6,514,693.9,514.1,694.3,511z"/>
				<path class="st4" d="M688.9,506.6c0,0,2.4-0.7,3.9-0.3c1.7,0.3,3.3,1.8,3.3,1.8s-0.5-3-2.8-3.6
					C691,503.9,688.9,506.6,688.9,506.6z"/>
			</g>
			<g>
				<path class="st4" d="M707.7,512.2c0.1-0.7-0.2-1.3-0.8-1.8c-1.4-1-3.9-0.3-3.8,1.6C703,515.1,707.4,515.3,707.7,512.2z"/>
				<path class="st4" d="M703.3,508.5c0,0,2.4-0.7,3.9-0.3c1.7,0.3,3.3,1.8,3.3,1.8s-0.5-3-2.8-3.6
					C705.3,505.7,703.3,508.5,703.3,508.5z"/>
			</g>
			<g>
				<path class="st10" d="M684.9,525.6c1.2,3,5.2,5.7,9.4,5.3c0.5,0,0.9-0.1,1.4-0.2c5.6-1.3,4.9-7.2,2.7-7.1
					c-5.9,0.2-10.7-3.2-12.8-2.2c-0.4,0.3-0.8,0.7-0.9,1.4C684.5,523.8,684.5,524.7,684.9,525.6z"/>
				<path class="st3" d="M685.6,521.4c0.4,0.7,0.8,1.1,2.1,1.8c1.9,1.2,7.5,2.7,8.8,2.4c1.3-0.3,1.9-1.9,1.9-1.9
					C692.4,523.8,687.6,520.4,685.6,521.4z"/>
				<path class="st8" d="M700,525.5c0,0-0.5-1.7-2.1-1.5c-1.6,0.1-2.2,0.1-3.9-0.2c-3.5-0.6-6.5-2.3-7.6-2.3
					c-1.1-0.1-1.5,0.7-1.8,1.3c0.2-1.4,0.8-1.8,1.9-1.9c1.2-0.2,6.3,1.6,8.5,1.8C697.2,522.8,699.8,522.5,700,525.5z"/>
				<path class="st8" d="M684.9,525.6c1.2,3,5.2,5.7,9.4,5.3c0.5,0,0.9-0.1,1.4-0.2c-0.6-1.4-1.7-2.6-2.2-3c-1.2-1-3.1-0.3-3.1-0.3
					s-1.9-1.4-2.7-1.8C686.7,525.1,685.6,525.1,684.9,525.6z"/>
			</g>
		</g>
	</g>
	<g>
		<g>
			<g>
				<rect x="898.1" y="808.7" class="st4" width="15.3" height="258"/>
			</g>
			<polygon class="st4" points="1307.3,808.7 1307.3,1066.7 1291.9,1066.7 1291.9,824 1156.9,824 1156.9,1066.7 1141.6,1066.7 
				1141.6,824 736.7,824 736.7,808.7 			"/>
			<rect x="1146.7" y="824" class="st0" width="21.4" height="101.3"/>
		</g>
		<g>
			<g>
				<rect x="559.9" y="808.7" class="st4" width="15.3" height="258"/>
			</g>
			<polygon class="st4" points="233.3,808.7 233.3,1066.7 248.7,1066.7 248.7,824 316.4,824 316.4,1066.7 331.7,1066.7 331.7,824 
				736.7,824 736.7,808.7 			"/>
			<rect x="305.2" y="824" class="st0" width="21.4" height="101.3"/>
			<path class="st3" d="M736.7,824H316.4v101.3h57.6c16.5,0,31-10.5,36.3-26.1l0,0c5.2-15.6,19.9-26.1,36.3-26.1h580.3
				c16.5,0,31,10.5,36.3,26.1l0,0c5.2,15.6,19.9,26.1,36.3,26.1h57.6V824H736.7z"/>
		</g>
	</g>
	<g>
		<g>
			<g>
				<path class="st24" d="M238.9,902.1L238.9,902.1c3.4,0.6,6.5,2,9.3,4.1c1.2,0.8,2.3,1.7,3.1,2.2c4.5,2.4,7.3,3,12.7,2.6
					c-3.3-4.6-8.2-6.9-11-7.7c-1.5-0.4-3-0.6-4.4-0.7c-1.8-0.1-3.5-0.3-5.2-0.8c-0.8-0.3-1.7-0.5-2.5-0.7c-0.4-0.1-0.6-0.6-0.3-0.9
					c0.8-0.8,1.5-1.5,2.2-2.2h0.1h0.1c4.5-0.3,9,0.7,13,2.5c1.4,0.7,2.9,1.3,3.8,1.5c5.8,1.6,9.3,1.5,15.6-0.2
					c-5-4.6-11.4-6-14.9-6.3c-1.9-0.1-3.6,0.1-5.2,0.3c-2.2,0.3-4.5,0.5-6.7,0.3c-0.8-0.1-1.7-0.1-2.5-0.1c-0.5,0-0.8-0.7-0.4-1
					c1.7-1.7,3.5-3.3,5.2-4.8c0.1-0.1,0.2-0.2,0.3-0.2c0.1,0,0.2,0,0.2,0c4-0.2,7.9,0.7,11.6,2.3c1.4,0.7,2.8,1.2,3.7,1.5
					c5.4,1.4,8.6,1.4,14.5-0.2c-4.6-4.2-10.6-5.6-13.9-5.8c-1.8-0.1-3.5,0.1-5,0.3c-2,0.3-4.1,0.4-6.1,0.3c-0.7-0.1-1.4-0.1-1.9-0.1
					c-0.5,0-0.8-0.7-0.3-1c1.8-1.7,3.5-3.3,5.3-4.8c0.1-0.1,0.2-0.1,0.3-0.2c0.3,0,0.5,0,0.8,0c3.8-0.1,7.6,0.8,11.1,2.4
					c1.4,0.7,2.8,1.2,3.7,1.5c5.4,1.5,8.6,1.4,14.5-0.2c-4.6-4.2-10.6-5.7-13.9-5.8c-1.8-0.1-3.5,0.1-5,0.3c-2,0.3-4.1,0.4-6.1,0.3
					c-0.7-0.1-1.4-0.1-2-0.1c-0.5,0-0.8-0.7-0.3-1c2-1.8,4-3.5,5.9-5.2c0.1-0.1,0.3-0.2,0.4-0.1c1.5,0.3,3.1,0.6,4.8,0.8
					c1.8,0.2,3.5,0.6,5.2,1.2c1.4,0.5,3.1,1,4.9,1.2c3.1,0.3,9,0,14.2-3.2c-5.3-2.5-8.4-3-13.8-2.6c-1.2,0.2-3,0.6-4.8,1.1
					c-2.5,0.7-5,0.8-7.5,0.5c-0.2,0-0.3-0.1-0.6-0.1c-0.5-0.1-0.7-0.7-0.3-1c3.5-3,6.6-5.5,9.1-7.6c0.1-0.1,0.3-0.1,0.3-0.1
					c1.5,0.3,3,0.3,4.6,0.3c1.5,0,3,0.3,4.6,0.7c1.5,0.4,3.2,0.8,5,0.8c3,0.1,8.5-0.6,13.1-4.1c-5.2-2-8-2.3-13.1-1.4
					c-1.2,0.3-3,0.8-4.6,1.4c-2,0.8-4.1,1.1-6.3,0.9c-0.2,0-0.3,0-0.4,0c-0.5,0-0.8-0.7-0.3-1c1.2-0.9,2.2-1.8,3-2.4
					c1.7-1.4,3.5-2.6,5.4-3.7c3-1.8,5.8-3.4,7.9-4.6c5.3-3,7.3-3.9,11.7-13.2c-7,0.3-13.4,4-18,10.6c-0.2,0.3-0.3,0.5-0.5,0.8
					c-2.5,3.5-5.6,6.6-9,9.3c-0.8,0.6-1.7,1.4-2.6,2.1c-0.4,0.3-1.1-0.1-0.9-0.7v-0.1c0.8-1.9,1.9-3.7,3.2-5.2
					c1.3-1.4,2.6-2.9,3.3-3.8c2.8-4.3,3.6-7.1,3.9-12.6c-5,2.9-7.9,7.7-8.9,10.4c-0.7,1.7-1,3.4-1.2,4.9s-0.6,3-1.2,4.4
					c-0.8,1.7-1.4,3.5-1.7,5.3v0.1c-2.2,1.9-4.7,4-7.5,6.3c-0.4,0.3-1,0-0.9-0.5c0-0.1,0-0.1,0-0.2c0.4-2,1.2-3.9,2.3-5.6
					c1.1-1.7,2.2-3.5,2.8-4.6c2.1-5,2.5-8.1,1.7-13.9c-4.6,4-6.8,9.5-7.4,12.6c-0.3,1.9-0.4,3.7-0.3,5.4c0.1,1.6,0,3.1-0.4,4.7
					c-0.3,1.5-0.6,3-0.8,4.6c0,0.1-0.1,0.3-0.2,0.3c-2.1,1.8-4.3,3.7-6.6,5.7c-0.3,0.3-1,0.1-0.9-0.4c0-0.2,0-0.3,0-0.5
					c0.2-2.6,0.9-5.2,2.1-7.5c0.8-1.7,1.7-3.5,2.1-4.6c1.6-5.4,1.7-8.6,0.3-14.5c-4.4,4.6-5.9,10.5-6.3,13.7c-0.2,1.9,0,3.8,0.3,5.5
					c0.3,1.7,0.3,3.5,0.1,5.2c-0.3,1.8-0.3,3.6-0.3,5.4c0,0.2-0.1,0.3-0.2,0.4c-2.4,2.1-4.7,4.3-7.2,6.6c-0.3,0.3-1,0.1-0.9-0.4
					v-0.1c0.1-2.9,0.7-5.7,1.9-8.2c0.8-1.7,1.6-3.5,1.9-4.6c1.5-5.4,1.4-8.6-0.2-14.5c-4.2,4.6-5.7,10.6-5.8,13.9
					c-0.2,1.9,0.1,3.7,0.4,5.4c0.3,1.8,0.4,3.5,0.3,5.2c-0.2,1.9-0.2,3.6-0.1,5.4c0,0.2-0.1,0.3-0.2,0.4c-1.9,1.8-3.9,3.6-5.8,5.6
					l-0.1,0.1c0.3-1.3,0.4-2.5,0.5-3.8c0.2-2.3,0.7-4.5,1.4-6.6c0.5-1.5,1-3.3,1.1-5.2c0.3-3.5-0.2-10.1-3.9-15.6
					c-2.7,5.9-3.2,9.4-2.5,15.4c0.2,1,0.5,2.5,0.9,4.1c1.2,4.3,1.4,8.9,0.5,13.3v0.1c0,0.1,0,0.2,0,0.3c0,0.2-0.1,0.3-0.2,0.4
					c-0.9,0.9-1.9,2-3,3c-0.3,0.3-0.9,0.2-0.9-0.3v-0.1c-0.4-2.8-0.3-5.6,0.5-8.3c0.4-1.5,0.8-3,1-4.1c0.5-5,0.1-7.8-2.1-12.8
					c-3,4.7-3.5,10.1-3.2,13c0.2,1.7,0.6,3.3,1.1,4.6c0.6,1.6,0.8,3.2,1,4.8c0.1,1.6,0.3,3.2,0.8,4.7c0,0.2,0,0.3-0.1,0.4
					c-1,1.1-2.1,2.3-3.1,3.5c-0.3,0.3-0.8,0.2-0.9-0.2V907c-0.8-2.5-1.1-5.2-0.8-7.8c0.2-1.6,0.3-3.3,0.3-4.4
					c-0.3-5-1.3-7.7-4.3-12.2c-2.2,5.2-1.7,10.6-0.9,13.4c0.4,1.6,1.2,3.1,1.9,4.4c0.8,1.4,1.4,3,1.9,4.6c0.3,1.3,0.8,2.5,1.2,3.7
					c0.1,0.2,0,0.3-0.1,0.5c-1.1,1.2-2.2,2.5-3.3,3.8c-0.3,0.3-0.8,0.3-1-0.2v-0.1c-0.7-2-0.9-4.1-0.8-6.3c0.2-1.5,0.3-3,0.2-4
					c-0.3-4.4-1.3-6.7-4-10.6c-1.9,4.6-1.3,9.3-0.5,11.7c0.4,1.4,1.1,2.7,1.8,3.8c0.7,1.2,1.3,2.5,1.6,3.8c0.3,1.1,0.7,2.1,1,3.1
					c0.1,0.2,0,0.4-0.1,0.5c-1.9,2.3-4,4.6-5.9,6.9c-0.3,0.3-0.9,0.3-1-0.3v-0.1c-0.4-2.2-0.3-4.5,0.2-6.7c0.3-1.4,0.7-2.9,0.8-3.8
					c0.3-4.4-0.3-6.8-2.4-11c-2.5,4.2-2.6,9-2.3,11.5c0.2,1.5,0.7,2.9,1.2,4.1c0.5,1.3,0.8,2.7,1,4.1c0.2,1.4,0.4,2.7,0.8,4
					c0.1,0.2,0,0.3-0.1,0.5c-1.3,1.5-2.5,3-3.7,4.5c-0.3,0.3-0.8,0.3-0.9-0.2v-0.1c-0.9-2.1-1.4-4.4-1.3-6.8
					c0.1-1.4,0.1-2.9-0.1-3.8c-0.6-4.3-1.6-6.6-4.6-10.3c-1.6,4.6-0.7,9.3,0.2,11.7c0.5,1.4,1.2,2.6,1.9,3.6c0.8,1.2,1.4,2.5,1.9,4
					c0.3,1.1,0.8,2.1,1.3,3.1c0.1,0.2,0.1,0.4-0.1,0.6c-20.5,24.8-40.2,51-40.6,51.4l1.8,1.4c0.3-0.4,25.2-33.4,47.9-60.2
					c0.1-0.1,0.3-0.2,0.4-0.2h0.1c3-0.1,5.9,0.4,8.6,1.7c1.2,0.5,2.3,1,3,1.3c4.2,1.1,6.7,1.1,11.2-0.2c-3.6-3.3-8.3-4.3-10.8-4.5
					c-1.4-0.1-2.7,0.1-3.9,0.3c-1.6,0.3-3.2,0.3-4.9,0.3c-0.5,0-0.9-0.1-1.4-0.1c-0.5,0-0.8-0.6-0.4-0.9c1.4-1.6,2.7-3.1,4.1-4.7
					c0.1-0.2,0.3-0.2,0.5-0.2h0.1c2.8,0.3,5.5,1.3,7.9,2.8c1.1,0.7,2.1,1.4,2.9,1.7c4.1,1.7,6.5,2,11.2,1.4c-3.1-3.7-7.6-5.5-10.1-6
					c-1.4-0.3-2.7-0.3-4-0.3c-1.6,0.1-3.1-0.1-4.7-0.4c-0.5-0.1-1.1-0.3-1.6-0.3c-0.4-0.1-0.7-0.6-0.3-0.9c1.7-1.9,3.3-3.7,4.9-5.5
					c0.1-0.2,0.3-0.2,0.4-0.2l0,0c3.4,0.3,6.7,1.4,9.6,3.3c1.2,0.8,2.5,1.5,3.3,1.9c4.6,1.9,7.4,2.4,12.8,1.6
					c-3.6-4.3-8.7-6.3-11.5-6.8c-1.5-0.3-3-0.3-4.4-0.3c-1.8,0.1-3.5-0.1-5.3-0.4c-0.8-0.2-1.6-0.3-2.4-0.4
					c-0.4-0.1-0.7-0.6-0.3-0.9c1.4-1.4,2.6-2.8,3.9-4.1C238.5,902.1,238.6,902,238.9,902.1z"/>
				<g>
					<path class="st20" d="M253,795.6c-3.1,5.7-5.6,12.2-4.5,18.5c1.6,9.1,10.1,16.6,9.2,25.8c-0.7,7-6.8,12.2-12.5,16.2
						s-12.2,8.2-14.5,14.9c-2.1,6.2-0.2,12.8,1.4,19.2c1.5,6.3,2.6,13.4-0.9,18.9c-3.5,5.5-10.5,7.4-15.7,11.3
						c-6.6,4.9-10.1,13-9.9,21.1c0.3,9-2.4,13.5-11,17.7c-3.7,1.8-5.5,6.2-6.3,10.2s-0.8,8.4-2.7,12.1c-2.6,5.4-9,8.6-15,7.8
						c-0.3-0.1-0.7-0.1-1-0.2c-0.2,0-0.3-0.1-0.5-0.1c-7.7-2.1-11.8-10.3-9.3-17.3c3-8.1,5.7-14.7,2.4-23.4
						c-2.4-6.2-7-11.7-7.3-18.3c-0.5-14.2,19.4-23.2,18.1-37.4c-0.9-9.5-11.3-16.3-11.1-25.8c0.2-6,4.7-10.9,9.5-14.5
						c4.8-3.5,10.3-6.4,14-11.1c8.4-10.4-0.8-22.8,0.8-34.2c2.5-17.4,26.4-11.7,35.1-23.1c4.7-6.1,3.6-14.9,6.9-21.8
						c3-6.4,9.9-10.7,17-10.8c14.5,0,21.6,14.5,17,27.1C260,784.6,256.1,789.9,253,795.6z"/>
					<path class="st27" d="M238.9,779.3c0.4-0.8,1.6-0.2,1.3,0.7c-8.2,16.5-23.2,45.8-35.4,75.4c-21.1,51.6-30.3,106.7-34.1,134
						c-0.3-0.1-0.7-0.1-1-0.2C173.1,898.9,219.4,812,238.9,779.3z"/>
					<path class="st27" d="M192.7,882.7c0,0,31.8-3,32-2c0.3,1-33.6,5.5-33.6,5.5L192.7,882.7z"/>
					<path class="st27" d="M181.4,921c0,0,25.8-4.9,26.2-4c0.3,0.9-27.5,7.6-27.5,7.6L181.4,921z"/>
					<path class="st27" d="M214.1,829.8c0,0,31.8-3,32-2c0.3,1-33.6,5.5-33.6,5.5L214.1,829.8z"/>
					<path class="st27" d="M215.7,827.2c0,0-9.3-30.5-10.3-30.4c-1,0.1,7.7,33.2,7.7,33.2L215.7,827.2z"/>
					<path class="st27" d="M196.1,875.5c0,0-9.3-30.5-10.3-30.4s7.7,33.2,7.7,33.2L196.1,875.5z"/>
					<path class="st31" d="M176.2,946.9c0,0-10.5-28-11.5-27.8c-1,0.1,10.4,32.5,10.4,32.5L176.2,946.9z"/>
				</g>
				<path class="st24" d="M174.4,832.7L174.4,832.7c-3.7-2.5-7.9-4.1-12.3-4.6c-1.9-0.3-3.7-0.5-4.9-0.8c-6.3-1.9-9.4-3.8-14.2-9
					c7.2-1.4,13.9,0.9,17.2,2.7c1.8,0.9,3.4,2.1,4.7,3.4c1.8,1.5,3.6,2.9,5.7,4c1,0.5,2,1.1,3,1.7c0.5,0.3,1.1-0.1,1.1-0.6
					c0-1.4,0-2.7-0.1-4.1l-0.1-0.1l-0.1-0.1c-4-4.3-9-7.5-14.5-9.5c-1.9-0.7-3.8-1.4-5-2c-6.8-3.8-10.1-6.9-14.4-14.3
					c8.8,0.3,16.1,4.7,19.6,7.7c1.9,1.5,3.3,3.4,4.6,5.1c1.7,2.4,3.7,4.5,6,6.4c0.8,0.7,1.7,1.4,2.5,2.2c0.5,0.5,1.3,0.1,1.3-0.6
					c-0.1-3.1-0.3-6.2-0.4-9.2c0-0.2-0.1-0.3-0.2-0.4c-0.1-0.1-0.1-0.2-0.2-0.2c-3.5-3.7-8-6.6-12.8-8.3c-1.9-0.7-3.7-1.4-4.9-1.9
					c-6.4-3.5-9.4-6.5-13.4-13.4c8.2,0.3,15,4.4,18.3,7.2c1.7,1.4,3.1,3.2,4.3,4.8c1.6,2.2,3.4,4.1,5.4,5.8c0.7,0.6,1.3,1.1,1.9,1.7
					c0.5,0.4,1.3,0.1,1.3-0.6c-0.2-3.2-0.3-6.3-0.6-9.3c0-0.2-0.1-0.3-0.2-0.4c-0.3-0.3-0.4-0.5-0.7-0.8c-3.5-3.5-7.8-6.3-12.5-7.9
					c-1.9-0.7-3.7-1.4-4.9-1.9c-6.4-3.5-9.4-6.5-13.4-13.3c8.2,0.3,15,4.4,18.3,7.1c1.7,1.4,3.1,3.2,4.3,4.8
					c1.6,2.2,3.4,4.1,5.4,5.8c0.7,0.6,1.4,1.2,1.9,1.8c0.5,0.4,1.3,0.1,1.3-0.6c-0.3-3.5-0.6-6.9-0.8-10.1c0-0.2-0.2-0.4-0.3-0.5
					c-1.8-1.1-3.5-2.3-5.2-3.6c-1.9-1.5-3.9-2.7-6-3.6c-1.9-0.8-3.8-1.9-5.7-3.3c-3.2-2.5-8.5-8.2-10.3-15.9
					c7.3,2.5,10.6,4.7,15.2,10.1c0.9,1.2,2.3,3.3,3.5,5.3c1.7,2.9,3.9,5.3,6.5,7.3c0.2,0.2,0.4,0.3,0.6,0.4c0.5,0.3,1.3-0.1,1.2-0.7
					c-0.6-5.9-1.1-11.1-1.6-15.4c0-0.2-0.1-0.3-0.3-0.4c-1.6-1.2-3.2-2.5-4.6-3.9c-1.4-1.4-3-2.5-4.8-3.5c-1.8-0.9-3.7-2.1-5.4-3.6
					c-2.8-2.5-7.4-8.3-8.5-15.6c6.6,2.8,9.6,5.2,13.5,10.5c0.8,1.3,2,3.5,3,5.6c1.2,2.5,2.9,4.7,5,6.6c0.2,0.1,0.3,0.3,0.4,0.3
					c0.5,0.4,1.3,0,1.3-0.7c-0.3-1.9-0.4-3.5-0.6-5c-0.3-2.9-0.9-5.7-1.7-8.5c-1.2-4.3-2.4-8.5-3.3-11.5c-2.2-7.7-3.3-10.2,1.1-22.9
					c6.3,6.7,8.9,15.8,7.2,26.2c-0.1,0.3-0.1,0.8-0.2,1.2c-0.8,5.6-0.8,11.2,0,16.8c0.2,1.3,0.3,2.8,0.6,4.4
					c0.1,0.8,1.1,0.9,1.4,0.3v-0.1c1.1-2.5,1.7-5.1,1.7-7.8c0-2.5,0.2-5,0.4-6.6c1.3-6.5,3-9.9,7.8-15.3c2,7.2,0.3,14.3-1.1,17.7
					c-0.9,2.1-2.1,4.1-3.4,5.7c-1.2,1.6-2.2,3.4-2.9,5.2c-0.8,2.3-1.9,4.5-3.2,6.5c0,0.1-0.1,0.1-0.1,0.1c0.4,3.7,0.8,7.9,1.4,12.7
					c0.1,0.7,1,0.9,1.4,0.3c0-0.1,0.1-0.1,0.1-0.2c1.4-2.2,2.5-4.7,3-7.4c0.5-2.5,1.1-5.2,1.6-6.8c2.6-6.6,5-9.8,11.1-14.5
					c0.8,7.9-2.3,15-4.5,18.4c-1.4,2.1-3,3.9-4.6,5.3c-1.5,1.4-2.8,3-3.9,4.7c-1,1.7-2.2,3.4-3.5,4.9c-0.1,0.1-0.2,0.3-0.2,0.4
					c0.3,3.5,0.6,7.4,0.9,11.3c0.1,0.7,0.8,0.9,1.3,0.4c0.2-0.2,0.3-0.3,0.5-0.5c2.2-2.6,3.9-5.7,4.9-9c0.8-2.4,1.5-4.7,2.2-6.2
					c3.4-6.5,6.3-9.6,12.9-13.8c-0.1,8.2-4,15.2-6.6,18.4c-1.6,1.9-3.5,3.5-5.2,4.9c-1.8,1.4-3.4,2.9-4.7,4.6
					c-1.4,1.9-3,3.6-4.6,5.2c-0.2,0.2-0.3,0.3-0.2,0.5c0.3,4.1,0.5,8.4,0.8,12.7c0,0.7,0.8,0.9,1.3,0.5l0.1-0.1
					c2.5-2.7,4.5-5.9,5.7-9.4c0.8-2.4,1.7-4.7,2.4-6.2c3.5-6.4,6.4-9.4,13.3-13.4c-0.3,8.2-4.4,15-7.1,18.3
					c-1.6,1.9-3.5,3.4-5.2,4.6c-1.9,1.4-3.5,2.9-5,4.6c-1.5,1.9-3.1,3.5-4.9,5.2c-0.2,0.2-0.3,0.3-0.3,0.5c0.2,3.5,0.3,6.9,0.4,10.5
					c0,0.1,0,0.2,0,0.3c0.9-1.4,1.9-2.7,3-4c1.9-2.3,3.5-4.7,4.7-7.4c0.9-1.9,2.1-4,3.5-5.8c2.9-3.5,9.2-9.2,17.8-11.1
					c-2.9,8-5.4,11.7-11.5,16.6c-1.1,0.8-2.8,1.9-4.6,2.9c-5.1,3-9.4,7-12.5,11.9c0,0,0,0.1-0.1,0.1c-0.1,0.1-0.1,0.2-0.2,0.3
					c-0.2,0.2-0.3,0.3-0.3,0.6c0,1.8,0,3.6,0,5.6c0,0.6,0.7,0.9,1.2,0.6l0.1-0.1c2.9-2.2,5.3-5,7-8.2c1-1.9,2-3.6,2.8-4.7
					c4-5.2,7-7.4,13.5-10c-1.4,7.2-6,12.6-8.8,15c-1.7,1.4-3.5,2.5-5.2,3.4c-1.9,0.9-3.7,2.2-5.3,3.6c-1.6,1.4-3.2,2.7-5,3.8
					c-0.2,0.1-0.3,0.3-0.3,0.5c0,1.9-0.1,4-0.2,6.1c0,0.6,0.6,0.9,1.1,0.7h0.1c3-1.6,5.7-3.8,7.9-6.6c1.4-1.7,2.7-3.4,3.6-4.3
					c4.8-4.4,8.1-6.1,15-7.5c-2.6,6.8-8,11.4-11.2,13.4c-1.9,1.1-3.9,1.9-5.7,2.5c-2.1,0.6-4.1,1.6-5.9,2.7c-1.4,0.9-3,1.7-4.6,2.5
					c-0.3,0.1-0.3,0.3-0.4,0.6c-0.1,2.1-0.2,4.3-0.3,6.5c0,0.6,0.6,0.9,1.1,0.7h0.1c2.5-1.3,4.6-3,6.3-5.2c1.2-1.5,2.5-3,3.5-3.9
					c4.3-3.7,7.3-5.2,13.3-6.3c-2.4,5.9-7.3,9.8-10.1,11.4c-1.7,0.9-3.5,1.6-5.2,2c-1.8,0.5-3.5,1.2-5,2.1c-1.3,0.8-2.5,1.4-3.8,1.9
					c-0.3,0.1-0.4,0.3-0.4,0.6c-0.3,3.9-0.5,7.9-0.8,11.9c-0.1,0.6,0.7,1,1.2,0.7h0.1c2.5-1.7,4.4-3.9,5.9-6.4
					c0.9-1.6,1.9-3.3,2.7-4.2c3.7-4.3,6.3-6.2,12.2-8.1c-1.5,6.2-5.7,10.8-8.3,12.8c-1.5,1.2-3.2,2.1-4.8,2.8
					c-1.7,0.8-3.2,1.8-4.6,2.9c-1.4,1.1-2.8,2.1-4.3,3c-0.2,0.1-0.3,0.3-0.3,0.5c-0.2,2.5-0.3,5.1-0.6,7.6c-0.1,0.6,0.5,0.9,1,0.8
					h0.1c2.8-1.2,5.2-3,7.3-5.2c1.3-1.4,2.6-2.7,3.5-3.5c4.5-3.5,7.5-4.6,13.6-5.4c-2.7,5.7-7.8,9.4-10.7,10.8
					c-1.7,0.8-3.5,1.4-5.2,1.7c-1.9,0.4-3.7,1.1-5.4,1.9c-1.4,0.7-2.7,1.3-4.1,1.8c-0.3,0.1-0.4,0.3-0.5,0.6
					c-3.4,41.6-8.6,84.1-8.7,84.8l-2.9-0.3c0.1-0.8,6.7-54,9.8-99.6c0-0.2-0.1-0.4-0.2-0.5l-0.1-0.1c-2.7-2.8-5.9-5-9.6-6.3
					c-1.5-0.6-3-1.2-4.1-1.6c-5-2.8-7.3-5.1-10.4-10.4c6.3,0.3,11.7,3.5,14.1,5.6c1.4,1.2,2.5,2.5,3.4,3.7c1.3,1.7,2.7,3.3,4.3,4.6
					c0.5,0.4,0.9,0.8,1.4,1.3c0.4,0.4,1.2,0.2,1.3-0.5c0.2-2.7,0.3-5.4,0.5-8c0-0.3-0.1-0.4-0.3-0.6l-0.1-0.1c-3-2.3-6.3-3.8-10-4.5
					c-1.6-0.3-3.2-0.7-4.2-1c-5.3-2-7.9-4-11.7-8.8c6.3-0.7,12.1,1.8,14.8,3.5c1.5,0.9,2.8,2.1,3.9,3.3c1.4,1.5,3,2.8,4.8,3.9
					c0.6,0.3,1.2,0.8,1.8,1.2c0.5,0.3,1.2,0,1.2-0.6c0.2-3.3,0.3-6.4,0.4-9.6c0-0.3-0.1-0.4-0.3-0.6l0,0c-3.5-2.7-7.5-4.6-11.9-5.6
					c-1.9-0.3-3.6-0.8-4.8-1.2c-6.1-2.4-9-4.6-13.4-10.1c7.3-0.8,13.8,2,17,4.1c1.7,1.1,3.2,2.5,4.4,3.7c1.6,1.7,3.5,3.2,5.4,4.4
					c0.8,0.5,1.8,1.1,2.6,1.8c0.5,0.3,1.2,0,1.2-0.6c0.1-2.5,0.1-5,0.1-7.4C174.7,833,174.7,832.8,174.4,832.7z"/>
				<path class="st7" d="M118,901.3L118,901.3c1.5-3,3.7-5.6,6.3-7.5c1.2-0.8,2.2-1.7,2.9-2.3c3.4-3.5,4.7-5.9,6-11.1
					c-5.2,1.8-8.8,5.7-10.2,8c-0.8,1.3-1.4,2.6-1.9,3.9c-0.6,1.6-1.4,3.2-2.3,4.6c-0.5,0.7-0.9,1.4-1.4,2.2c-0.2,0.3-0.8,0.3-0.9,0
					c-0.5-0.9-1-1.8-1.4-2.6v-0.1v-0.1c1-4.2,3.1-8.2,6-11.5c1-1.2,1.9-2.3,2.5-3.1c3.1-5,4.1-8.2,4.1-14.5c-5.7,3.4-8.8,9-10,12.2
					c-0.6,1.7-0.9,3.4-1.2,5c-0.3,2.2-0.8,4.3-1.5,6.3c-0.3,0.8-0.6,1.5-0.8,2.3c-0.2,0.5-0.8,0.5-1,0.1c-1.1-2.1-2.1-4.1-3.1-6.2
					c-0.1-0.1-0.1-0.3,0-0.3c0-0.1,0-0.2,0.1-0.2c0.9-3.7,2.8-7.2,5.4-10.1c1-1.1,1.9-2.3,2.5-3c2.9-4.6,3.7-7.7,3.9-13.6
					c-5.2,3.2-8.2,8.4-9.3,11.3c-0.6,1.6-0.9,3.2-1.1,4.7c-0.3,1.9-0.7,4-1.4,5.8c-0.3,0.6-0.4,1.2-0.7,1.9c-0.2,0.5-0.8,0.5-1,0.1
					c-1-2.1-2-4.2-3-6.3c-0.1-0.1-0.1-0.3,0-0.3c0.1-0.3,0.1-0.5,0.2-0.8c0.9-3.6,2.8-6.9,5.2-9.7c1-1.1,1.9-2.3,2.5-3
					c2.9-4.6,3.8-7.7,3.9-13.6c-5.2,3.2-8.2,8.4-9.3,11.3c-0.6,1.6-0.9,3.2-1.1,4.7c-0.3,1.9-0.7,3.9-1.4,5.7
					c-0.3,0.6-0.4,1.3-0.7,1.9c-0.2,0.5-0.8,0.5-1,0.1c-1.1-2.4-2.2-4.7-3.1-6.9c-0.1-0.2-0.1-0.3,0-0.4c0.8-1.4,1.4-2.8,2-4.2
					c0.7-1.6,1.5-3.1,2.6-4.6c0.9-1.2,1.8-2.6,2.5-4.2c1.2-2.8,2.5-8.5,0.9-14.1c-3.8,4.2-5.2,6.9-6.3,12.2c-0.2,1.2-0.3,3-0.3,4.7
					c-0.1,2.5-0.6,4.9-1.6,7.2c-0.1,0.2-0.2,0.3-0.3,0.5c-0.2,0.4-0.8,0.4-1,0c-1.8-4.1-3.3-7.7-4.6-10.6c-0.1-0.1-0.1-0.3,0-0.3
					c0.7-1.4,1.2-2.8,1.7-4.2c0.4-1.4,1.1-2.8,1.9-4.1c0.8-1.3,1.7-2.7,2.2-4.4c0.9-2.7,1.8-8-0.1-13.3c-3.3,4.2-4.4,6.8-5,11.8
					c-0.1,1.1-0.1,3,0.1,4.7c0.1,2.1-0.2,4.1-0.8,6.1c-0.1,0.2-0.1,0.3-0.2,0.4c-0.2,0.5-0.8,0.5-1,0c-0.5-1.4-1-2.5-1.4-3.5
					c-0.8-2-1.4-4.1-1.9-6.1c-0.8-3.2-1.5-6.4-2.1-8.7c-1.4-5.8-1.6-7.9-9-14.5c-1.6,6.7,0,13.5,4.9,19.7c0.2,0.3,0.3,0.4,0.5,0.7
					c2.5,3.4,4.6,7,6.2,11c0.3,0.9,0.8,1.9,1.3,3c0.3,0.5-0.4,1-0.8,0.7h-0.1c-1.6-1.2-3-2.7-4-4.5c-0.9-1.6-1.9-3.2-2.6-4.1
					c-3.2-3.8-5.6-5.4-10.6-7.1c1.3,5.4,5,9.5,7.2,11.2c1.4,1.1,2.9,1.9,4.2,2.5s2.6,1.4,3.8,2.4c1.4,1.2,2.9,2.2,4.5,3
					c0,0,0.1,0,0.1,0.1c1.1,2.6,2.4,5.5,3.8,8.8c0.3,0.5-0.3,0.9-0.8,0.8c-0.1,0-0.1-0.1-0.2-0.1c-1.8-0.9-3.3-2.2-4.6-3.7
					c-1.3-1.5-2.6-3-3.5-3.9c-4.1-3.4-6.8-4.6-12.5-5.5c2.4,5.4,6.9,9,9.6,10.4c1.7,0.8,3.4,1.4,5,1.8c1.5,0.3,3,0.9,4.3,1.7
					s2.7,1.4,4.1,1.9c0.1,0.1,0.2,0.2,0.3,0.3c1.1,2.5,2.3,5.1,3.5,7.8c0.2,0.4-0.3,0.9-0.7,0.8c-0.2-0.1-0.3-0.1-0.5-0.2
					c-2.4-0.8-4.6-2.3-6.4-4.1c-1.4-1.3-2.8-2.5-3.7-3.2c-4.6-3-7.5-4-13.4-4.2c3,5.3,8.1,8.5,11.1,9.6c1.8,0.7,3.5,1.1,5.2,1.3
					c1.7,0.3,3.3,0.7,4.8,1.4c1.6,0.7,3.3,1.3,5,1.7c0.2,0,0.3,0.2,0.3,0.3c1.3,2.8,2.7,5.7,4.1,8.5c0.3,0.4-0.2,0.9-0.7,0.8h-0.1
					c-2.6-0.8-5.1-2.2-7.1-4.1c-1.4-1.3-2.8-2.5-3.8-3.1c-4.6-2.9-7.6-3.8-13.6-3.9c3.2,5.2,8.4,8.2,11.3,9.3
					c1.7,0.7,3.5,0.9,5.2,1.1c1.7,0.2,3.4,0.6,5,1.3c1.7,0.7,3.4,1.2,5.1,1.6c0.2,0,0.3,0.2,0.3,0.3c1.2,2.3,2.4,4.6,3.5,7
					c0,0.1,0.1,0.1,0.1,0.2c-1.1-0.6-2.2-1.1-3.4-1.5c-2-0.8-4-1.9-5.7-3.1c-1.3-0.9-2.8-1.9-4.5-2.5c-3.1-1.3-9.4-2.6-15.7-0.8
					c4.8,4.1,7.8,5.7,13.6,6.7c1,0.2,2.5,0.2,4.1,0.3c4.4,0.1,8.7,1.2,12.5,3.2h0.1c0.1,0,0.2,0.1,0.3,0.1c0.2,0,0.3,0.2,0.3,0.3
					c0.7,1.2,1.4,2.4,2,3.6c0.3,0.4-0.1,0.8-0.6,0.8h-0.1c-2.7-0.3-5.2-1.4-7.6-2.8c-1.3-0.8-2.6-1.6-3.5-2
					c-4.5-1.9-7.3-2.3-12.5-1.5c3.5,4.1,8.5,6.1,11.2,6.6c1.6,0.3,3.2,0.3,4.6,0.3c1.6-0.1,3.2,0.1,4.8,0.4c1.5,0.3,3.1,0.6,4.6,0.7
					c0.2,0,0.3,0.1,0.3,0.3c0.8,1.3,1.5,2.5,2.4,3.9c0.3,0.3,0,0.8-0.4,0.8h-0.1c-2.5,0.1-5.2-0.4-7.5-1.4c-1.4-0.6-3-1.2-4-1.5
					c-4.7-1.1-7.5-1-12.6,0.6c4.2,3.5,9.4,4.6,12.2,4.6c1.6,0.1,3.2-0.2,4.6-0.5c1.6-0.3,3.2-0.4,4.8-0.4c1.3,0.1,2.6,0,3.8-0.1
					c0.2,0,0.3,0.1,0.4,0.3c0.8,1.4,1.7,2.8,2.6,4.1c0.3,0.3,0,0.8-0.4,0.8h-0.1c-2,0.1-4.1-0.3-6-1c-1.4-0.5-2.8-1-3.6-1.3
					c-4.1-0.8-6.6-0.7-11,0.8c3.7,3,8.3,3.7,10.7,3.8c1.4,0,2.9-0.3,4.1-0.6c1.4-0.3,2.7-0.4,4.1-0.4c1.1,0,2.1,0,3.2-0.1
					c0.2,0,0.3,0.1,0.5,0.3c1.5,2.5,3.2,5,4.8,7.5c0.3,0.4-0.1,0.9-0.5,0.8h-0.1c-2.2-0.3-4.3-0.9-6.3-2c-1.2-0.7-2.5-1.4-3.3-1.8
					c-4-1.5-6.4-1.7-10.9-0.8c3.2,3.5,7.6,5,10.1,5.3c1.4,0.3,2.9,0.2,4.1,0.1c1.4-0.2,2.7,0,4.1,0.2c1.3,0.3,2.6,0.3,3.9,0.4
					c0.2,0,0.3,0.1,0.4,0.3c1,1.6,2.1,3.1,3.1,4.7c0.3,0.3,0,0.8-0.4,0.8h-0.1c-2.2,0.3-4.5,0-6.6-0.7c-1.4-0.4-2.7-0.8-3.5-1
					c-4.2-0.6-6.6-0.3-10.9,1.4c3.9,2.8,8.5,3.3,10.9,3.1c1.4-0.1,2.8-0.4,4-0.8c1.4-0.4,2.8-0.7,4.2-0.7c1.1-0.1,2.2-0.2,3.3-0.3
					c0.2,0,0.4,0.1,0.5,0.3c17.4,25.9,36.3,51.7,36.6,52.1l1.8-1.3c-0.3-0.4-24.1-32.8-42.8-61.4c-0.1-0.1-0.1-0.3-0.1-0.4v-0.1
					c0.8-2.8,2-5.4,4-7.6c0.8-0.9,1.6-1.9,2-2.5c2.2-3.6,2.9-5.9,3-10.6c-4.1,2.5-6.3,6.5-7.2,8.8c-0.4,1.3-0.7,2.5-0.8,3.6
					c-0.2,1.6-0.6,3.1-1.1,4.6c-0.2,0.4-0.3,0.8-0.4,1.4c-0.2,0.4-0.8,0.5-1,0.2c-1.1-1.7-2.2-3.4-3.3-5.1c-0.1-0.2-0.1-0.3,0-0.5
					v-0.1c1.1-2.5,2.8-4.8,4.8-6.6c0.9-0.8,1.9-1.6,2.4-2.2c2.7-3.3,3.7-5.5,4.5-10.1c-4.4,1.9-7.2,5.6-8.4,7.7
					c-0.7,1.2-1,2.5-1.4,3.5c-0.4,1.5-0.9,3-1.7,4.2c-0.3,0.4-0.5,0.9-0.7,1.4c-0.2,0.4-0.8,0.4-1,0.1c-1.3-2.1-2.5-4.1-3.7-6.1
					c-0.1-0.2-0.1-0.3,0-0.5l0,0c1.3-3,3.2-5.8,5.7-7.9c1.1-0.9,2.1-1.9,2.7-2.5c3.1-3.7,4.2-6.3,5.1-11.5c-5,2.2-8.3,6.3-9.6,8.9
					c-0.7,1.4-1.2,2.7-1.5,4.1c-0.4,1.7-1.1,3.3-1.9,4.8c-0.3,0.7-0.8,1.4-1,2.1c-0.2,0.4-0.8,0.4-1,0.1c-0.9-1.6-1.9-3.2-2.8-4.7
					C117.9,901.6,117.9,901.5,118,901.3z"/>
				<g>
					<path class="st27" d="M108.5,827.7c2.4,4.7,4.1,10.1,2.9,15.2c-1.6,7.4-8.9,13-8.5,20.5c0.3,5.7,5,10.1,9.6,13.6
						c4.6,3.5,9.6,7.1,11.2,12.6c1.5,5.1-0.3,10.4-1.9,15.5c-1.5,5.1-2.6,10.8,0,15.4c2.6,4.6,8.2,6.4,12.3,9.8
						c5.2,4.2,7.7,11,7.2,17.5c-0.5,7.3,1.4,11.1,8.3,14.8c3,1.6,4.2,5.2,4.6,8.5c0.4,3.3,0.3,6.8,1.7,9.9c1.9,4.5,7,7.4,11.8,6.8
						c0.3,0,0.5-0.1,0.8-0.1c0.2,0,0.3-0.1,0.4-0.1c6.3-1.4,10.1-7.9,8.2-13.7c-2-6.7-4-12.1-1-19.1c2.1-4.9,6.1-9.2,6.6-14.5
						c0.9-11.5-14.9-19.6-13.2-31c1.1-7.6,9.8-12.8,10-20.5c0.1-4.8-3.4-9-7.2-12.1c-3.7-3-8.1-5.6-11-9.5
						c-6.4-8.8,1.6-18.5,0.8-27.8c-1.4-14.2-20.9-10.5-27.6-20c-3.5-5.2-2.4-12.2-4.8-18c-2.2-5.3-7.6-9.1-13.4-9.4
						c-11.8-0.6-18.1,11-14.8,21.3C103.2,818.6,106.1,823,108.5,827.7z"/>
					<path class="st32" d="M120.6,815c-0.3-0.7-1.4-0.2-1,0.5c6,13.7,17.1,38,25.8,62.5c15.2,42.6,20.5,87.6,22.5,110
						c0.3,0,0.5-0.1,0.8-0.1C169.2,914.6,135,842.2,120.6,815z"/>
					<path class="st32" d="M154,900.6c0,0-25.6-3.6-25.9-2.9c-0.3,0.8,27,5.7,27,5.7L154,900.6z"/>
					<path class="st32" d="M161.6,932.2c0,0-20.7-5-21-4.2s22,7.2,22,7.2L161.6,932.2z"/>
					<path class="st32" d="M138.7,856.9c0,0-25.6-3.6-25.9-2.9c-0.3,0.8,27,5.7,27,5.7L138.7,856.9z"/>
					<path class="st32" d="M137.5,854.7c0,0,8.7-24.4,9.5-24.3c0.8,0.2-7.5,26.6-7.5,26.6L137.5,854.7z"/>
					<path class="st32" d="M151.5,894.7c0,0,8.7-24.4,9.5-24.3c0.8,0.2-7.5,26.6-7.5,26.6L151.5,894.7z"/>
					<path class="st32" d="M164.9,953.3c0,0,9.6-22.2,10.4-22.1c0.8,0.2-9.6,25.9-9.6,25.9L164.9,953.3z"/>
				</g>
			</g>
		</g>
		<g>
			<polygon class="st11" points="114.9,943.9 127.2,1066.7 213.7,1066.7 226,943.9 			"/>
			<polygon class="st4" points="114.9,943.9 127.2,1066.7 172.6,1066.7 175,943.9 			"/>
			<polygon class="st33" points="202.9,1066.7 213.7,1066.7 226,943.9 209.6,943.9 			"/>
		</g>
	</g>
	<g>
		<path class="st7" d="M190.6,1005.4c3.2,7.6,5.7,14.6,4.5,23.1h90.3c1,0,3.2,0.3,3.7-0.7c0.6-1-1.1-3.6-1.2-4.7
			c-0.3-2.6,0.9-5.7,1.4-8.2c0.8-3.5,1.4-7.5-0.4-10.7c-2.1-3.7-7.1-5.1-9.1-8.9c-2.6-5,1.3-11,1.1-16.6c-0.2-4.3-3-8.4-6.9-10.1
			c-4-1.7-8.9-0.9-12.1,1.9c-1.7,1.5-3,3.6-5.2,4.4c-2.5,0.8-5.2-0.4-7.1-2c-1.9-1.7-3.5-3.8-5.6-5.3c-2.1-1.5-5-2.4-7.3-1.1
			c-3.6,2.2-3,8.4-6.6,10.6c-2.4,1.5-5.6,0.5-8.2-0.5c-2.6-1.1-5.7-2.2-8.2-0.9c-2.4,1.2-3.4,4.1-3.9,6.6c-0.5,2.6-0.9,5.4-2.8,7.4
			c-2.2,2.3-5.7,2.5-9,2.8c-2.9,0.3-6,0.8-7.8,3c-0.3,0.3-0.4,0.5-0.6,0.8C188.2,998.9,189.4,1002.5,190.6,1005.4z"/>
		<path class="st24" d="M215.1,1009c1.4,6.4,2,12.9,1.8,19.5h61c0.6-6.2,1.2-12.3,1.8-18.4c0.2-2.2,0.3-4.6-1.1-6.3
			c-2-2.2-5.7-1.5-8.3-3c-1.9-1.2-3-3.4-3.5-5.6c-0.7-2.1-1.1-4.4-2.4-6.3c-1.3-1.9-3.7-3.1-5.8-2.3c-2.5,1-3,4.3-5.2,5.7
			c-2.7,1.7-6.2,0-8.8-1.7c-2.7-1.7-6.1-3.5-8.8-1.8c-3.2,1.9-2.8,7.3-5.9,9.3c-3.7,2.4-9.2-1.9-12.9,0.5c-1.6,1-2.4,3-2.5,4.8
			C214.2,1005.3,214.7,1007.1,215.1,1009z"/>
		<polygon class="st11" points="192.2,1011.3 192.2,1066.7 295.5,1066.7 297,1011.3 		"/>
		<rect x="190" y="1011.1" class="st4" width="52.9" height="55.5"/>
	</g>
	<g>
		<path class="st25" d="M434.7,781.6h154.5c1.9,0,3.5-1.6,3.5-3.5V674.7c0-1.9-1.6-3.5-3.5-3.5H434.7c-1.9,0-3.5,1.6-3.5,3.5V778
			C431.1,780,432.7,781.6,434.7,781.6z"/>
		<path class="st3" d="M438.9,781.6h154.5c1.9,0,3.5-1.6,3.5-3.5V674.7c0-1.9-1.6-3.5-3.5-3.5H438.9c-1.9,0-3.5,1.6-3.5,3.5V778
			C435.4,780,437,781.6,438.9,781.6z"/>
		<path class="st2" d="M499.4,726.3h33.8c0.7,0,1.2-0.5,1.2-1.2l0,0c0-0.7-0.5-1.2-1.2-1.2h-33.8c-0.7,0-1.2,0.5-1.2,1.2l0,0
			C498.2,725.7,498.7,726.3,499.4,726.3z"/>
		<path class="st2" d="M499.4,733.2h33.8c0.7,0,1.2-0.5,1.2-1.2l0,0c0-0.7-0.5-1.2-1.2-1.2h-33.8c-0.7,0-1.2,0.5-1.2,1.2l0,0
			C498.2,732.7,498.7,733.2,499.4,733.2z"/>
		<path class="st2" d="M499.4,712h33.8c0.7,0,1.2-0.5,1.2-1.2l0,0c0-0.7-0.5-1.2-1.2-1.2h-33.8c-0.7,0-1.2,0.5-1.2,1.2l0,0
			C498.2,711.5,498.7,712,499.4,712z"/>
		<path class="st2" d="M499.4,719h33.8c0.7,0,1.2-0.5,1.2-1.2l0,0c0-0.7-0.5-1.2-1.2-1.2h-33.8c-0.7,0-1.2,0.5-1.2,1.2l0,0
			C498.2,718.4,498.7,719,499.4,719z"/>
		<path class="st2" d="M536.5,751.2L536.5,751.2c0-2.1-1.7-3.8-3.8-3.8h-28.3c-2.1,0-3.8,1.7-3.8,3.8l0,0c0,2.1,1.7,3.8,3.8,3.8
			h28.3C534.8,754.9,536.5,753.3,536.5,751.2z"/>
		<path class="st25" d="M484.2,802.6v5.7c0,0,10,0,23.4,0h34.7c1.6-18.5-6.7-46.6-9.8-56h-27.5c5.4,28.8,0.1,50.4,0.1,50.4
			L484.2,802.6L484.2,802.6z M517.4,779.5c0-5.4,2.9-9.9,6.3-9.9c3.5,0,6.3,4.4,6.3,9.9c0,5.4-2.9,9.9-6.3,9.9
			C520.2,789.4,517.4,785,517.4,779.5z"/>
		<path class="st2" d="M484.2,802.6v5.7c0,0,10,0,23.4,0c7.4-16,2.4-48.3,0.8-56H505c5.4,28.8,0.1,50.4,0.1,50.4L484.2,802.6
			L484.2,802.6z"/>
	</g>
</g>
<g>
	<rect x="1181.6" y="336" class="st34" width="216.5" height="123"/>
	<path class="st35" d="M1221,379.5h-19.1c0.8,1.7,2.3,2.5,4.3,2.5c1.5,0,2.8-0.6,3.7-1.7l10.8,1.7c-1.3,2.7-3.2,4.8-5.8,6.4
		s-5.7,2.4-9,2.4c-4.7,0-8.7-1.4-11.7-4.4c-3.1-3-4.6-6.6-4.6-10.9c0-4.3,1.5-7.9,4.6-10.8c3.1-3,6.9-4.4,11.4-4.4s8.3,1.4,11.3,4.4
		c3.1,3,4.6,6.6,4.6,10.8C1221.6,376.8,1221.4,378.1,1221,379.5z M1201.9,371.6h8c-0.8-1.7-2.1-2.5-4.1-2.5
		C1204.1,368.9,1202.8,369.8,1201.9,371.6z"/>
	<path class="st35" d="M1222.7,375.4c0-4.4,1.3-8,3.8-10.8c2.6-3,5.7-4.4,9.4-4.4c2.5,0,4.6,0.7,6.6,1.9v-26.1h11.3v54.3h-11.3v-1.4
		c-1.9,1.3-4.1,1.9-6.6,1.9c-3.7,0-6.8-1.4-9.4-4.3C1223.9,383.6,1222.7,379.9,1222.7,375.4z M1234.7,375.4c0,1.3,0.4,2.3,1.1,3.1
		c0.8,0.8,1.6,1.3,2.7,1.3c1.1,0,2-0.4,2.8-1.3c0.8-0.8,1.1-1.9,1.1-3.1c0-1.1-0.4-2.1-1.2-3c-0.8-0.8-1.7-1.3-2.7-1.3
		c-1,0-1.9,0.4-2.7,1.3C1235,373.2,1234.7,374.3,1234.7,375.4z"/>
	<path class="st35" d="M1256.1,379.9v-19.1h11.3v16.4c-0.1,1.4,0.3,2.4,1.4,3c1,0.6,2,0.6,3,0c1-0.6,1.4-1.5,1.4-3v-16.4h11.4v29.5
		h-11.4v-1.9c-1.9,1.7-4,2.5-6.5,2.5c-2.8,0-5.3-1-7.4-3.2C1257.1,385.6,1256.1,383,1256.1,379.9z"/>
	<path class="st36" d="M1301.5,375.2v15.1h-13.3v-50.5h23.2c5.3,0,9.8,1.7,13.5,5.1c3.7,3.4,5.5,7.5,5.5,12.6c0,5-1.9,9.2-5.5,12.7
		c-3.7,3.4-8.2,5.1-13.5,5.1L1301.5,375.2L1301.5,375.2z M1311.5,352.1h-9.9v10.8h9.9c1.5,0,2.8-0.5,3.7-1.5s1.4-2.4,1.4-4
		c0-1.5-0.5-2.8-1.4-3.8C1314.2,352.6,1313,352.1,1311.5,352.1z"/>
	<path class="st36" d="M1342.2,392.1l0.3-1l-10.8-30.3h11.7l4.2,14l4.5-14h11.7l-12.5,35.1c-2.9,7.9-8.4,11.8-16.3,11.8h-0.8v-10.8
		h0.8C1338.9,396.9,1341.2,395.2,1342.2,392.1z"/>
</g>
</svg>
