<?xml version="1.0" encoding="utf-8"?>
<!-- Generator: Adobe Illustrator 20.1.0, SVG Export Plug-In . SVG Version: 6.00 Build 0)  -->
<svg version="1.1" id="Слой_1" xmlns="http://www.w3.org/2000/svg" xmlns:xlink="http://www.w3.org/1999/xlink" x="0px" y="0px"
	 viewBox="0 0 800 600" style="enable-background:new 0 0 800 600;" xml:space="preserve">
<style type="text/css">
	.st0{fill:#062C3F;}
	.st1{fill:#4396CA;}
	.st2{fill:#3287B2;}
	.st3{clip-path:url(#SVGID_2_);}
	.st4{fill:#1958DB;}
	.st5{fill:#FF645F;}
	.st6{fill:#F79792;}
	.st7{fill:#FCA89E;}
	.st8{fill:#FDA8A1;}
	.st9{fill:#CDEEFC;}
	.st10{fill:#E6F9FF;}
	.st11{opacity:0.19;}
	.st12{fill:#FFFFFF;}
	.st13{fill:#FFB9B6;}
</style>
<g>
	<g>
		<g>
			<path class="st0" d="M390.5,473.4h-165c-20.6,0-37.2-17.4-37.2-38.8V67.4c0-21.5,16.7-38.8,37.2-38.8h165
				c20.6,0,37.2,17.4,37.2,38.8v367.1C427.7,456,411.1,473.4,390.5,473.4z"/>
		</g>
	</g>
	<g>
		<g>
			<path class="st1" d="M368.6,438.3H246.5c-21.3,0-38.6-15.2-38.6-33.9V84.3c0-18.7,17.3-33.9,38.6-33.9h122.1
				c21.3,0,38.6,15.2,38.6,33.9v320.1C407.2,423.1,389.9,438.3,368.6,438.3z"/>
		</g>
	</g>
	<g>
		<g>
			<path class="st2" d="M346.7,454.2c0,4.1-3.3,7.4-7.4,7.4h-54.4c-4.1,0-7.4-3.3-7.4-7.4l0,0c0-4.1,3.3-7.4,7.4-7.4h54.4
				C343.4,446.8,346.7,450.1,346.7,454.2L346.7,454.2z"/>
		</g>
	</g>
	<g>
		<defs>
			<path id="SVGID_1_" d="M368.6,438.3H246.5c-21.3,0-38.6-15.2-38.6-33.9V84.3c0-18.7,17.3-33.9,38.6-33.9h122.1
				c21.3,0,38.6,15.2,38.6,33.9v320.1C407.2,423.1,389.9,438.3,368.6,438.3z"/>
		</defs>
		<clipPath id="SVGID_2_">
			<use xlink:href="#SVGID_1_"  style="overflow:visible;"/>
		</clipPath>
		<g class="st3">
			<g>
				<g>
					<path class="st4" d="M358.9,446.6H254.2c-35.5,0-64.3-28.8-64.3-64.3v-94.7c0-35.5,28.8-64.3,64.3-64.3h104.7
						c35.5,0,64.3,28.8,64.3,64.3v94.7C423.2,417.8,394.4,446.6,358.9,446.6z"/>
				</g>
			</g>
			<g>
				<g>
					<path class="st5" d="M306,73.4c-5.6-2.1-27.7-13.9-46.7-5.6c-19,8.2-19.5,18.5-20,30.8c-0.5,12.3-15.4,20-22.1,35.9
						c-6.7,15.9-3.1,38.5,11.8,52.9c14.9,14.4,12.3,30.3,12.3,43.1c0,12.8,33.6,26.4,36.6-6.3c3-32.7,7.6-64,8.6-72.2
						c0.6-4.5,30.8-32.5,35.9-52.4C326.7,82.9,306,73.4,306,73.4z"/>
				</g>
			</g>
			<g>
				<g>
					<path class="st5" d="M306,73.4c5.6-2.1,29.1-13.9,48.1-5.6c19,8.2,19.5,18.5,20,30.8c0.5,12.3,15.4,20,22.1,35.9
						c6.7,15.9,3.1,38.5-11.8,52.9c-14.9,14.4-12.3,30.3-12.3,43.1c0,12.8-33.6,26.4-36.6-6.3c-3-32.7-12.1-64.5-13.1-72.8
						C321.4,143.2,306,73.4,306,73.4z"/>
				</g>
			</g>
			<g>
				<g>
					<path class="st6" d="M278.4,193.2l-0.5,31c0,0,1.5,20.4,29.6,20.1c28.1-0.3,28-20.1,28-20.1l-4.5-36.5L278.4,193.2z"/>
				</g>
			</g>
			<g>
				<g>
					<g>
						<path class="st7" d="M285.8,203c26.8,21.4,44.7,6.3,63.1-22.7c21.8-34.4,22-68.5-4.8-89.9c-26.8-21.4-65.9-17.1-87.4,9.7
							C235.2,127,259,181.6,285.8,203z"/>
					</g>
				</g>
			</g>
			<g>
				<g>
					<path class="st5" d="M244.4,147.4c1.6,2.3,21.3-6.9,37.5-23.1c19.5-19.5,22.6-34.4,24.6-34.4c2.1,0,8,17.1,18,30.3
						c14.4,19,44.7,28.7,44.7,28.7s6.7-15.9-2.1-33.4c-8.7-17.5-28.2-37.5-43.6-39.5c-15.4-2.1-23.6-1.5-35.9-1
						c-12.3,0.5-43.6,22.1-46.7,34.9C237.7,122.7,244.4,147.4,244.4,147.4z"/>
				</g>
			</g>
		</g>
	</g>
	<g>
		<g>
			<g>
				<path class="st8" d="M146.3,507.4c-11.2-23.6-26.4-156.3-14.5-178.9c4.8-9.2,44.3-93.3,55.2-93.3c6.6,0-3.8,102,6.6,99.8
					c6.2-1.3,2.3-67.5,9.5-83.9c11.3-25.3,39.9-28.1,41.8,15.4c1.2,27.8-9.7,118.4-10.6,128.9C229,456,229.5,505,229.5,505
					L146.3,507.4z"/>
			</g>
		</g>
		<g>
			<g>
				<circle class="st6" cx="223.9" cy="258.2" r="13"/>
			</g>
		</g>
		<g>
			<g>
				<path class="st9" d="M144.5,503.7h85v77c0,4.8-3.9,8.7-8.7,8.7h-67.7c-4.8,0-8.7-3.9-8.7-8.7V503.7z"/>
			</g>
		</g>
		<g>
			<g>
				<path class="st10" d="M142,491.3h87.5V531H142c-5.8,0-10.6-4.7-10.6-10.5v-18.6C131.4,496,136.1,491.3,142,491.3z"/>
			</g>
		</g>
	</g>
	<g class="st11">
		<g>
			<path class="st12" d="M360.9,210.6c0,6.2-5.1,11.3-11.3,11.3l0,0c-6.2,0-11.3-5.1-11.3-11.3V81.9c0-6.2,5.1-11.3,11.3-11.3l0,0
				c6.2,0,11.3,5.1,11.3,11.3V210.6z"/>
		</g>
	</g>
	<g class="st11">
		<g>
			<path class="st12" d="M395.9,128.2c0,6.2-5.1,11.3-11.3,11.3l0,0c-6.2,0-11.3-5.1-11.3-11.3V81.9c0-6.2,5.1-11.3,11.3-11.3l0,0
				c6.2,0,11.3,5.1,11.3,11.3V128.2z"/>
		</g>
	</g>
	<g>
		<g>
			<path class="st8" d="M636.1,494.9c-1.8-16.3,10.9-151.3,10.9-169.5c0-18.2-37.5-124.1-33.9-154.9c3.6-30.9-25.4-30.9-36.3-3.6
				c-10.9,27.2-7.3,89-7.3,103.5c0,14.5-121-18.8-125.9,53.9c-2.2,32.3-1.4,100,9.7,129.5c3.6,9.7,12.2,8.6,25.4,19.4
				c26.6,21.8,43.6,44.8,43.6,44.8L636.1,494.9z"/>
		</g>
	</g>
	<g>
		<g>
			<path class="st9" d="M144.5,503.7h85v77c0,4.8-3.9,8.7-8.7,8.7h-67.7c-4.8,0-8.7-3.9-8.7-8.7V503.7z"/>
		</g>
	</g>
	<g>
		<g>
			<path class="st10" d="M142,491.3h87.5V531H142c-5.8,0-10.6-4.7-10.6-10.5v-18.6C131.4,496,136.1,491.3,142,491.3z"/>
		</g>
	</g>
	<g>
		<g>
			<path class="st9" d="M644.5,504.6l-105.3,13.3l11.6,62.9c0,4.8,4.8,8.7,10.6,8.7h95.5c5.9,0,10.6-3.9,10.6-8.7L644.5,504.6z"/>
		</g>
	</g>
	<g>
		<g>
			<path class="st10" d="M634.9,463.7l-121.9,45.6l14.7,39.3l121.9-45.6c8.1-3,13-10.2,10.8-15.9l-6.9-18.4
				C651.3,462.9,643,460.7,634.9,463.7z"/>
		</g>
	</g>
	<g>
		<g>
			<path class="st13" d="M510.2,275.8c-33.8-2-66.4,6.9-66.5,22.8c-0.1,25.6,48.3,18.3,62.8,18.3c14.5,0,62.9,7.3,60.5-20.6
				C564.6,268.5,530.8,277,510.2,275.8z"/>
		</g>
	</g>
	<g>
		<g>
			<path class="st13" d="M516.9,325.4c-40.6-2-76.9-3.6-79.3,20.4c-2.5,26,57.4,20.8,74.9,20.8c17.4,0,75.6,7.3,72.7-20.6
				C582.3,318.2,541.6,326.6,516.9,325.4z"/>
		</g>
	</g>
	<g>
		<g>
			<path class="st13" d="M514.7,378.7c-38.4-2-70.5,4.7-73.4,20.4c-6.1,32.7,52.8,20.8,69.3,20.8c16.5,0,71.4,7.3,68.6-20.6
				C576.4,371.4,538,379.9,514.7,378.7z"/>
		</g>
	</g>
	<g>
		<g>
			<path class="st13" d="M512.3,435.6c-29-1.7-67.3-7.1-63.8,16.8c2,13.5,48.3,18.5,60.7,18.5c12.4,0,53.9,6.2,51.8-17.6
				C559,429.3,529.9,436.6,512.3,435.6z"/>
		</g>
	</g>
	<g>
		<g>
			<circle class="st6" cx="543.5" cy="294.5" r="13"/>
		</g>
	</g>
	<g>
		<g>
			<circle class="st6" cx="558.6" cy="347.2" r="13"/>
		</g>
	</g>
	<g>
		<g>
			<circle class="st6" cx="551.3" cy="402.9" r="13"/>
		</g>
	</g>
	<g>
		<g>
			<circle class="st6" cx="540.4" cy="452.5" r="13"/>
		</g>
	</g>
	<g>
		<g>
			<ellipse class="st6" cx="602.6" cy="172.9" rx="11.1" ry="13"/>
		</g>
	</g>
	<g>
		<g>
			<polygon class="st12" points="297.6,135.9 342.1,161.6 297.6,187.3 			"/>
		</g>
	</g>
	<g>
		<g>
			<path class="st12" d="M296.9,288.4v37.1h-11.4v-14.4h-8.7v14.4h-11.4v-37.1h11.4v13.7h8.7v-13.7H296.9z"/>
		</g>
		<g>
			<path class="st12" d="M323.6,326.1c-5.2,0-9.5-1.7-12.8-5.2c-3.3-3.5-4.9-8.1-4.9-13.9c0-5.6,1.6-10.1,4.7-13.7
				c3.1-3.6,7.5-5.4,13.1-5.4c5.2,0,9.4,1.7,12.6,5.1c3.3,3.4,4.9,8,4.9,13.7c0,5.9-1.6,10.6-4.9,14.2
				C333,324.3,328.8,326.1,323.6,326.1z M323.6,317.7c1.9,0,3.3-0.8,4.1-2.5c0.8-1.7,1.3-4.7,1.3-9.2c0-6.5-1.7-9.7-5.2-9.7
				c-3.7,0-5.6,3.7-5.6,11C318.2,314.2,320,317.7,323.6,317.7z"/>
		</g>
		<g>
			<path class="st12" d="M395.8,288.4l-9.8,37.1h-9.6l-5.2-20.5l-4.9,20.5h-10l-9.9-37.1h10.7l5.2,21.4l5.1-21.4h8.9l5.5,21.4
				l5.2-21.4H395.8z"/>
		</g>
		<g>
			<path class="st12" d="M345.8,347.1v28.2H335v-28.2h-7.7v-8.9h26.2v8.9H345.8z"/>
		</g>
		<g>
			<path class="st12" d="M377,375.9c-5.2,0-9.5-1.7-12.8-5.2c-3.3-3.5-4.9-8.1-4.9-13.9c0-5.5,1.6-10.1,4.7-13.7
				c3.1-3.6,7.5-5.4,13.1-5.4c5.2,0,9.4,1.7,12.6,5.1c3.3,3.4,4.9,8,4.9,13.7c0,5.9-1.6,10.6-4.9,14.2
				C386.4,374.2,382.2,375.9,377,375.9z M376.9,367.5c1.9,0,3.3-0.8,4.1-2.5c0.8-1.7,1.3-4.7,1.3-9.2c0-6.5-1.7-9.7-5.2-9.7
				c-3.7,0-5.6,3.7-5.6,11C371.5,364.1,373.3,367.5,376.9,367.5z"/>
		</g>
	</g>
</g>
</svg>
