<?xml version="1.0" encoding="utf-8"?>
<!-- Generator: Adobe Illustrator 20.1.0, SVG Export Plug-In . SVG Version: 6.00 Build 0)  -->
<svg version="1.1" id="Слой_1" xmlns="http://www.w3.org/2000/svg" xmlns:xlink="http://www.w3.org/1999/xlink" x="0px" y="0px"
	 viewBox="0 0 800 600" style="enable-background:new 0 0 800 600;" xml:space="preserve">
<style type="text/css">
	.st0{fill:#F7958D;}
	.st1{fill:#8FD5E5;}
	.st2{clip-path:url(#SVGID_2_);}
	.st3{fill:#1958DB;}
	.st4{fill:#29266B;}
	.st5{fill:#FCA89E;}
	.st6{fill:#FFFFFF;}
	.st7{fill:#2B79E6;}
	.st8{clip-path:url(#SVGID_4_);}
	.st9{fill:#112256;}
	.st10{fill:#B3E3EF;}
	.st11{fill:#FF645F;}
	.st12{clip-path:url(#SVGID_10_);}
	.st13{fill:#823024;}
	.st14{fill:#4E687F;}
	.st15{fill:#BDF1FF;}
	.st16{fill:#DA3F3A;}
	.st17{fill:#D2F7FF;}
	.st18{fill:#FCC4C0;}
	.st19{fill:#2EB3DB;}
</style>
<g>
	<g>
		<g>
			<path class="st0" d="M464.4,420.1c-0.6,1.6-1.2,6.3,0.7,6.9c1.9,0.6,23.1,0.8,26.2,0.5c3.1-0.2,3.4-3.4-2.7-5.2
				c-6.1-1.8-13.9-5.1-13.9-5.1L464.4,420.1z"/>
		</g>
	</g>
	<g>
		<g>
			<path class="st0" d="M354.6,414.8c-0.6,1.6-2.3,11.6-0.4,12.2c1.9,0.6,23.1,0.8,26.2,0.5c3.1-0.2,3.4-3.4-2.7-5.2
				c-6.1-1.8-13.9-5.1-13.9-5.1L354.6,414.8z"/>
		</g>
	</g>
	<g>
		<g>
			<path class="st1" d="M640.5,357H151.8c-7.6,0-13.8-6.2-13.8-13.8V52.4c0-7.6,6.2-13.8,13.8-13.8h488.7c7.6,0,13.8,6.2,13.8,13.8
				v290.7C654.3,350.8,648.1,357,640.5,357z"/>
		</g>
	</g>
	<g>
		<defs>
			<path id="SVGID_1_" d="M616.8,334.6H175.5c-6.9,0-12.4-5.3-12.4-11.8V72.9c0-6.5,5.6-11.8,12.4-11.8h441.3
				c6.9,0,12.5,5.3,12.5,11.8v249.8C629.2,329.3,623.7,334.6,616.8,334.6z"/>
		</defs>
		<use xlink:href="#SVGID_1_"  style="overflow:visible;fill:#FF9F9F;"/>
		<clipPath id="SVGID_2_">
			<use xlink:href="#SVGID_1_"  style="overflow:visible;"/>
		</clipPath>
		<g class="st2">
			<g>
				<g>
					<path class="st3" d="M452.9,491.9H339.3c-38.5,0-69.8-31.2-69.8-69.8V319.4c0-38.5,31.2-69.8,69.8-69.8h113.6
						c38.5,0,69.8,31.2,69.8,69.8v102.8C522.7,460.7,491.5,491.9,452.9,491.9z"/>
				</g>
			</g>
		</g>
	</g>
	<g>
		<g>
			<path class="st0" d="M429.1,254.6c0,0-7.9,17.1-30.1,16.3c-28-1.1-34-20.3-34-20.3v-40.5h62.1L429.1,254.6z"/>
		</g>
	</g>
	<g>
		<g>
			<path class="st4" d="M395.6,87c-6.1-2.2-30.1-15-50.7-6.1c-20.6,8.9-21.2,20.1-21.7,33.4c-0.6,13.4-16.7,21.7-24,39
				c-7.2,17.3-3.3,41.8,12.8,57.4c16.2,15.6,13.4,32.9,13.4,46.8c0,13.9,36.5,28.7,39.7-6.8c3.2-35.5,8.2-69.5,9.3-78.4
				c0.6-4.8,33.5-35.2,39-56.8C418.1,97.2,395.6,87,395.6,87z"/>
		</g>
	</g>
	<g>
		<g>
			<path class="st4" d="M395.6,87c6.1-2.2,31.6-15,52.2-6.1c20.6,8.9,21.2,20.1,21.7,33.4c0.6,13.4,16.7,21.7,24,39
				c7.2,17.3,3.3,41.8-12.8,57.4c-16.2,15.6-13.4,32.9-13.4,46.8c0,13.9-36.5,28.7-39.7-6.8c-3.2-35.5-13.1-70-14.2-79
				C412.3,162.7,395.6,87,395.6,87z"/>
		</g>
	</g>
	<g>
		<g>
			<g>
				<path class="st5" d="M373.6,227.6c29.1,23.3,48.5,6.8,68.5-24.6c23.7-37.4,23.8-74.3-5.2-97.6C407.7,82.2,365.3,86.9,342,116
					C318.7,145,344.5,204.3,373.6,227.6z"/>
			</g>
		</g>
	</g>
	<g>
		<g>
			<path class="st4" d="M328.7,167.2c1.7,2.5,23.1-7.5,40.7-25.1c21.2-21.2,24.5-37.3,26.7-37.3s8.7,18.6,19.5,32.9
				c15.6,20.6,48.5,31.2,48.5,31.2s7.2-17.3-2.2-36.2c-9.5-18.9-30.6-40.7-47.3-42.9c-16.7-2.2-25.6-1.7-39-1.1
				c-13.4,0.6-47.3,24-50.7,37.9C321.5,140.4,328.7,167.2,328.7,167.2z"/>
		</g>
	</g>
	<g>
		<g>
			<polygon class="st6" points="387.8,159.5 431.2,184.6 387.8,209.7 			"/>
		</g>
	</g>
	<g>
		<g>
			<g>
				<g>
					<ellipse class="st7" cx="614.9" cy="395.8" rx="63.3" ry="77.3"/>
				</g>
			</g>
		</g>
		<g>
			<g>
				<g>
					<path class="st7" d="M636.1,565.6c0-0.5,0.1-1.1,0.1-1.6c0-11.6-9.4-21.1-21.1-21.1c-11.6,0-21.1,9.4-21.1,21.1
						c0,0.5,0,1.1,0.1,1.6H636.1z"/>
				</g>
			</g>
		</g>
		<g>
			<g>
				<g>
					<rect x="612" y="428.6" class="st7" width="3.7" height="137"/>
				</g>
			</g>
		</g>
		<g>
			<g>
				<g>
					<path class="st7" d="M663.8,471.4c0,6.3-5.1,11.4-11.4,11.4h-75.1c-6.3,0-11.4-5.1-11.4-11.4v-20.6c0-6.3,5.1-11.4,11.4-11.4
						h75.1c6.3,0,11.4,5.1,11.4,11.4V471.4z"/>
				</g>
			</g>
		</g>
		<g>
			<g>
				<g>
					<path class="st4" d="M569.5,442.5h72.7V460c0,9.4-5.9,13.7-15.4,13.7h-55.6c-9.4,0-18.8-4.2-18.8-13.7v-0.3
						C552.4,450.2,560,442.5,569.5,442.5z"/>
				</g>
			</g>
		</g>
		<g>
			<g>
				<g>
					<path class="st3" d="M642.2,442.3h-54.3l-6.8-80.4c-0.6-7.2,5.1-13.4,12.3-13.4h43.2c7.2,0,12.9,6.2,12.3,13.4L642.2,442.3z"/>
				</g>
			</g>
		</g>
		<g>
			<g>
				<g>
					<path class="st4" d="M553.1,457.4l-8.7,98.3h13.2c0,0,18.4-59,20.6-80.1c2.1-21.1-10.5-23.3-10.5-23.3L553.1,457.4z"/>
				</g>
			</g>
		</g>
		<g>
			<g>
				<g>
					<path class="st4" d="M595,456l-9,99.7h13.2c0,0,19.4-64,21.5-85c2.1-21.1-11.5-18.3-11.5-18.3L595,456z"/>
				</g>
			</g>
		</g>
		<g>
			<g>
				<g>
					<polygon class="st3" points="582.4,355.9 562.9,392.8 589.2,390.7 					"/>
				</g>
			</g>
		</g>
		<g>
			<g>
				<g>
					<path class="st3" d="M645.7,352.6l34,49c1.6,3.4,0.4,8.7-3.2,9.9L624,423.4l-6.9-11.6l36.9-13.3L627.6,372L645.7,352.6z"/>
				</g>
			</g>
		</g>
		<g>
			<g>
				<g>
					<path class="st3" d="M544.7,555.7h12.9v9.9h-26.2c-1.7,0-2.3-3.9-0.8-4.7L544.7,555.7z"/>
				</g>
			</g>
		</g>
		<g>
			<g>
				<g>
					<path class="st3" d="M586.1,555.7H599v9.9h-26.2c-1.7,0-2.3-3.9-0.8-4.7L586.1,555.7z"/>
				</g>
			</g>
		</g>
		<g>
			<defs>
				<path id="SVGID_3_" d="M642.2,442.3h-54.3l-6.8-80.4c-0.6-7.2,5.1-13.4,12.3-13.4h43.2c7.2,0,12.9,6.2,12.3,13.4L642.2,442.3z"
					/>
			</defs>
			<clipPath id="SVGID_4_">
				<use xlink:href="#SVGID_3_"  style="overflow:visible;"/>
			</clipPath>
			<g class="st8">
				<g>
					<g>
						<polygon class="st9" points="616.2,412.3 615.8,411.2 648.6,400 649,401.1 						"/>
					</g>
				</g>
			</g>
			<g class="st8">
				<g>
					<g>
						<polygon class="st9" points="617.5,423.1 617.4,422 657.1,417.7 657.2,418.9 						"/>
					</g>
				</g>
			</g>
		</g>
		<g>
			<g>
				<g>
					<rect x="543.8" y="420.3" class="st10" width="84.7" height="7.2"/>
				</g>
			</g>
		</g>
		<g>
			<defs>
				<path id="SVGID_5_" d="M580.3,442.3h-54.3l-6.8-80.4c-0.6-7.2,5.1-13.4,12.3-13.4h43.2c7.2,0,12.9,6.2,12.3,13.4L580.3,442.3z"
					/>
			</defs>
			<clipPath id="SVGID_6_">
				<use xlink:href="#SVGID_5_"  style="overflow:visible;"/>
			</clipPath>
		</g>
		<g>
			<g>
				<g>
					<g>
						<g>
							<ellipse class="st3" cx="177.3" cy="395.8" rx="63.3" ry="77.3"/>
						</g>
					</g>
				</g>
			</g>
		</g>
		<g>
			<g>
				<g>
					<g>
						<g>
							<path class="st3" d="M156.2,565.6c0-0.5-0.1-1.1-0.1-1.6c0-11.6,9.4-21.1,21.1-21.1c11.6,0,21.1,9.4,21.1,21.1
								c0,0.5,0,1.1-0.1,1.6H156.2z"/>
						</g>
					</g>
				</g>
			</g>
		</g>
		<g>
			<g>
				<g>
					<g>
						<g>
							<rect x="176.5" y="428.6" class="st3" width="3.7" height="137"/>
						</g>
					</g>
				</g>
			</g>
		</g>
		<g>
			<g>
				<g>
					<g>
						<g>
							<path class="st3" d="M128.4,471.4c0,6.3,5.1,11.4,11.4,11.4h75.1c6.3,0,11.4-5.1,11.4-11.4v-20.6c0-6.3-5.1-11.4-11.4-11.4
								h-75.1c-6.3,0-11.4,5.1-11.4,11.4V471.4z"/>
						</g>
					</g>
				</g>
			</g>
		</g>
		<g>
			<g>
				<g>
					<g>
						<path class="st11" d="M222.7,442.5H150V460c0,9.4,7.7,17.1,17.1,17.1h55.6c9.4,0,17.1-7.7,17.1-17.1v-0.3
							C239.8,450.2,232.2,442.5,222.7,442.5z"/>
					</g>
				</g>
			</g>
		</g>
		<g>
			<g>
				<g>
					<path class="st4" d="M150,442.3h54.3l6.8-80.4c0.6-7.2-5.1-13.4-12.3-13.4h-43.2c-7.2,0-12.9,6.2-12.3,13.4L150,442.3z"/>
				</g>
			</g>
		</g>
		<g>
			<g>
				<g>
					<path class="st0" d="M173.7,353.6h8.4c2.6,0,4.7-2.4,4.7-5.3v-10.4c0-2.9-2.1-5.3-4.7-5.3h-8.4c-2.6,0-4.7,2.4-4.7,5.3v10.4
						C169,351.2,171.1,353.6,173.7,353.6z"/>
				</g>
			</g>
		</g>
		<g>
			<g>
				<g>
					<path class="st5" d="M198.5,332.5c-3.4,11.5-13,9.7-24.4,6.3c-11.5-3.4-18-15.4-14.6-26.9c3.4-11.5,15.4-18,26.9-14.6
						C197.8,300.7,201.9,321,198.5,332.5z"/>
				</g>
			</g>
		</g>
		<g>
			<defs>
				<path id="SVGID_7_" d="M418.3,325.1c-3.4,11.5-13,9.7-24.4,6.3c-11.5-3.4-18-15.4-14.6-26.9c3.4-11.5,15.4-18,26.9-14.6
					C417.6,293.3,421.7,313.6,418.3,325.1z"/>
			</defs>
			<clipPath id="SVGID_8_">
				<use xlink:href="#SVGID_7_"  style="overflow:visible;"/>
			</clipPath>
		</g>
		<g>
			<g>
				<g>
					<g>
						<path class="st11" d="M238.8,456l9,99.7h-13.2c0,0-21.1-64.9-23.2-86c-2.1-21.1,13.2-17.4,13.2-17.4L238.8,456z"/>
					</g>
				</g>
			</g>
		</g>
		<g>
			<g>
				<g>
					<g>
						<path class="st11" d="M197.2,456l9,99.7H193c0,0-21.1-64.9-23.2-86c-2.1-21.1,13.2-17.4,13.2-17.4L197.2,456z"/>
					</g>
				</g>
			</g>
		</g>
		<g>
			<g>
				<g>
					<polygon class="st4" points="209.8,355.9 229.3,392.8 203,390.7 					"/>
				</g>
			</g>
		</g>
		<g>
			<g>
				<g>
					<path class="st4" d="M146.5,352.6l-34,49c-1.6,3.4-0.4,8.7,3.2,9.9l52.5,11.9l6.8-11.6l-36.9-13.3l26.5-26.5L146.5,352.6z"/>
				</g>
			</g>
		</g>
		<g>
			<g>
				<g>
					<path class="st4" d="M247.5,555.7h-12.9v9.9h26.2c1.7,0,2.3-3.9,0.8-4.7L247.5,555.7z"/>
				</g>
			</g>
		</g>
		<g>
			<g>
				<g>
					<path class="st4" d="M206.1,555.7h-12.9v9.9h26.2c1.7,0,2.3-3.9,0.8-4.7L206.1,555.7z"/>
				</g>
			</g>
		</g>
		<g>
			<defs>
				<path id="SVGID_9_" d="M150,442.3h54.3l6.8-80.4c0.6-7.2-5.1-13.4-12.3-13.4h-43.2c-7.2,0-12.9,6.2-12.3,13.4L150,442.3z"/>
			</defs>
			<clipPath id="SVGID_10_">
				<use xlink:href="#SVGID_9_"  style="overflow:visible;"/>
			</clipPath>
			<g class="st12">
				<g>
					<g>
						<polygon class="st11" points="176,412.3 143.2,401.1 143.6,400 176.4,411.2 						"/>
					</g>
				</g>
			</g>
			<g class="st12">
				<g>
					<g>
						
							<rect x="153.3" y="401" transform="matrix(8.321188e-02 -0.9965 0.9965 8.321188e-02 -277.3152 538.3196)" class="st11" width="1.1" height="37.8"/>
					</g>
				</g>
			</g>
		</g>
		<g>
			<g>
				<g>
					<rect x="163.7" y="420.3" class="st10" width="84.7" height="7.2"/>
				</g>
			</g>
		</g>
		<g>
			<g>
				<g>
					<g>
						<rect x="168.1" y="427.2" class="st13" width="456.1" height="5.8"/>
					</g>
				</g>
			</g>
			<g>
				<g>
					<g>
						<rect x="168.1" y="428.3" class="st13" width="2.1" height="137"/>
					</g>
				</g>
			</g>
			<g>
				<g>
					<g>
						<rect x="622.1" y="428.3" class="st13" width="2.1" height="137"/>
					</g>
				</g>
			</g>
		</g>
		<g>
			<defs>
				<path id="SVGID_11_" d="M150,442.3h54.3l6.8-80.4c0.6-7.2-5.1-13.4-12.3-13.4h-43.2c-7.2,0-12.9,6.2-12.3,13.4L150,442.3z"/>
			</defs>
			<clipPath id="SVGID_12_">
				<use xlink:href="#SVGID_11_"  style="overflow:visible;"/>
			</clipPath>
		</g>
		<g>
			<g>
				<g>
					<path class="st0" d="M623.1,420.5h-21.6l-1.6-9.5h16.3c3.1,0,5.7,2.2,6.2,5.2L623.1,420.5z"/>
				</g>
			</g>
		</g>
		<g>
			<g>
				<g>
					<polygon class="st10" points="611.8,420.6 543.8,420.6 534.5,378.5 602.5,378.5 					"/>
				</g>
			</g>
		</g>
		<g>
			<g>
				<g>
					<circle class="st14" cx="571.8" cy="400.7" r="4.5"/>
				</g>
			</g>
		</g>
		<g>
			<g>
				<g>
					<path class="st0" d="M612.7,352.2h8.4c2.6,0,4.7-2.4,4.7-5.3v-10.4c0-3-2.1-5.3-4.7-5.3h-8.4c-2.6,0-4.7,2.4-4.7,5.3v10.4
						C607.9,349.8,610,352.2,612.7,352.2z"/>
				</g>
			</g>
		</g>
		<g>
			<defs>
				<path id="SVGID_13_" d="M598.3,331.1c3.4,11.5,13,9.7,24.4,6.3c11.5-3.4,18-15.4,14.6-26.9c-3.4-11.5-15.4-18-26.9-14.6
					C599,299.3,594.9,319.7,598.3,331.1z"/>
			</defs>
			<use xlink:href="#SVGID_13_"  style="overflow:visible;fill:#FCA89E;"/>
			<clipPath id="SVGID_14_">
				<use xlink:href="#SVGID_13_"  style="overflow:visible;"/>
			</clipPath>
		</g>
		<g>
			<g>
				<g>
					<circle class="st11" cx="605.1" cy="335" r="15.1"/>
				</g>
			</g>
		</g>
		<g>
			<g>
				<g>
					<path class="st5" d="M602.1,331.1h6.4c1.3,0,2.4-1.1,2.4-2.4v-1c0-1.3-1.1-2.4-2.4-2.4h-6.4c-1.3,0-2.4,1.1-2.4,2.4v1
						C599.7,330.1,600.8,331.1,602.1,331.1z"/>
				</g>
			</g>
		</g>
		<g>
			<defs>
				<path id="SVGID_15_" d="M198.5,332.5c-3.4,11.5-13,9.7-24.4,6.3c-11.5-3.4-18-15.4-14.6-26.9c3.4-11.5,15.4-18,26.9-14.6
					C197.8,300.7,201.9,321,198.5,332.5z"/>
			</defs>
			<clipPath id="SVGID_16_">
				<use xlink:href="#SVGID_15_"  style="overflow:visible;"/>
			</clipPath>
		</g>
		<g>
			<g>
				<g>
					<path class="st0" d="M169.1,420.5h21.6l1.6-9.5h-16.3c-3.1,0-5.7,2.2-6.2,5.2L169.1,420.5z"/>
				</g>
			</g>
		</g>
		<g>
			<g>
				<g>
					<polygon class="st10" points="180.4,420.6 248.4,420.6 257.7,378.5 189.7,378.5 					"/>
				</g>
			</g>
		</g>
		<g>
			<g>
				<g>
					<circle class="st14" cx="220.4" cy="400.7" r="4.5"/>
				</g>
			</g>
		</g>
	</g>
	<g>
		<g>
			<path class="st15" d="M384.6,299.7c-7.4-0.3-27.6,46.9-29.7,54c-2.1,7.1-2.9,63.8-0.8,64.1c2.1,0.2,13.4,1.6,13.6-1.1
				c0.2-2.7,3.6-54.1,4-57.2C372.1,356.3,401.3,300.4,384.6,299.7z"/>
		</g>
	</g>
	<g>
		<g>
			<g>
				<path class="st16" d="M364.2,396.6l65.5,17.1l-0.5,141.4h-12.9c0,0-10.4-77-14.1-117.2h-10l-10.1,117.2h-13.1
					c0,0-5.7-125.3-5.5-135.3C363.1,418.1,364.2,396.6,364.2,396.6z"/>
			</g>
		</g>
	</g>
	<g>
		<g>
			<g>
				<path class="st17" d="M364.2,396.6l65.5,17.1l30.9-84.9c2.6-6.9-2.7-14.8-11.4-17.1L397,298.1c-8.7-2.3-17.2,2-18.3,9.3
					L364.2,396.6z"/>
			</g>
		</g>
	</g>
	<g>
		<g>
			<g>
				<path class="st5" d="M419.4,312.9c-6.5-2.3-7.9-9.5-7.4-11.4l3.3-12.8c0.8-2.9,5-1.5,7.6-0.9l8.3,2.2c2.6,0.7,6.3,4.2,5.5,7.1
					l-2.7,10.2C433.7,309.1,427.2,315.6,419.4,312.9z"/>
			</g>
		</g>
	</g>
	<g>
		<g>
			<g>
				<path class="st18" d="M424.5,299.1c-12.1,0.8-13.9-8.9-14.7-21.1c-0.8-12.1,8.3-22.7,20.5-23.5c12.1-0.8,22.7,8.3,23.5,20.5
					S436.7,298.3,424.5,299.1z"/>
			</g>
		</g>
	</g>
	<g>
		<g>
			<g>
				<path class="st9" d="M429.4,554.9h-13.1V565H443c1.8,0,2.4-4,0.8-4.8L429.4,554.9z"/>
			</g>
		</g>
	</g>
	<g>
		<g>
			<g>
				<path class="st9" d="M382.1,554.9h-13.1V565h26.7c1.8,0,2.4-4,0.8-4.8L382.1,554.9z"/>
			</g>
		</g>
	</g>
	<g>
		<defs>
			<path id="SVGID_17_" d="M445.4,293.6c-6.3,10.4-15.3,6.2-25.7-0.1c-10.4-6.3-13.8-19.8-7.5-30.3c6.3-10.4,19.8-13.8,30.3-7.5
				C452.9,262,451.7,283.1,445.4,293.6z"/>
		</defs>
		<clipPath id="SVGID_18_">
			<use xlink:href="#SVGID_17_"  style="overflow:visible;"/>
		</clipPath>
	</g>
	<g>
		<defs>
			<path id="SVGID_19_" d="M364.2,396.6l65.5,17.1l30.9-84.9c2.6-6.9-2.7-14.8-11.4-17.1L397,298.1c-8.7-2.3-17.2,2-18.3,9.3
				L364.2,396.6z"/>
		</defs>
		<clipPath id="SVGID_20_">
			<use xlink:href="#SVGID_19_"  style="overflow:visible;"/>
		</clipPath>
	</g>
	<g>
		<g>
			<path class="st11" d="M598.3,311.4c-2.8,0.9-8.1-2-5.8-8.6c2.8-8.4,10-7.8,12-10c2-2.2,1.7-10.9,10.3-11.7
				c8.6-0.8,9.2,7,12.5,8.6c3.3,1.7,10.3-5,17.5,2.5c6.4,6.6-2.2,13.6,0,17.5c2.2,3.9,7.5,7.5,5.3,15c-2.2,7.5-8.4,9.7-11.1,9.7
				c-2.8,0-7-1.7-7-3.3c0-1.7-5.6-11.4,1.1-19.5c3.6-4.3-0.6-8.9-6.1-7.5c-9.8,2.4-15.9-4.5-18.7-4.5
				C605.6,299.7,602.5,310,598.3,311.4z"/>
		</g>
	</g>
	<g>
		<g>
			<g>
				<path class="st11" d="M160.2,328.1c-2.5-3.6-4-15.1-1.1-20.6c3.6-7,7.8-10,15.9-12.3c7-1.9,12.3-3.1,14.2-6.4
					c1.9-3.3,0.6-7.8,1.4-7.8s11.4,7,8.9,17.5c-1.4,5.7-2.2,8.9-10,13.4c-5,2.9-15.6,1.7-16.7,4.5c-1.1,2.8,3.6,5.8,4.5,7.5
					c0.8,1.7-0.6,3.1-1.4,3.6c-0.8,0.6-5-3.1-9.2-3.3C162.5,324,160.2,328.1,160.2,328.1z"/>
			</g>
		</g>
	</g>
	<g>
		<g>
			<path class="st19" d="M419,259.1c-5.4,4.6-5,17.8-3.3,23.4c1.7,5.6,2.1,20.4,7.7,21c14.6,1.7,25.9,1.3,29.2-3.8
				c3.3-5,10.9-37.2-10-44C425.4,250.2,422.9,255.7,419,259.1z"/>
		</g>
	</g>
	<g>
		<g>
			<path class="st15" d="M456.5,316c6.3,1.7,8.6,15.9,9.4,29.2c0.8,13.4-1.3,30.1,0,32.2c1.3,2.1,12.5,38.6,12.9,40.7
				c0.4,2.1-13.8,5-15,3.8c-1.3-1.3-16.2-36.1-17-39.4c-0.8-3.3-4.5-27.8-3.5-44.9C444.1,324.4,448.6,313.9,456.5,316z"/>
		</g>
	</g>
</g>
</svg>
