<?xml version="1.0" encoding="utf-8"?>
<!-- Generator: Adobe Illustrator 20.1.0, SVG Export Plug-In . SVG Version: 6.00 Build 0)  -->
<svg version="1.1" id="Слой_1" xmlns="http://www.w3.org/2000/svg" xmlns:xlink="http://www.w3.org/1999/xlink" x="0px" y="0px"
	 viewBox="0 0 650 220" style="enable-background:new 0 0 650 220;" xml:space="preserve">
<style type="text/css">
	.st0{fill:none;}
	.st1{fill:#37709D;}
	.st2{fill:#FFD440;}
	.st3{fill:#0CBA68;}
	.st4{fill:#0DCA71;}
	.st5{fill:#7FE680;}
	.st6{fill:#B6FF9E;}
	.st7{fill:#FFECBB;}
	.st8{fill:#06995E;}
	.st9{fill:#0BAD61;}
	.st10{fill:#FFE5A5;}
	.st11{fill:#069159;}
	.st12{fill:#262B2F;}
	.st13{fill:#A56A43;}
	.st14{fill:#CB8252;}
	.st15{fill:#F0C419;}
</style>
<g>
	<rect x="172.5" y="33.4" class="st0" width="558.4" height="317.2"/>
	<path class="st1" d="M274.3,145.6h-49.2c2.1,4.4,5.9,6.6,11.2,6.6c3.9,0,7.1-1.5,9.6-4.4l28,4.4c-3.2,6.9-8.2,12.4-15,16.5
		c-6.8,4.1-14.5,6.1-23.2,6.1c-12.3,0-22.4-3.8-30.4-11.4s-12-17-12-28.2c0-11.1,3.9-20.4,11.8-28c8-7.6,17.8-11.4,29.4-11.4
		s21.3,3.8,29.2,11.4c8,7.6,12,16.9,12,28C275.7,138.5,275.2,142,274.3,145.6z M225.1,125h20.8c-2-4.4-5.5-6.6-10.4-6.6
		C230.7,118.4,227.2,120.6,225.1,125z"/>
	<path class="st1" d="M278.5,135.2c0-11.3,3.3-20.7,9.8-28c6.7-7.6,14.7-11.4,24.2-11.4c6.3,0,11.9,1.7,17,5V33.4h29.2v140h-29.2
		v-3.6c-5.1,3.3-10.7,5-17,5c-9.5,0-17.5-3.7-24.2-11.2C281.7,156.1,278.5,146.7,278.5,135.2z M309.3,135c0,3.2,1,5.9,2.9,8
		c1.9,2.1,4.2,3.2,6.9,3.2c2.8,0,5.2-1.1,7.1-3.2c1.9-2.1,2.9-4.8,2.9-8c0-2.9-1-5.5-3-7.6c-2-2.1-4.3-3.2-7-3.2
		c-2.7,0-5,1.1-6.9,3.2C310.2,129.5,309.3,132.1,309.3,135z"/>
	<path class="st1" d="M364.7,146.6V97.4h29.2v42.2c-0.3,3.6,0.9,6.1,3.5,7.6c2.6,1.5,5.2,1.5,7.8,0c2.6-1.5,3.8-4,3.5-7.6V97.4h29.4
		v76h-29.4v-5c-4.7,4.3-10.3,6.4-16.8,6.4c-7.3,0-13.7-2.7-19.2-8.2C367.3,161.3,364.7,154.6,364.7,146.6z"/>
	<path class="st2" d="M481.8,134.4v39h-34.2v-130h59.8c13.7,0,25.3,4.3,34.8,13c9.5,8.7,14.2,19.5,14.2,32.4
		c0,12.9-4.7,23.8-14.2,32.6c-9.5,8.7-21.1,13-34.8,13H481.8z M507.4,75h-25.6v28h25.6c3.9,0,7.1-1.3,9.6-4
		c2.5-2.7,3.8-6.1,3.8-10.2c0-3.9-1.3-7.1-3.8-9.8C514.5,76.3,511.3,75,507.4,75z"/>
	<path class="st2" d="M586.8,178l0.8-2.6l-28-78h30.2l11,36.2l11.6-36.2h30.2l-32.2,90.4c-7.5,20.4-21.5,30.6-42,30.6h-2v-28h2.2
		C578.1,190.4,584.2,186.2,586.8,178z"/>
</g>
<g>
	<g>
		<g>
			<path class="st3" d="M151.8,169.6c1-3.8,1.5-7.7,1.5-11.7c0-12.1,1.7-14,3.7-16.4L147.8,65H141c-11.8,0-23.1-3.6-32.7-10.5
				l-0.7-0.5c-3.9-2.8-8.4-4.2-13-4.2l-3.8,61.9l3.8,49.5L151.8,169.6z"/>
			<path class="st4" d="M94.6,161.3V49.9c-4.6,0-9.1,1.4-13,4.2l-0.7,0.5C71.3,61.4,60,65,48.2,65h-6.9l-9.8,74.4
				c2.4,2.9,4.4,5.5,4.4,18.5c0,3.9,0.5,7.8,1.4,11.7L94.6,161.3z"/>
		</g>
		<g>
			<path class="st5" d="M94.6,211.8c16.3-0.1,31.3-6.1,42.3-16.8c7.4-7.2,12.5-16,14.8-25.4l-57.2-21.2L87,176.5L94.6,211.8z"/>
			<path class="st6" d="M94.1,211.8c0.2,0,0.3,0,0.5,0v-63.4l-57.2,21.2c2.3,9.3,7.2,18.2,14.4,25.3
				C62.6,205.8,77.7,211.8,94.1,211.8L94.1,211.8z"/>
		</g>
	</g>
	<g>
		<path class="st3" d="M78.5,140.8l-0.3-0.3c-8.2-8.2-12.7-19.1-12.7-30.6v-7.1h10.7v7.1c0,8.7,3.4,16.9,9.6,23.1l0.3,0.3
			L78.5,140.8z"/>
		<ellipse class="st7" cx="39.7" cy="102.8" rx="31.1" ry="36.2"/>
		<path class="st8" d="M39.7,144.3c-20.1,0-36.5-18.6-36.5-41.5s16.4-41.5,36.5-41.5s36.5,18.6,36.5,41.5S59.9,144.3,39.7,144.3z
			 M39.7,71.9C25.5,71.9,14,85.8,14,102.8s11.6,30.8,25.8,30.8s25.8-13.8,25.8-30.8S54,71.9,39.7,71.9z"/>
	</g>
	<g>
		<path class="st9" d="M110.7,140.8l-7.6-7.6l0.3-0.3c6.2-6.2,9.6-14.4,9.6-23.1v-7.1h10.7v7.1c0,11.6-4.5,22.5-12.7,30.6
			L110.7,140.8z"/>
		<ellipse class="st10" cx="149.5" cy="102.8" rx="31.1" ry="36.2"/>
		<path class="st11" d="M149.5,144.3c-20.1,0-36.5-18.6-36.5-41.5s16.4-41.5,36.5-41.5s36.5,18.6,36.5,41.5S169.6,144.3,149.5,144.3
			L149.5,144.3z M149.5,71.9c-14.2,0-25.8,13.8-25.8,30.8s11.6,30.8,25.8,30.8c14.2,0,25.8-13.8,25.8-30.8
			C175.2,85.8,163.7,71.9,149.5,71.9z"/>
		<circle class="st12" cx="38.9" cy="103.5" r="4.4"/>
		<circle class="st12" cx="148.5" cy="104.5" r="4.4"/>
	</g>
</g>
<path id="Shape_1_" class="st13" d="M159.5,55.6l-0.5,0.5c-3.1,3.1-7.2,4.8-11.5,4.8H41.6c-4.3,0-8.5-1.7-11.5-4.8l-0.5-0.5
	c6.2-4.1,13-7,20.2-8.7h89.6C146.6,48.6,153.4,51.6,159.5,55.6z"/>
<g>
	<path id="Shape_2_" class="st14" d="M139.7,61.9c-2.7-35.3-8.1-57-19-57c-16.3,0-16.3,5.4-27.1,5.4S82.7,4.9,66.5,4.9
		c-10.9,0-16.3,21.7-19,57H139.7z"/>
	<path id="Shape_6_" class="st15" d="M139.7,61.9H47.5c0.4-5.8,1-11.2,1.6-16.3h89.1C138.8,50.6,139.3,56.1,139.7,61.9z"/>
	<path id="Shape_7_" class="st14" d="M146.6,64.6H40.6c-5,0-9.9-2-13.4-5.6l-8.8-8.8c-1-1.1-1-2.8,0-3.8c1-1,2.7-1.1,3.8,0l8.8,8.8
		c2.5,2.6,6,4,9.6,4h105.9c3.6,0,7.1-1.4,9.6-4l8.8-8.8c1.1-1,2.8-1,3.8,0c1,1,1.1,2.7,0,3.8L160,59
		C156.4,62.6,151.6,64.6,146.6,64.6L146.6,64.6z"/>
</g>
<g>
</g>
<g>
</g>
<g>
</g>
<g>
</g>
<g>
</g>
<g>
</g>
<g>
</g>
<g>
</g>
<g>
</g>
<g>
</g>
<g>
</g>
</svg>
