<?xml version="1.0" encoding="utf-8"?>
<!-- Generator: Adobe Illustrator 20.1.0, SVG Export Plug-In . SVG Version: 6.00 Build 0)  -->
<svg version="1.1" id="Слой_1" xmlns="http://www.w3.org/2000/svg" xmlns:xlink="http://www.w3.org/1999/xlink" x="0px" y="0px"
	 viewBox="0 0 238 327" style="enable-background:new 0 0 238 327;" xml:space="preserve">
<style type="text/css">
	.st0{fill:#FEEF55;}
	.st1{fill:#FEDC00;}
	.st2{fill:#78E0EA;}
	.st3{fill:#3CCCDD;}
	.st4{fill:#5A5A6E;}
	.st5{fill:#46465A;}
	.st6{fill:#EAAA61;}
	.st7{fill:#FFFFFF;}
	.st8{fill:#C13041;}
	.st9{fill:#E8A249;}
	.st10{fill:#98CA9E;}
	.st11{opacity:0.2;fill:#FFFFFF;}
	.st12{opacity:0.2;}
	.st13{opacity:0.3;}
	.st14{opacity:0.7;fill:#FFFFFF;}
	.st15{fill:#2C2B2A;}
	.st16{fill:#30302F;}
	.st17{fill:#7A645A;}
	.st18{fill:#644F47;}
	.st19{fill:#B4B8B4;}
	.st20{fill:#BCBFBC;}
	.st21{fill:#A5A7A5;}
</style>
<path class="st0" d="M173.1,55.1h-29.4v29.1H72.5v35.6c0,3.6,2.9,6.5,6.5,6.5v23c0,13.4,10.9,24.3,24.3,24.3h22.7
	c13.4,0,24.3-10.9,24.3-24.3V136h-29c-2.6,0-4.9-2-5-4.6c-0.1-2.8,2.1-5.1,4.8-5.1h52.1c13.4,0,24.3-10.9,24.3-24.3V79.3
	C197.4,65.9,186.5,55.1,173.1,55.1z"/>
<path class="st1" d="M173.1,55.1h-29.4v29.1h-29.1v89.3h11.3c13.4,0,24.3-10.9,24.3-24.3V136h-29c-2.6,0-4.9-2-5-4.6
	c-0.1-2.8,2.1-5.1,4.8-5.1h52.1c13.4,0,24.3-10.9,24.3-24.3V79.3C197.4,65.9,186.5,55.1,173.1,55.1z"/>
<path class="st2" d="M91.9,90.7h45.3c7.1,0,12.9-5.8,12.9-12.9V32.1c0-13.4-10.9-24.3-24.3-24.3h-22.7C89.8,7.8,79,18.7,79,32.1
	v13.3h29.1c2.7,0,4.9,2.2,4.9,4.9s-2.2,4.9-4.9,4.9H56c-13.4,0-24.3,10.9-24.3,24.3V102c0,13.4,10.9,24.3,24.3,24.3h23v-22.7
	C79,96.4,84.8,90.7,91.9,90.7z"/>
<path class="st3" d="M125.9,7.8h-11.3v82.8h22.7c7.1,0,12.9-5.8,12.9-12.9V32.1C150.2,18.7,139.3,7.8,125.9,7.8z"/>
<path class="st4" d="M108.1,27.6c0,2.7-2.2,4.9-4.9,4.9c-2.7,0-4.9-2.2-4.9-4.9s2.2-4.9,4.9-4.9C105.9,22.7,108.1,24.9,108.1,27.6z"
	/>
<path class="st5" d="M130.7,153.8c0,2.7-2.2,4.9-4.9,4.9s-4.9-2.2-4.9-4.9c0-2.7,2.2-4.9,4.9-4.9S130.7,151.1,130.7,153.8z"/>
<g>
	<g>
		<path class="st6" d="M113.1,155.3h-37c-1.8,0-3.3-1.5-3.3-3.3v-27.5c0-1.8,1.5-3.3,3.3-3.3h37c1.8,0,3.3,1.5,3.3,3.3V152
			C116.4,153.8,114.9,155.3,113.1,155.3z"/>
		<path class="st7" d="M104,136.2h-1.4c-0.2-0.7-0.5-1.5-0.9-2.1l1.1-1.1c0.4-0.4,0.4-1.1,0-1.5l-1.5-1.5c-0.4-0.4-1.1-0.4-1.5,0
			l-1.1,1.1c-0.6-0.3-1.3-0.6-2-0.8v-1.7c0-0.6-0.5-1-1-1h-2.1c-0.6,0-1,0.5-1,1v1.7c-0.7,0.2-1.3,0.4-1.9,0.8l-1.2-1.2
			c-0.4-0.4-1.1-0.4-1.5,0l-1.5,1.5c-0.4,0.4-0.4,1.1,0,1.5l1.1,1.1c-0.4,0.6-0.7,1.3-0.9,2h-1.6c-0.6,0-1,0.5-1,1v2.1
			c0,0.6,0.5,1,1,1h1.4c0.2,0.8,0.4,1.5,0.8,2.2l-1,1c-0.4,0.4-0.4,1.1,0,1.5l1.5,1.5c0.4,0.4,1.1,0.4,1.5,0l0.8-0.8
			c0.7,0.5,1.5,0.8,2.3,1v1.2c0,0.6,0.5,1,1,1h2.1c0.6,0,1-0.5,1-1v-1.1c0.8-0.2,1.6-0.5,2.4-1l0.8,0.8c0.4,0.4,1.1,0.4,1.5,0
			l1.5-1.5c0.4-0.4,0.4-1.1,0-1.5l-0.8-0.8c0.4-0.7,0.7-1.5,0.9-2.3h1.3c0.6,0,1-0.5,1-1v-2.1C105.1,136.7,104.6,136.2,104,136.2z
			 M95.7,143.7c-3.7,0.7-6.9-2.5-6.2-6.2c0.4-2.1,2.1-3.8,4.2-4.2c3.7-0.7,6.9,2.5,6.2,6.2C99.5,141.6,97.8,143.3,95.7,143.7z"/>
	</g>
	<g>
		<path class="st7" d="M79.3,156.7c0-0.7-0.5-1.2-1.2-1.2H19.3c-0.7,0-1.2,0.5-1.2,1.2v5.8h61.2V156.7z"/>
		<path d="M18.1,162.5v29.3c0,0.7,0.5,1.2,1.2,1.2h58.8c0.7,0,1.2-0.5,1.2-1.2v-29.3H18.1z"/>
		<circle class="st8" cx="21.8" cy="159.3" r="1.7"/>
		<circle class="st9" cx="26.5" cy="159.3" r="1.7"/>
		<circle class="st10" cx="31.3" cy="159.3" r="1.7"/>
		<rect x="21.7" y="167.9" class="st11" width="33.8" height="18.8"/>
		<rect x="58.7" y="167.9" class="st11" width="17.4" height="18.8"/>
		<g class="st12">
			<path class="st7" d="M34.4,180.8c-0.3,0.1-0.8,0.3-1.6,0.3c-1.7,0-2.8-1.1-2.8-2.8c0-1.7,1.2-2.9,3-2.9c0.6,0,1.1,0.1,1.4,0.3
				l-0.2,0.8c-0.2-0.1-0.6-0.3-1.2-0.3c-1.3,0-2,0.9-2,2.1c0,1.3,0.8,2.1,1.9,2.1c0.6,0,1-0.1,1.2-0.3L34.4,180.8z"/>
			<path class="st7" d="M35.5,180c0.3,0.2,0.8,0.4,1.3,0.4c0.7,0,1.1-0.4,1.1-0.8c0-0.5-0.3-0.7-1-1c-1-0.4-1.5-0.9-1.5-1.6
				c0-0.9,0.7-1.6,1.9-1.6c0.6,0,1.1,0.2,1.4,0.3l-0.3,0.7c-0.2-0.1-0.6-0.3-1.1-0.3c-0.6,0-0.9,0.3-0.9,0.8c0,0.5,0.3,0.7,1.1,0.9
				c1,0.4,1.5,0.8,1.5,1.7c0,1-0.8,1.7-2.1,1.7c-0.6,0-1.2-0.1-1.6-0.4L35.5,180z"/>
			<path class="st7" d="M40,180c0.3,0.2,0.8,0.4,1.3,0.4c0.7,0,1.1-0.4,1.1-0.8c0-0.5-0.3-0.7-1-1c-1-0.4-1.5-0.9-1.5-1.6
				c0-0.9,0.7-1.6,1.9-1.6c0.6,0,1.1,0.2,1.4,0.3l-0.3,0.7c-0.2-0.1-0.6-0.3-1.1-0.3c-0.6,0-0.9,0.3-0.9,0.8c0,0.5,0.3,0.7,1.1,0.9
				c1,0.4,1.5,0.8,1.5,1.7c0,1-0.8,1.7-2.1,1.7c-0.6,0-1.2-0.1-1.6-0.4L40,180z"/>
		</g>
		<g class="st13">
			<g>
				<polygon class="st14" points="63.4,183.1 62.5,181.5 70,177.5 62.6,173 63.5,171.5 72.3,176.8 72.2,178.4 				"/>
			</g>
		</g>
	</g>
	<g>
		<path class="st7" d="M213.7,111.9c0-0.7-0.6-1.3-1.3-1.3h-61.7c-0.7,0-1.3,0.6-1.3,1.3v6.1h64.2V111.9z"/>
		<path d="M149.4,117.9v61.5c0,0.7,0.6,1.3,1.3,1.3h61.7c0.7,0,1.3-0.6,1.3-1.3v-61.5H149.4z"/>
		<circle class="st8" cx="153.3" cy="114.6" r="1.7"/>
		<circle class="st9" cx="158.3" cy="114.6" r="1.7"/>
		<circle class="st10" cx="163.3" cy="114.6" r="1.7"/>
		<rect x="173.6" y="123.6" class="st11" width="35.5" height="19.7"/>
		<rect x="154" y="146.4" class="st11" width="55.1" height="27.8"/>
		<rect x="156.4" y="148.9" class="st11" width="51.1" height="1.4"/>
		<rect x="156.4" y="153.1" class="st11" width="51.1" height="1.4"/>
		<rect x="179.1" y="157.3" class="st11" width="28.4" height="1.4"/>
		<rect x="179.1" y="161.5" class="st11" width="28.4" height="1.4"/>
		<rect x="179.1" y="166.4" class="st11" width="28.4" height="1.4"/>
		<g class="st12">
			<path class="st7" d="M185.6,129.4h0.9v3.1h0c0.1-0.3,0.4-0.5,0.7-0.6c0.3-0.2,0.6-0.3,0.9-0.3c0.7,0,1.7,0.4,1.7,2.1v3H189v-2.9
				c0-0.8-0.3-1.5-1.2-1.5c-0.6,0-1.1,0.4-1.2,0.9c-0.1,0.1-0.1,0.3-0.1,0.4v3h-0.9V129.4z"/>
			<path class="st7" d="M192.4,130.3v1.4h1.3v0.7h-1.3v2.7c0,0.6,0.2,1,0.7,1c0.2,0,0.4,0,0.5-0.1l0,0.7c-0.2,0.1-0.5,0.1-0.8,0.1
				c-0.4,0-0.8-0.1-1-0.4c-0.3-0.3-0.4-0.7-0.4-1.3v-2.7h-0.8v-0.7h0.8v-1.2L192.4,130.3z"/>
			<path class="st7" d="M194.7,133.1c0-0.5,0-0.9,0-1.4h0.8l0,0.8h0c0.3-0.5,0.7-0.9,1.6-0.9c0.7,0,1.2,0.4,1.4,1h0
				c0.2-0.3,0.4-0.5,0.6-0.7c0.3-0.2,0.6-0.4,1.1-0.4c0.7,0,1.6,0.4,1.6,2.2v2.9H201v-2.8c0-1-0.4-1.5-1.1-1.5
				c-0.5,0-0.9,0.4-1.1,0.8c0,0.1-0.1,0.3-0.1,0.5v3.1h-0.9v-3c0-0.8-0.4-1.4-1-1.4c-0.6,0-1,0.5-1.1,0.9c-0.1,0.1-0.1,0.3-0.1,0.4
				v3h-0.9V133.1z"/>
			<path class="st7" d="M203.3,129.4h0.9v7.3h-0.9V129.4z"/>
		</g>
	</g>
	<g>
		<g>
			<path class="st15" d="M103.9,148.2c-5.2,0.8-10.6,2.8-15.5,5.6c-5.9,3.4-9.1,7.3-10.5,11C87.8,162.4,96.7,156.2,103.9,148.2z"/>
			<path class="st16" d="M114.4,148.5c-3.3-0.8-6.9-0.8-10.5-0.2c-7.2,8-16.1,14.2-25.9,16.7c-1.2,3.3-0.9,6.5,0.2,9.1
				c0.3,0.8,0.7,1.4,1.1,2C93.8,169.9,107.7,161.9,114.4,148.5z"/>
			<path class="st15" d="M133.6,150.9c-6.3-3.3-11.3,1.2-11.3,1.2c-2.3-1.8-5-3-7.8-3.6c-6.7,13.4-20.6,21.4-35.1,27.5
				c2.4,3.2,5.7,2.5,5.7,2.5s6.3,6,6.7,6.1c0.4,0.1,35.9,7,43.2,7.4c7.3,0.4,7.9-8.5,8.3-14.9C143.7,170.7,139.8,154.2,133.6,150.9z
				"/>
			<path class="st17" d="M109.7,217.5c-0.8,1.7-2,3.2-3.7,3.5c0,0,10.3,6.5,22.8-1.9c0,0-1.3-1.4-2.3-4
				C121.2,217,115.5,217.8,109.7,217.5z"/>
			<path class="st18" d="M125.4,206.1l-14,5c0,0-0.3,3.6-1.6,6.5c5.7,0.2,11.5-0.6,16.8-2.5C125.7,212.9,125,209.9,125.4,206.1z"/>
			<path class="st17" d="M85,178.4c-0.4,0,1.6,14.7,2.1,20.5c0.4,5.8,10.7,13.8,24.3,12.1c13.5-1.8,21.4-9.5,24.3-18.3
				c0,0,5.4-2.1,4.8-9.4c-0.6-7.3-8-8.6-9.1-3.2c0,0-8.5-2-13.1-12.6c0,0-14.4,12.7-23.2,13c-3-0.1-3.4-2.5-2.8-4.8
				C92.8,173.5,89.5,178.6,85,178.4z"/>
			<path class="st15" d="M125.4,181.9c0,0-4.8-4-8.9-4.2c-4.2-0.1-8.2,1.5-6.2,2.2c2,0.6-1.5,1.8,1,2
				C113.8,182,121.5,180.1,125.4,181.9z"/>
			<path class="st15" d="M86,186c0,0,3.5-5.2,7.4-6.5c4-1.3,8.3-0.8,6.6,0.4c-1.8,1.2,2,1.3-0.4,2.2C97.2,183,89.2,183.2,86,186z"/>
			<g>
				<path d="M134.8,189.7c-0.9-2.2-1.6-4.1-1.6-6.5c0-1,0.2-1.9,0.7-2.8c1-1.7,2.3-0.2,3.1,0.7c0.2,0.3,0.7,0,0.6-0.4
					c-0.8-2.4-3.2-3-4.7-0.9c-2,2.7-0.6,7.7,1.2,10.1C134.4,190.2,134.9,190,134.8,189.7L134.8,189.7z"/>
			</g>
			<g>
				<path d="M133,186c0.5-0.4,0.7-0.9,1.3-1.3c0.7-0.4,1.4-0.2,2.1-0.2c0.4,0,0.6-0.5,0.3-0.8c-0.8-0.7-2-0.4-2.8,0
					c-0.7,0.4-1.6,1.3-1.3,2.1C132.6,186.1,132.8,186.2,133,186L133,186z"/>
			</g>
			<g>
				<path d="M103.6,192.8c-0.6-0.4-3.7-4.7-2.4-4.4c1.1,0.2,2.9,2.1,4,1.7c3.2-1.2,0.5-9.5-0.1-11.6c-0.2-0.7-1.2-0.4-1,0.3
					c0.3,1.6,0.7,3.2,1,4.8c0.2,1,1.2,6.2-1.2,4.8c-0.7-0.4-3-1.9-3.9-0.9c-1.6,1.8,1.8,5.1,3.3,5.8
					C103.7,193.4,103.9,193,103.6,192.8L103.6,192.8z"/>
			</g>
			<g>
				<path d="M106.6,197.7c1.3,0.6,3.2-0.1,4-1.2c1-1.1,1.2-3.2,0.5-4.5c-0.2-0.4-0.8-0.2-0.8,0.2c-0.1,1.2,0.4,2.3-0.3,3.5
					c-0.8,1.3-2.2,1.1-3.3,1.5C106.5,197.3,106.4,197.6,106.6,197.7L106.6,197.7z"/>
			</g>
			<ellipse cx="115.9" cy="189" rx="1.7" ry="2.1"/>
			<ellipse cx="94.9" cy="190.2" rx="1.7" ry="2.1"/>
			<path class="st17" d="M96,267.1c1.5-7.8,1.5-18.4,1.5-18.4s-9.3-1.8-11.6-3.3l-4.9,15.8C81,267.9,95.4,270.4,96,267.1z"/>
			<path class="st10" d="M137,249.1c1.4-0.1,8.6-1,13.6-6.4c0,0-1.6-14.7-6.8-20.2c-3.1-3.3-8.1-3.7-14-3.5c-0.3,0-0.6,0-0.8,0
				c0,0-10.9,7.5-22.6,2c0,0-0.1,0-0.1-0.1c0,0-12.7-1.2-16.1,6.4c-3.4,7.6-3.9,18.3-3.9,18.3s6.2,2.4,8.1,2.5l0,0.5l-1.3,28.4
				c0,0,36.9,5.2,44.9,0.7l-1-28.7C136.7,249.1,136.8,249.1,137,249.1z"/>
			<path class="st17" d="M148.3,244.8c-4.5,2.6-11.6,4.4-11.6,4.4s0.1,14,1.5,24.3c0.2,1.1,0,0.3,0.2,1.5c5.8,6.2,15.3,5.4,15.7-3.3
				C154.6,259.9,148.3,244.8,148.3,244.8z"/>
			<g>
				<path d="M94.2,257.9c0.7-6.6,0.8-13.4,0.8-20.1c0-0.5-0.9-0.7-1-0.1c-0.9,6.6-0.5,13.5-0.7,20.2
					C93.3,258.5,94.1,258.5,94.2,257.9L94.2,257.9z"/>
			</g>
			<g>
				<path d="M94.1,248.2c1-1,1.5-2.5,1.9-3.8c0.6-1.7,1.1-3.5,1.5-5.3c0.1-0.5-0.7-0.9-0.9-0.4c-0.6,1.4-0.8,2.9-1.2,4.3
					c-0.4,1.7-1.1,3.3-1.8,4.9C93.4,248.2,93.9,248.4,94.1,248.2L94.1,248.2z"/>
			</g>
			<g>
				<path d="M136.8,256.1c0.5-2.2,0.3-4.7,0.4-7c0.2-2.7,0.6-5.4,0.6-8.1c0-0.5-0.8-0.6-0.8-0.1c-0.4,2.4-0.5,4.8-0.7,7.2
					c-0.2,2.6-0.6,5.5,0.2,8C136.5,256.2,136.7,256.2,136.8,256.1L136.8,256.1z"/>
			</g>
			<g>
				<path d="M136.8,248.7c-0.3-1.8-0.7-3.8-1.2-5.6c-0.1-0.3-0.6-0.3-0.6,0.1c0.2,1.8,0.4,4.1,1.3,5.7
					C136.4,249.2,136.8,249,136.8,248.7L136.8,248.7z"/>
			</g>
		</g>
		<path class="st17" d="M102.9,268c-6.7-9.9-16.9-8.1-21.3-7.5c-0.1,0-0.2,0-0.3,0c-0.5,3-1.9,6.3-0.2,7.5c2.8,1.9,8.2,0.1,8.2,0.1
			s2.7,4.2,4,3.9c1.2-0.3-0.4-6.3-0.4-6.3s2.4,6,3.5,6c1.1,0.1-1.6-6-1.6-6s4.3,6.9,5.9,5.5c1-1-1.1-3.6-2.6-5.2
			c-0.7-0.7-1.2-1.2-1.2-1.2s0.5,0.5,1.2,1.2c1.6,1.6,4.4,4.3,5,4.1C103.9,270,102.9,268,102.9,268z"/>
		<path class="st17" d="M150.2,264.9c0,0-13.1-3.8-17.5-4.4c-4.3-0.6-14.6-2.4-21.3,7.5c0,0-1,2-0.2,2.2c0.9,0.3,6.2-5.3,6.2-5.3
			s-5.3,5-3.8,6.4c1.5,1.4,5.9-5.5,5.9-5.5s-2.7,6-1.6,6c1.1-0.1,3.5-6,3.5-6s-1.6,6-0.4,6.3c1.2,0.3,3.6-4.7,3.6-4.7s3.8,2.9,7,1.2
			l10.3,9.3C141.8,277.9,151.2,267.9,150.2,264.9z"/>
	</g>
	<g>
		<path class="st19" d="M121.7,251.8c0,3.6,2.9,6.6,6.6,6.6h85.1c3.6,0,6.6-2.9,6.6-6.6v-53.3c0-3.6-2.9-6.6-6.6-6.6h-85.1
			c-3.6,0-6.6,2.9-6.6,6.6V251.8z"/>
		<path class="st20" d="M126,250.4c0,3.4,2.8,6.2,6.2,6.2h80c3.4,0,6.2-2.8,6.2-6.2v-50.1c0-3.4-2.8-6.2-6.2-6.2h-80
			c-3.4,0-6.2,2.8-6.2,6.2V250.4z"/>
		<g>
			<g>
				<path class="st19" d="M174.5,259.9c-0.2,0-0.4,0-0.6,0.1c1.7,0.3,3.1,1.8,3.1,3.6c0,1.8-1.3,3.3-3.1,3.6c0.2,0,0.4,0.1,0.6,0.1
					c2,0,3.6-1.6,3.6-3.6C178.2,261.5,176.5,259.9,174.5,259.9z"/>
				<path class="st21" d="M170.3,263.6c0-1.8,1.3-3.3,3.1-3.6c-0.2,0-0.4-0.1-0.6-0.1c-2,0-3.6,1.6-3.6,3.6c0,2,1.6,3.6,3.6,3.6
					c0.2,0,0.4,0,0.6-0.1C171.7,266.9,170.3,265.4,170.3,263.6z"/>
			</g>
			<path class="st21" d="M181.5,239.6c-2.1-3-8.1-4.5-12.6-3.3c-1.8,2.3-3.3,5.7-3.7,10.6c-0.8,10.3-1.7,22.7-2,27.7h21
				C184.2,274.6,184.7,244.1,181.5,239.6z M174.4,267.2c-2,0-3.6-1.6-3.6-3.6c0-2,1.6-3.6,3.6-3.6c2,0,3.6,1.6,3.6,3.6
				C178.1,265.6,176.4,267.2,174.4,267.2z"/>
			<path class="st19" d="M154.3,272.4c0.4-1.1,6.2-0.5,6.2-0.5s0.4-25,3.2-31.5c0.9-2.2,2.9-3.5,5.2-4.1c-1.8,2.3-3.3,5.7-3.7,10.6
				c-0.8,10.3-1.7,22.7-2,27.7h-8.8C154.3,274.6,153.9,273.5,154.3,272.4z"/>
		</g>
		<path class="st21" d="M157.1,247.2c0,0.8-0.7,1.5-1.5,1.5h-18.4c-0.8,0-1.5-0.7-1.5-1.5v-2.1c0-0.8,0.7-1.5,1.5-1.5h18.4
			c0.8,0,1.5,0.7,1.5,1.5V247.2z"/>
		<circle class="st20" cx="153.6" cy="246.3" r="1.1"/>
		<circle class="st20" cx="146.5" cy="246.3" r="1.1"/>
		<circle class="st20" cx="139.7" cy="246.3" r="1.1"/>
	</g>
	<g>
		<path class="st19" d="M106,256.2c0,2.9-2.4,5.3-5.3,5.3H32c-2.9,0-5.3-2.4-5.3-5.3v-43c0-2.9,2.4-5.3,5.3-5.3h68.6
			c2.9,0,5.3,2.4,5.3,5.3V256.2z"/>
		<path class="st20" d="M102.5,255.1c0,2.8-2.2,5-5,5H33c-2.8,0-5-2.2-5-5v-40.4c0-2.8,2.2-5,5-5h64.6c2.8,0,5,2.2,5,5V255.1z"/>
		<g>
			<g>
				<path class="st19" d="M63.3,262.8c0.2,0,0.3,0,0.5,0c-1.4,0.2-2.5,1.4-2.5,2.9c0,1.5,1.1,2.7,2.5,2.9c-0.2,0-0.3,0-0.5,0
					c-1.6,0-2.9-1.3-2.9-2.9C60.4,264.1,61.7,262.8,63.3,262.8z"/>
				<path class="st21" d="M66.7,265.7c0-1.5-1.1-2.7-2.5-2.9c0.2,0,0.3,0,0.5,0c1.6,0,2.9,1.3,2.9,2.9c0,1.6-1.3,2.9-2.9,2.9
					c-0.2,0-0.3,0-0.5,0C65.7,268.4,66.7,267.2,66.7,265.7z"/>
			</g>
			<path class="st21" d="M55.6,274.6h17c-0.3-4.1-1-14-1.6-22.3c-0.3-3.9-1.6-6.7-3-8.5c-3.7-1-8.5,0.2-10.2,2.7
				C55.1,250,55.6,274.6,55.6,274.6z M60.5,265.7c0-1.6,1.3-2.9,2.9-2.9c1.6,0,2.9,1.3,2.9,2.9c0,1.6-1.3,2.9-2.9,2.9
				C61.8,268.6,60.5,267.3,60.5,265.7z"/>
			<path class="st19" d="M79.7,272.8c-0.3-0.9-5-0.4-5-0.4s-0.3-20.1-2.6-25.4c-0.8-1.8-2.3-2.8-4.2-3.3c1.4,1.9,2.7,4.6,3,8.5
				c0.7,8.3,1.4,18.3,1.6,22.3h7.1C79.7,274.6,80,273.7,79.7,272.8z"/>
		</g>
		<path class="st21" d="M77.4,252.5c0,0.7,0.5,1.2,1.2,1.2h14.8c0.7,0,1.2-0.5,1.2-1.2v-1.7c0-0.7-0.5-1.2-1.2-1.2H78.6
			c-0.7,0-1.2,0.5-1.2,1.2V252.5z"/>
		<circle class="st20" cx="80.3" cy="251.8" r="0.8"/>
		<circle class="st20" cx="86" cy="251.8" r="0.8"/>
		<circle class="st20" cx="91.4" cy="251.8" r="0.8"/>
	</g>
	<path class="st17" d="M96.8,264.9c0,0,0.5,0.5,1.2,1.2C97.3,265.4,96.8,264.9,96.8,264.9z"/>
	<rect x="82.3" y="270.2" class="st19" width="60.8" height="3.6"/>
	<rect x="26.7" y="273.3" width="190.2" height="9"/>
	<g>
		<path class="st8" d="M54,116.4c-4.8-2.4-10.5-1.4-14.2,2.3c-4.6,4.6-4.8,12.1-0.5,16.9l-1.9-0.2c-0.2,0-0.4,0.1-0.5,0.4
			c0,0.2,0.1,0.4,0.4,0.5l2.8,0.3c0.1,0,0.2,0,0.3-0.1c0.1-0.1,0.1-0.2,0.2-0.3l0.3-2.7c0-0.2-0.1-0.4-0.4-0.5
			c-0.2,0-0.4,0.1-0.5,0.4l-0.2,1.7c-4-4.5-3.9-11.5,0.4-15.8c3.5-3.5,8.8-4.4,13.3-2.2c0.2,0.1,0.4,0,0.5-0.2
			C54.3,116.7,54.2,116.5,54,116.4z"/>
		<path class="st8" d="M43.4,139c4.8,2.4,10.5,1.4,14.2-2.3c4.6-4.6,4.8-12.1,0.5-16.9L60,120c0.2,0,0.4-0.1,0.5-0.4
			c0-0.2-0.1-0.4-0.4-0.5l-2.8-0.3c-0.1,0-0.2,0-0.3,0.1c-0.1,0.1-0.1,0.2-0.2,0.3l-0.3,2.7c0,0.2,0.1,0.4,0.4,0.5
			c0.2,0,0.4-0.1,0.5-0.4l0.2-1.7c4,4.5,3.9,11.5-0.4,15.8c-3.5,3.5-8.8,4.4-13.3,2.2c-0.2-0.1-0.4,0-0.5,0.2
			C43.1,138.7,43.2,138.9,43.4,139z"/>
	</g>
</g>
<g>
</g>
<g>
</g>
<g>
</g>
<g>
</g>
<g>
</g>
<g>
</g>
<g>
</g>
<g>
</g>
<g>
</g>
<g>
</g>
<g>
</g>
<g>
</g>
<g>
</g>
<g>
</g>
<g>
</g>
</svg>
