<svg id="Capa_1" enable-background="new 0 0 512 512" height="512" viewBox="0 0 512 512" width="512" xmlns="http://www.w3.org/2000/svg"><g><circle cx="256" cy="256" fill="#ffde46" r="256"/><path d="m512 256c0-140.61-115.39-256-256-256v512c140.61 0 256-115.39 256-256z" fill="#ffb823"/><path d="m185.395 176.605-19.395-19.394-19.395 19.394-21.21-21.21 40.605-40.606 40.605 40.606z" fill="#59281f"/><path d="m365.395 176.605-19.395-19.394-19.395 19.394-21.21-21.21 40.605-40.606 40.605 40.606z" fill="#401810"/><path d="m389.124 226h-133.124-135l-30 15v15c0 90.981 74.019 165 165 165s165-74.019 165-165v-15z" fill="#f69"/><path d="m421 256v-15l-31.876-15h-133.124v195c90.981 0 165-74.019 165-165z" fill="#e62e6b"/><path d="m256 211h-165v30h165 165v-30z" fill="#fff7cc"/><path d="m256 211h165v30h-165z" fill="#ffe6b3"/></g></svg>